<svg xmlns="http://www.w3.org/2000/svg" width="3" height="400" viewBox="0 0 3 400" preserveAspectRatio="none"><path fill="#22201C" d="M0.7 0.0 L0.8 2.5 L0.8 5.0 L0.9 7.5 L1.0 10.0 L1.0 12.5 L1.0 15.0 L1.0 17.5 L1.1 20.0 L1.1 22.5 L1.1 25.0 L1.1 27.5 L1.1 30.0 L1.1 32.5 L1.1 35.0 L1.1 37.5 L1.0 40.0 L1.0 42.5 L0.9 45.0 L0.9 47.5 L0.9 50.0 L0.9 52.5 L0.9 55.0 L0.9 57.5 L0.9 60.0 L0.9 62.5 L0.9 65.0 L0.9 67.5 L0.8 70.0 L0.8 72.5 L0.8 75.0 L0.8 77.5 L0.7 80.0 L0.7 82.5 L0.7 85.0 L0.8 87.5 L0.8 90.0 L0.8 92.5 L0.8 95.0 L0.8 97.5 L0.8 100.0 L0.8 102.5 L0.9 105.0 L0.9 107.5 L0.9 110.0 L0.9 112.5 L1.0 115.0 L1.0 117.5 L1.0 120.0 L0.9 122.5 L0.9 125.0 L0.8 127.5 L0.8 130.0 L0.7 132.5 L0.7 135.0 L0.7 137.5 L0.6 140.0 L0.7 142.5 L0.7 145.0 L0.7 147.5 L0.8 150.0 L0.8 152.5 L0.8 155.0 L0.9 157.5 L0.9 160.0 L1.0 162.5 L1.0 165.0 L1.1 167.5 L1.1 170.0 L1.1 172.5 L1.2 175.0 L1.2 177.5 L1.2 180.0 L1.2 182.5 L1.1 185.0 L1.1 187.5 L1.0 190.0 L1.0 192.5 L1.0 195.0 L1.0 197.5 L0.9 200.0 L0.9 202.5 L0.9 205.0 L0.9 207.5 L0.9 210.0 L0.8 212.5 L0.8 215.0 L0.7 217.5 L0.7 220.0 L0.6 222.5 L0.6 225.0 L0.6 227.5 L0.6 230.0 L0.6 232.5 L0.6 235.0 L0.6 237.5 L0.6 240.0 L0.6 242.5 L0.6 245.0 L0.7 247.5 L0.7 250.0 L0.8 252.5 L0.9 255.0 L1.0 257.5 L1.1 260.0 L1.1 262.5 L1.2 265.0 L1.2 267.5 L1.2 270.0 L1.2 272.5 L1.1 275.0 L1.1 277.5 L1.0 280.0 L1.0 282.5 L1.0 285.0 L1.0 287.5 L0.9 290.0 L0.9 292.5 L0.9 295.0 L0.8 297.5 L0.8 300.0 L0.8 302.5 L0.8 305.0 L0.8 307.5 L0.8 310.0 L0.8 312.5 L0.8 315.0 L0.9 317.5 L0.9 320.0 L0.9 322.5 L0.9 325.0 L0.9 327.5 L0.9 330.0 L0.9 332.5 L0.9 335.0 L0.9 337.5 L0.9 340.0 L0.9 342.5 L0.9 345.0 L0.9 347.5 L1.0 350.0 L1.0 352.5 L1.0 355.0 L1.0 357.5 L0.9 360.0 L0.9 362.5 L0.9 365.0 L0.9 367.5 L0.9 370.0 L0.9 372.5 L0.8 375.0 L0.8 377.5 L0.7 380.0 L0.7 382.5 L0.6 385.0 L0.6 387.5 L0.6 390.0 L0.6 392.5 L0.6 395.0 L0.6 397.5 L0.7 400.0 L1.9 400.0 L1.9 397.5 L1.9 395.0 L1.9 392.5 L1.9 390.0 L1.8 387.5 L1.8 385.0 L1.8 382.5 L1.8 380.0 L1.8 377.5 L1.8 375.0 L1.8 372.5 L1.9 370.0 L2.0 367.5 L2.0 365.0 L2.1 362.5 L2.2 360.0 L2.2 357.5 L2.3 355.0 L2.3 352.5 L2.4 350.0 L2.4 347.5 L2.5 345.0 L2.5 342.5 L2.5 340.0 L2.5 337.5 L2.5 335.0 L2.4 332.5 L2.4 330.0 L2.3 327.5 L2.2 325.0 L2.2 322.5 L2.1 320.0 L2.1 317.5 L2.1 315.0 L2.1 312.5 L2.1 310.0 L2.1 307.5 L2.1 305.0 L2.1 302.5 L2.1 300.0 L2.1 297.5 L2.1 295.0 L2.1 292.5 L2.1 290.0 L2.1 287.5 L2.1 285.0 L2.1 282.5 L2.1 280.0 L2.1 277.5 L2.1 275.0 L2.0 272.5 L2.0 270.0 L2.0 267.5 L2.0 265.0 L2.0 262.5 L2.0 260.0 L2.0 257.5 L2.0 255.0 L2.0 252.5 L2.0 250.0 L2.0 247.5 L2.0 245.0 L2.0 242.5 L2.0 240.0 L2.0 237.5 L1.9 235.0 L1.9 232.5 L1.9 230.0 L2.0 227.5 L2.0 225.0 L2.0 222.5 L2.0 220.0 L2.1 217.5 L2.1 215.0 L2.2 212.5 L2.2 210.0 L2.3 207.5 L2.3 205.0 L2.4 202.5 L2.5 200.0 L2.5 197.5 L2.5 195.0 L2.6 192.5 L2.5 190.0 L2.5 187.5 L2.4 185.0 L2.4 182.5 L2.3 180.0 L2.3 177.5 L2.2 175.0 L2.2 172.5 L2.1 170.0 L2.1 167.5 L2.1 165.0 L2.0 162.5 L2.0 160.0 L1.9 157.5 L1.9 155.0 L1.9 152.5 L1.9 150.0 L1.9 147.5 L1.9 145.0 L2.0 142.5 L2.0 140.0 L2.0 137.5 L2.0 135.0 L2.0 132.5 L2.0 130.0 L2.0 127.5 L2.0 125.0 L2.0 122.5 L2.0 120.0 L2.0 117.5 L2.1 115.0 L2.1 112.5 L2.2 110.0 L2.2 107.5 L2.2 105.0 L2.2 102.5 L2.2 100.0 L2.2 97.5 L2.2 95.0 L2.2 92.5 L2.2 90.0 L2.1 87.5 L2.1 85.0 L2.1 82.5 L2.1 80.0 L2.0 77.5 L2.0 75.0 L2.0 72.5 L2.0 70.0 L2.0 67.5 L2.0 65.0 L2.0 62.5 L2.1 60.0 L2.2 57.5 L2.2 55.0 L2.3 52.5 L2.4 50.0 L2.4 47.5 L2.4 45.0 L2.4 42.5 L2.4 40.0 L2.4 37.5 L2.4 35.0 L2.4 32.5 L2.4 30.0 L2.4 27.5 L2.3 25.0 L2.3 22.5 L2.2 20.0 L2.2 17.5 L2.1 15.0 L2.0 12.5 L2.0 10.0 L1.9 7.5 L1.9 5.0 L1.9 2.5 L1.9 0.0 Z"/></svg>
