<svg xmlns="http://www.w3.org/2000/svg" width="400" height="3" viewBox="0 0 400 3"><path fill="#000" d="M0.00 2.06 L2.50 2.02 L5.00 2.00 L7.50 2.00 L10.00 2.01 L12.50 2.01 L15.00 2.01 L17.50 2.00 L20.00 1.98 L22.50 1.96 L25.00 1.94 L27.50 1.93 L30.00 1.92 L32.50 1.92 L35.00 1.91 L37.50 1.90 L40.00 1.89 L42.50 1.88 L45.00 1.87 L47.50 1.87 L50.00 1.87 L52.50 1.88 L55.00 1.88 L57.50 1.89 L60.00 1.88 L62.50 1.88 L65.00 1.88 L67.50 1.89 L70.00 1.90 L72.50 1.93 L75.00 1.96 L77.50 1.99 L80.00 2.01 L82.50 2.03 L85.00 2.04 L87.50 2.06 L90.00 2.09 L92.50 2.13 L95.00 2.18 L97.50 2.24 L100.00 2.28 L102.50 2.31 L105.00 2.32 L107.50 2.30 L110.00 2.26 L112.50 2.22 L115.00 2.20 L117.50 2.19 L120.00 2.21 L122.50 2.24 L125.00 2.27 L127.50 2.29 L130.00 2.28 L132.50 2.24 L135.00 2.18 L137.50 2.11 L140.00 2.04 L142.50 2.00 L145.00 1.98 L147.50 1.99 L150.00 2.01 L152.50 2.04 L155.00 2.05 L157.50 2.06 L160.00 2.04 L162.50 2.01 L165.00 1.97 L167.50 1.93 L170.00 1.90 L172.50 1.87 L175.00 1.86 L177.50 1.84 L180.00 1.84 L182.50 1.84 L185.00 1.85 L187.50 1.85 L190.00 1.86 L192.50 1.86 L195.00 1.86 L197.50 1.84 L200.00 1.81 L202.50 1.78 L205.00 1.76 L207.50 1.76 L210.00 1.78 L212.50 1.83 L215.00 1.88 L217.50 1.94 L220.00 1.99 L222.50 2.02 L225.00 2.03 L227.50 2.03 L230.00 2.02 L232.50 2.02 L235.00 2.03 L237.50 2.06 L240.00 2.10 L242.50 2.14 L245.00 2.17 L247.50 2.17 L250.00 2.16 L252.50 2.13 L255.00 2.10 L257.50 2.08 L260.00 2.07 L262.50 2.08 L265.00 2.09 L267.50 2.11 L270.00 2.11 L272.50 2.10 L275.00 2.07 L277.50 2.04 L280.00 2.01 L282.50 1.99 L285.00 1.99 L287.50 2.01 L290.00 2.04 L292.50 2.08 L295.00 2.10 L297.50 2.11 L300.00 2.10 L302.50 2.09 L305.00 2.06 L307.50 2.04 L310.00 2.02 L312.50 2.02 L315.00 2.02 L317.50 2.03 L320.00 2.04 L322.50 2.05 L325.00 2.07 L327.50 2.08 L330.00 2.09 L332.50 2.10 L335.00 2.10 L337.50 2.09 L340.00 2.08 L342.50 2.06 L345.00 2.06 L347.50 2.06 L350.00 2.10 L352.50 2.15 L355.00 2.21 L357.50 2.28 L360.00 2.33 L362.50 2.35 L365.00 2.35 L367.50 2.31 L370.00 2.27 L372.50 2.23 L375.00 2.20 L377.50 2.20 L380.00 2.23 L382.50 2.26 L385.00 2.29 L387.50 2.31 L390.00 2.29 L392.50 2.25 L395.00 2.19 L397.50 2.12 L400.00 2.06 L400.00 3.00 L0.00 3.00 Z"/></svg>
