<?xml version="1.0" encoding="UTF-8"?>
<svg id="a" data-name="Layer 1" xmlns="http://www.w3.org/2000/svg" width="13.687in" height="6.375in" viewBox="0 0 985.492 458.978">
  <path d="M723.482,241.6c-.26,5.577-.238,11.184-.847,16.723-.835,7.59-2.037,15.147-3.293,22.683-.982,5.888-2.057,11.78-3.52,17.562-1.143,4.517-2.968,8.86-4.447,13.295-.778,2.33-1.691,4.647-2.151,7.045-1.495,7.784-6.08,14.182-9.278,21.198-.288,.633-.827,1.222-.901,1.871-.512,4.453-3.293,7.798-5.572,11.346-2.887,4.496-5.922,8.907-9.099,13.203-2.897,3.916-6.011,7.677-9.137,11.417-2.985,3.573-6.106,7.034-9.174,10.538-.26,.297-.529,.712-.865,.798-5.079,1.31-7.514,5.966-11.319,8.882-7.173,5.497-14.266,11.099-21.485,16.535-3.009,2.266-6.163,4.376-9.412,6.282-6.831,4.005-13.623,8.121-20.706,11.639-6.564,3.261-13.407,6.015-20.28,8.583-4.342,1.623-8.95,2.552-13.464,3.689-5.366,1.352-10.738,2.696-16.151,3.842-2.718,.575-5.523,.841-8.302,1.007-8.156,.488-16.326,1.274-24.48,1.171-11.263-.142-22.547-.656-33.762-1.669-5.977-.54-11.838-2.429-17.736-3.775-5.139-1.173-10.344-2.16-15.36-3.738-5.838-1.836-11.512-4.2-17.237-6.387-2.595-.992-5.251-1.907-7.689-3.212-5.495-2.941-11.004-5.896-16.266-9.226-7.956-5.033-15.903-10.123-23.481-15.694-6.153-4.523-11.701-9.858-17.627-14.7-3.031-2.477-6.61-4.347-9.389-7.056-3.74-3.646-7.107-7.712-10.346-11.824-5.714-7.252-11.336-14.586-16.738-22.072-2.133-2.957-3.696-6.353-5.302-9.655-3.308-6.8-6.481-13.667-9.68-20.52-.332-.711-.535-1.503-.676-2.279-1.127-6.207-4.221-11.695-6.389-17.521-.242-.651-.597-1.276-.737-1.946-1.841-8.858-3.057-17.901-5.662-26.527-2.08-6.89-2.176-13.958-3.174-20.88-.693-4.806-1.438-10.126,.36-15.318,1.1-3.176,.376-6.935,.884-10.372,1.22-8.249,2.575-16.482,4.089-24.682,.948-5.136,2.115-10.246,3.499-15.282,.965-3.509,2.474-6.867,3.718-10.301,.303-.838,.517-1.708,.773-2.563,.96-3.21,1.893-6.429,2.907-9.622,.168-.529,.639-1.007,1.067-1.402,3.066-2.826,4.922-6.365,6.624-10.132,2.28-5.046,4.944-9.93,7.651-14.767,2.075-3.707,4.353-7.316,6.76-10.818,2.358-3.432,4.868-6.778,7.536-9.974,4.009-4.802,8.373-9.313,12.291-14.184,4.084-5.079,9.639-8.489,14.116-13.092,.527-.541,1.247-1.283,1.221-1.904-.097-2.309,1.235-2.619,3.093-3.124,2.244-.611,4.456-1.698,6.394-3.005,6.577-4.435,12.824-9.39,19.584-13.516,6.758-4.125,13.958-7.534,21.007-11.173,4.479-2.313,9.004-4.544,13.574-6.672,2.148-1,4.416-1.783,6.689-2.466,5.41-1.626,10.916-2.948,16.273-4.727,11.02-3.66,22.576-3.95,33.922-5.277,7.449-.871,15.123-.13,22.676,.271,6.952,.369,13.881,1.218,20.812,1.927,1.472,.15,2.921,.573,4.365,.933,.868,.216,1.698,.776,2.557,.803,6.239,.198,12.202,1.84,18.126,3.53,6.666,1.903,13.248,4.106,19.842,6.255,2.539,.827,4.954,2.065,7.522,2.765,6.847,1.868,13.075,5.164,19.364,8.277,3.431,1.698,6.517,4.085,9.798,6.099,1.513,.929,3.22,1.562,4.662,2.579,5.766,4.066,11.288,8.511,17.266,12.229,2.648,1.646,4.6,3.308,6.631,5.783,4.08,4.968,9.724,8.617,14.299,13.23,4.05,4.084,7.364,8.889,11.294,13.103,5.182,5.556,9.415,11.742,13.18,18.286,3.86,6.71,7.701,13.432,11.49,20.182,1.02,1.817,1.507,4.01,2.786,5.589,3.832,4.732,4.535,10.883,7.604,15.955,1.159,1.916,1.703,4.237,2.338,6.429,2.71,9.354,5.662,18.646,6.921,28.363,1.036,8.001,2.313,15.972,3.322,23.977,.297,2.355,.046,4.779,.046,7.172,.067,.003,.135,.006,.202,.009Zm-127.268-109.491c.251-2.655,.363-5.333,.799-7.958,.353-2.123,1.155-4.167,1.644-6.273,.314-1.353,.347-2.769,.636-4.129,.613-2.886,1.436-5.732,1.946-8.633,.885-5.033-.104-7.242-6.911-5.328-.76,.214-1.44,.695-2.191,.954-1.407,.485-2.834,.913-4.262,1.336-2.848,.843-5.765,1.499-8.538,2.54-2.999,1.126-3.258,2.734-2.141,5.656,1.548,4.051,3.239,8.179,3.861,12.421,.964,6.578,1.228,13.213,.018,19.932-1.389,7.715-3.397,15.03-8.173,21.387-.651,.866-1.179,1.842-1.648,2.822-2.304,4.809-4.409,9.721-6.898,14.43-2.037,3.854-4.583,7.436-6.774,11.213-1.436,2.474-2.571,5.12-3.966,7.62-3.615,6.478-7.399,12.864-10.915,19.394-1.973,3.664-3.52,7.555-5.311,11.318-1.784,3.75-4.43,7.294-5.295,11.236-2.046,9.313-3.79,18.553,3.752,27.043,7.769,8.748,14.576,18.354,21.713,27.655,2.661,3.468,5.118,7.097,7.571,10.718,2.432,3.591,6.116,6.471,6.524,11.245,.023,.268,.295,.512,.438,.774,3.696,6.794,7.618,13.477,11.012,20.418,2.652,5.424,5.027,11.051,6.819,16.808,1.46,4.69,2.636,9.619,1.468,14.696-1.092,4.746-1.998,9.536-3.118,14.275-.289,1.223-1.003,2.372-1.65,3.48-1.698,2.908-1.071,4.678,2.055,5.684,4.633,1.491,9.262,2.992,13.882,4.524,3.812,1.264,5.636-.259,4.859-4.276-2.347-12.125-4.715-24.246-7.2-36.343-.616-3.002-1.369-6.06-2.642-8.825-2.65-5.755-5.932-11.224-8.499-17.012-2.325-5.241-4.184-10.599-7.44-15.485-1.604-2.408-3.085-4.841-4.877-7.204-5.08-6.698-9.728-13.743-14.222-20.856-2.524-3.995-4.605-8.307-6.524-12.636-2.199-4.963-4.44-9.982-5.868-15.194-2.265-8.268-1.282-16.781-.735-25.214,.012-.192,.128-.376,.19-.566,1.233-3.778,3.045-7.478,3.566-11.351,.838-6.224,4.54-11.194,6.415-16.925,.676-2.067,1.648-4.055,2.647-5.995,1.955-3.797,4.08-7.507,6.033-11.305,2.541-4.943,4.705-10.105,7.561-14.855,2.114-3.517,3.878-7.094,5.145-10.965,.206-.629,.604-1.313,1.118-1.705,3.592-2.741,4.932-6.865,6.6-10.745,1.329-3.09,2.345-6.314,3.473-9.489,.583-1.64,1.438-3.275,1.576-4.96,.182-2.231,.674-4.106,2.552-5.447-.104,.791-.231,1.58-.307,2.374-.293,3.038-.194,6.029-1.9,8.918-1.483,2.512-.102,4.084,2.944,4.02,6.174-.129,12.348-.277,18.521-.463,5.262-.159,10.522-.395,15.784-.551,.389-.012,.788,.35,1.183,.538-.272,.476-.427,1.136-.837,1.396-1.337,.846-2.922,1.355-4.132,2.338-4.159,3.377-8.18,6.921-12.303,10.343-.659,.547-1.57,.791-2.362,1.181-1.92,.944-4.025,1.642-5.712,2.899-2.369,1.763-4.362,4.019-6.63,5.929-7.768,6.54-15.571,13.041-23.398,19.511-1.887,1.56-4.557,2.553-5.755,4.492-2.898,4.688-5.175,9.764-7.624,14.722-.738,1.495-.154,2.557,1.562,2.736,.987,.103,1.995,.029,2.992,.009,11.474-.238,22.948-.448,34.421-.733,12.545-.311,25.09-.659,37.632-1.055,7.182-.226,14.36-.582,21.54-.87,.796-.032,1.627-.132,2.381,.05,.475,.114,.837,.694,1.249,1.065-.376,.405-.679,.965-1.144,1.182-.877,.41-2.021,.397-2.749,.956-4.007,3.078-7.95,6.241-11.86,9.442-4.765,3.9-9.47,7.872-14.212,11.802-1.748,1.449-3.345,3.131-5.924,3.121-.716-.003-1.528,.488-2.138,.956-3.471,2.665-6.886,5.402-10.335,8.096-5.797,4.528-11.563,9.097-17.42,13.547-4.981,3.785-10.14,7.337-15.095,11.154-5.666,4.365-11.175,8.934-16.793,13.362-1.896,1.495-2.21,2.745-.376,4.255,1.052,.866,2.637,1.511,3.988,1.522,11.283,.09,22.567,.04,33.851-.027,15.173-.091,30.345-.198,45.517-.373,6.686-.077,13.369-.377,20.054-.466,.867-.012,1.743,.637,2.615,.98-.468,.769-.769,1.746-1.43,2.276-7.903,6.336-15.848,12.619-23.824,18.863-.576,.451-1.464,.642-2.225,.695-1.954,.136-3.227,.787-3.278,3.024-.013,.577-.56,1.272-1.053,1.687-5.082,4.284-10.138,8.601-15.328,12.752-7.67,6.135-15.448,12.136-23.167,18.21-1.318,1.037-2.293,2.288-1.712,4.119,.896,2.82,1.913,5.604,2.729,8.445,1.508,5.247,2.993,10.504,4.326,15.797,1.042,4.138,1.821,8.342,2.753,12.509,.641,2.867,2.223,3.5,4.756,2.106,.924-.508,2.023-.705,3.05-1.021,1.128-.347,2.527-.357,3.353-1.053,4.242-3.574,8.406-7.249,12.462-11.033,2.756-2.571,5.302-5.368,7.921-8.085,2.132-2.212,4.421-4.308,6.309-6.714,4.408-5.619,8.785-11.278,12.857-17.141,4.007-5.77,8.069-11.583,11.26-17.81,2.344-4.575,5.654-8.933,5.873-14.443,.014-.347,.404-.668,.575-1.022,1.237-2.563,2.821-5.026,3.609-7.721,1.305-4.461,2.084-9.075,3.111-13.619,.263-1.163,.68-2.292,.931-3.457,.584-2.714,1.142-5.434,1.648-8.163,.397-2.143,.685-4.305,1.053-6.454,.386-2.256,.967-4.491,1.184-6.761,.512-5.354,.567-10.767,1.335-16.079,1.38-9.541,2.367-19.001-.831-28.385-.221-.647-.179-1.38-.29-2.069-1.006-6.292-2.016-12.583-3.037-18.872-.063-.39-.215-.767-.346-1.143-2.303-6.63-4.581-13.269-6.927-19.883-1.024-2.886-1.901-5.879-3.355-8.545-1.968-3.607-3.358-7.442-6.155-10.754-3.268-3.87-5.187-8.851-7.909-13.215-4.485-7.188-9.807-13.766-15.895-19.64-5.363-5.175-11.096-9.966-16.633-14.964-6.793-6.131-13.68-12.127-21.832-16.459-2.509-1.333-3.255-.888-3.421,2.04-.107,1.877-.089,3.811-.557,5.609-1.444,5.546-3.093,11.039-4.664,16.552-.136,.479-.157,1.069-.457,1.409-1.799,2.04-1.813,4.529-1.982,7.022-.093,1.363-.162,2.909-2.088,3.125Zm-130.015,152.271c-.848,.579-2.322,1.054-2.439,1.755-.559,3.352-2.945,3.319-5.405,3.343-9.586,.096-19.175,.065-28.756,.311-15.25,.391-30.494,.976-45.742,1.456-8.18,.257-16.362,.486-24.544,.661-.82,.018-1.651-.429-2.477-.66,.494-.672,.878-1.478,1.502-1.992,3.149-2.593,6.369-5.099,9.548-7.656,8.912-7.165,17.834-14.319,26.72-21.518,7.265-5.886,14.463-11.854,21.734-17.733,2.584-2.09,4.794-4.791,8.423-5.301,.582-.082,1.089-.8,1.601-1.256,8.682-7.725,17.335-15.484,26.065-23.155,1.371-1.205,3.109-2.089,2.555-4.267-.719-2.829-2.699-4.264-5.627-4.269-5.372-.009-10.744,.007-16.116,.012-8.978,.008-17.957-.077-26.934,.048-10.976,.154-21.951,.462-32.925,.752-3.389,.089-6.721,.451-9.639,2.519-.746,.529-1.797,.628-2.707,.924,.454-1.015,.666-2.29,1.417-2.986,1.291-1.198,2.931-2.017,4.4-3.03,2.116-1.459,4.255-2.89,6.305-4.438,5.7-4.302,11.312-8.72,17.045-12.977,7.571-5.621,15.21-11.152,22.849-16.682,3.324-2.406,5.949-5.766,10.483-6.487,2.676-.426,3.63-2.932,2.625-5.495-1.558-3.975-3.34-7.861-4.93-11.824-2.213-5.515-4.44-11.028-6.462-16.614-1.386-3.826-2.622-7.729-3.581-11.681-1.054-4.345-1.667-8.796-2.564-13.182-.511-2.499-1.299-2.814-3.416-1.156-3.516,2.754-7.207,5.389-10.263,8.605-6.916,7.278-13.804,14.628-20.098,22.436-4.583,5.686-8.188,12.157-12.246,18.267-3.603,5.425-7.275,10.804-10.82,16.266-1.397,2.153-2.705,4.399-3.738,6.742-1.195,2.712-2.016,5.586-3.045,8.373-2.227,6.031-4.997,11.919-6.6,18.11-2.192,8.46-4.326,17.083-5.003,25.751-1.019,13.045-1.918,26.174,1.166,39.234,1.801,7.626,2.417,15.529,3.639,23.297,.18,1.145,.76,2.228,1.163,3.337,.368,1.014,.78,2.014,1.116,3.038,1.732,5.277,3.387,10.58,5.218,15.822,.367,1.051,1.594,1.783,2.05,2.825,.978,2.236,1.519,4.672,2.585,6.858,2.163,4.434,4.324,8.898,6.91,13.088,3.54,5.737,7.303,11.357,11.286,16.797,4.402,6.012,8.795,12.104,13.863,17.536,5.606,6.008,11.917,11.369,18.035,16.887,2.701,2.436,5.422,5.032,9.527,4.934,.627-.015,1.321,.443,1.891,.822,2.48,1.649,4.984,3.272,7.364,5.058,1.522,1.142,3.278,2.311,4.859,1.22,1.044-.72,1.216-2.715,1.747-4.151,.099-.269,.017-.598,.068-.891,1.171-6.77,2.179-13.574,3.579-20.296,1.133-5.441,2.796-10.77,4.114-16.175,.622-2.549-.088-3.28-2.738-3.091-5.155,.368-10.304,.815-15.459,1.166-2.583,.176-5.183,.362-7.759,.231-.87-.044-1.873-.913-2.455-1.678-.275-.361,.062-1.658,.525-2.035,4.089-3.323,8.286-6.514,12.419-9.784,5.058-4.002,10.046-8.094,15.137-12.054,4.996-3.886,10.097-7.638,15.111-11.503,.558-.43,.836-1.217,1.265-1.824,.63-.891,1.233-1.807,1.936-2.638,.491-.58,1.31-.93,1.674-1.561,3.174-5.495,6.467-10.934,9.329-16.59,1.574-3.112,3.978-6.054,3.556-9.927,1.847-.601,2.372-2.04,2.224-3.763-.041-.473-.604-.9-.928-1.348-.43,.346-1.193,.66-1.229,1.043-.128,1.369-.009,2.76,.017,4.143Zm65.534,108.096c0,.067,0,.135,0,.202,14.679,0,29.358,.056,44.036-.079,1.63-.015,3.375-.906,4.85-1.763,3.785-2.198,5.179-6.107,5.46-10.015,.742-10.311,1.675-20.753-2.566-30.637-1.95-4.544-4.317-8.917-6.623-13.3-1.664-3.162-3.796-6.097-5.26-9.341-2.061-4.566-3.678-9.332-5.543-13.989-.199-.496-.773-.851-1.198-1.245-.793-.736-1.776-1.333-2.382-2.195-5.542-7.879-12.709-14.421-18.027-22.544-3.163-4.832-7.666-8.836-11.813-12.964-3.371-3.355-6.703-6.559-6.931-11.733-.042-.961-.698-1.879-.857-2.852-.992-6.075-2.441-12.176,.616-18.118,1.434-2.787,2.875-5.569,4.282-8.369,1.018-2.026,1.802-4.193,3.01-6.095,2.499-3.938,5.459-7.599,7.779-11.632,3.651-6.347,6.938-12.903,10.362-19.38,2.366-4.475,4.702-8.966,7.051-13.45,1.978-3.775,3.967-7.544,5.927-11.329,1.683-3.25,3.334-6.517,4.993-9.781,.804-1.581,1.71-3.124,2.361-4.766,1.239-3.124,2.582-6.241,3.421-9.48,1.216-4.69,2.614-9.455,2.859-14.243,.332-6.503-1.404-12.825-4.328-18.7-2.614-5.253-4.982-6.33-10.867-5.521-3.064,.421-6.152,.684-9.234,.959-15.393,1.377-30.764,3.312-46.189,3.945-17.143,.704-34.335,.212-51.506,.253-1.596,.004-3.196,.039-4.787,.153-2.235,.161-3.885,1.481-4.466,3.467-1.221,4.174-2.655,8.415-2.947,12.699-.377,5.53-.321,11.238,.651,16.672,1.026,5.737,2.116,11.782,7.058,15.981,.803,.683,1.375,1.732,1.828,2.715,1.907,4.136,3.617,8.366,5.613,12.457,1.91,3.914,3.793,7.893,6.208,11.496,4.366,6.514,9.033,12.833,13.734,19.115,5.473,7.314,11.126,14.493,16.682,21.745,1.923,2.511,4.144,4.881,5.584,7.65,1.487,2.86,2.201,6.123,3.23,9.218,3.061,9.201,.523,17.602-4.387,25.27-4.651,7.264-9.943,14.128-15.122,21.042-5.551,7.411-11.747,14.315-15.388,23.066-2.008,4.824-5.19,9.146-7.551,13.841-3.467,6.894-6.787,13.867-9.938,20.91-1.367,3.056-2.294,6.333-3.167,9.578-.696,2.588-1.035,5.275-1.485,7.926-1.01,5.953-1.35,11.833,.771,17.706,2.227,6.168,6.533,8.89,13.042,8.255,10.825-1.055,21.657-2.302,32.513-2.694,12.865-.465,25.759-.109,38.641-.109Zm-102.766,2.68c-.367,5.819,1.248,6.949,4.964,5.525,3.056-1.171,6.15-2.245,9.211-3.403,2.608-.986,3.559-3.272,1.956-5.447-3.261-4.423-3.72-9.37-3.08-14.523,.878-7.078,.746-14.249,3.609-21.106,2.51-6.014,3.906-12.488,5.916-18.719,.727-2.256,1.673-4.466,2.755-6.577,2.028-3.955,4.273-7.798,6.34-11.734,1.56-2.972,2.113-6.308,4.745-8.927,2.62-2.608,4.173-6.251,6.434-9.26,6.737-8.97,13.676-17.789,20.355-26.801,2.354-3.177,4.522-6.586,6.178-10.164,2.855-6.171,.532-12.347-1.061-18.336-.715-2.688-2.394-5.228-4.066-7.523-1.835-2.52-4.31-4.566-6.241-7.027-2.138-2.725-4.031-5.651-5.928-8.555-1.514-2.318-2.825-4.768-4.314-7.103-2.823-4.429-5.764-8.783-8.551-13.234-2.05-3.275-3.869-6.694-5.908-9.975-2.091-3.364-4.409-6.589-6.476-9.968-2.222-3.632-4.255-7.379-6.393-11.063-2.119-3.65-4.627-7.127-6.303-10.968-1.855-4.251-3.026-8.81-4.37-13.272-.973-3.228-2.155-6.472-2.52-9.788-.763-6.935-.959-13.889,1.549-20.652,.93-2.506,.161-4.173-1.982-4.414-5.133-.577-10.312-1.192-15.458-1.087-4.634,.094-5.447,1.848-4.071,6.275,1.587,5.108,3.066,10.25,4.657,15.358,.944,3.034,1.605,6.25,3.103,8.999,4.233,7.772,6.479,16.611,12.609,23.383,1.092,1.206,1.548,2.969,2.386,4.425,3.856,6.696,7.785,13.351,11.607,20.066,2.992,5.256,5.904,10.559,8.779,15.88,2.159,3.995,4.255,8.027,6.282,12.09,2.073,4.155,4.051,8.358,6.026,12.561,1.34,2.851,3.037,5.629,3.799,8.636,1.145,4.521,1.966,9.189,2.282,13.838,.45,6.622,1.041,13.288-1.593,19.773-1.446,3.559-1.923,7.5-3.214,11.136-1.116,3.143-2.655,6.155-4.206,9.121-1.655,3.164-3.545,6.205-5.331,9.301-1.777,3.081-3.246,6.407-5.438,9.156-1.336,1.675-2.52,3.143-3.409,5.202-2.421,5.604-5.49,10.927-8.244,16.391-1.068,2.118-2.183,4.248-2.923,6.49-2.049,6.209-3.824,12.509-5.874,18.718-2.184,6.614-4.607,13.147-4.756,20.24-.02,.968-.495,1.921-.71,2.892-1.183,5.335-2.35,10.674-3.119,14.171Zm116.483,34.36c5.299,0,10.061,.532,14.661-.102,12.813-1.764,25.742-3.221,38.104-7.197,6.276-2.019,9.121-5.718,8.807-11.58-.175-3.277-1.672-5.091-4.784-6.074-1.213-.383-2.417-.907-3.5-1.572-4.877-2.992-10.18-3.908-15.776-3.263-1.129,.13-2.338,.617-3.259,1.284-2.565,1.859-4.847,4.138-7.512,5.824-7.374,4.665-15.48,7.833-23.922,9.764-6.19,1.416-12.613,2.039-18.968,2.457-7.559,.497-15.16,.327-22.739,.57-8.676,.278-17.248,.455-25.774-2.113-9.028-2.72-17.809-5.583-25.01-12.048-2.378-2.135-5.272-3.718-8.754-2.493-4.685,1.648-9.355,3.251-13.337,6.455-3.766,3.03-4.201,5.894-1.631,10.037,2.701,4.355,7.071,6.286,11.445,7.535,7.257,2.072,14.723,3.626,22.204,4.64,5.487,.744,11.14,.378,16.718,.321,9.67-.1,19.338-.354,29.007-.523,5.379-.094,10.771,.047,16.136-.271,6.168-.365,12.312-1.12,17.886-1.65ZM433.121,85c-.008-.06-.017-.12-.025-.18-2.096,0-4.204-.127-6.283,.06-.872,.079-2.381,.79-2.405,1.272-.116,2.365-1.84,3.045-3.418,4.098-1.481,.987-2.981,2.134-4.007,3.547-.695,.958-1.215,2.9-.707,3.699,1.174,1.844,2.759,3.781,4.655,4.736,3.331,1.678,6.966,2.835,10.575,3.856,2.844,.805,5.823,1.256,8.774,1.527,2.238,.206,4.182-.683,5.885-2.386,2.022-2.022,4.2-4.016,6.642-5.467,7.128-4.237,15.279-5.549,23.206-7.331,4.652-1.046,9.461-1.509,14.226-1.926,11.621-1.017,23.249-2.218,34.937-.963,3.173,.341,6.367,.57,9.507,1.109,7.852,1.347,15.646,3.07,23.527,4.188,4.258,.604,8.055,1.954,11.683,4.12,3.126,1.867,6.165,3.276,10.065,1.389,4.275-2.068,8.898-3.416,13.355-5.114,5.162-1.966,5.798-2.975,4.576-8.046-.216-.894-1.421-2.181-2.201-2.204-4.614-.135-8.914-1.302-13.37-2.467-6.412-1.676-13.191-2.443-19.84-2.62-14.966-.399-29.965-.662-44.918-.107-14.923,.554-29.957-1.047-44.774,1.969-1.16,.236-2.391,.109-3.585,.202-7.559,.586-15.118,1.163-22.674,1.79-4.472,.371-8.936,.83-13.404,1.249Zm98.875,312.263c-.004-.261-.007-.522-.011-.784-16.253,.609-32.508,1.179-48.758,1.847-6.578,.27-13.155,.67-19.715,1.22-1.173,.098-3.153,1.172-3.188,1.873-.06,1.21,.806,2.917,1.832,3.639,2.495,1.755,5.267,3.139,8.001,4.529,1.852,.942,3.785,2.185,5.758,2.342,5.088,.404,9.919,1.893,14.867,2.775,8.482,1.511,17.082,.274,25.588-.955,2.951-.426,5.93-.705,8.905-.91,8.266-.57,16.714,1.157,24.717-2.682,3.353-1.608,7.353-1.84,10.779-3.334,3.238-1.413,6.168-3.578,9.098-5.607,.649-.449,1.156-1.838,.944-2.568-.18-.621-1.453-1.009-2.309-1.321-.531-.194-1.185-.062-1.784-.062-11.575-.002-23.15-.001-34.725-.001Zm-43.094-287.62c18.146,1.45,36.028-1.503,53.995-3.175,4.563-.425,9.116-.992,13.656-1.618,1.374-.189,2.689-.796,4.032-1.212-1.054-1.206-2.105-2.413-3.165-3.614-.059-.067-.183-.074-.274-.114-6.736-2.977-13.872-4.343-21.147-4.862-7.264-.519-14.65-.054-21.808-1.151-10.026-1.537-19.671,.735-29.465,1.545-3.366,.278-6.69,1.064-10.03,1.641-1.176,.203-2.461,.238-3.489,.757-4.417,2.232-8.777,4.581-13.116,6.962-1.98,1.087-1.959,3.157,.091,4.081,1.142,.515,2.512,.72,3.781,.728,8.98,.059,17.96,.032,26.941,.032Zm52.253-35.242c-.001,.183-.002,.366-.003,.548,4.286,0,8.572,.004,12.857-.003,1.294-.002,2.602,.066,3.877-.099,.591-.077,1.12-.637,1.677-.978-.477-.435-.895-1.141-1.441-1.261-4.75-1.04-9.491-2.57-14.294-2.819-10.133-.525-20.304-.507-30.457-.435-6.845,.048-13.782-.518-20.452,1.808-.713,.249-1.581,.029-2.372,.084-5.658,.393-11.315,.799-16.972,1.206-.197,.014-.442,.018-.576,.132-.554,.469-1.073,.979-1.605,1.474,.551,.346,1.067,.894,1.659,.994,1.069,.18,2.187,.164,3.278,.105,9.953-.538,19.9-1.471,29.856-1.565,11.653-.109,23.312,.507,34.969,.808Zm-70.033,199.038c-.589-.987-.996-1.669-1.404-2.352-.382,.91-.951,1.795-1.08,2.74-.086,.63,.453,1.345,.713,2.022,.567-.772,1.134-1.543,1.771-2.41Zm2.004-10.391c-.355-1.456-.609-2.495-.863-3.535-.297,1.054-.768,2.097-.839,3.166-.06,.909,.342,1.848,.539,2.774,.424-.876,.847-1.753,1.162-2.405Zm-5.17-186.875c-.55-.411-.755-.692-.952-.687-.57,.014-1.137,.143-1.705,.227,.194,.223,.375,.619,.586,.636,.548,.044,1.11-.079,2.072-.176Z" fill="#171313"/>
  <path d="M977.4,437.345c2.624,.51,5.796-.577,7.431,2.64,.346,.68,.709,1.491,.656,2.212-.49,6.594-8.479,11.849-14.764,9.773-4.68-1.546-8.445-6.997-7.658-11.861,.625-3.857,.629-7.9,3.109-11.369,3.256-4.555,10.603-5.424,14.254-1.165,.38,.443,.878,.949,.933,1.468,.088,.819,.132,1.98-.341,2.418-.416,.384-1.843,.294-2.349-.14-2.482-2.127-5.32-3.312-8.235-1.702-3.137,1.732-3.777,5.07-3.996,8.501-.231,3.619,.094,6.813,3.059,9.479,1.951,1.753,3.908,2.56,6.2,1.421,1.917-.953,3.853-2.15,5.298-3.691,1.622-1.73,.675-3.411-1.704-3.557-1.972-.121-3.962-.102-5.907-.394-.689-.103-1.802-.971-1.777-1.437,.044-.789,.698-2.011,1.348-2.205,1.394-.416,2.95-.293,4.443-.391Z" fill="#171313"/>
  <path d="M.027,445.145c0-3.388-.091-6.78,.061-10.162,.04-.894,.827-1.754,1.271-2.63,.525,.839,1.388,1.636,1.501,2.527,.211,1.661-.108,3.381-.02,5.068,.043,.822,.504,1.623,.776,2.433,.759-.333,1.709-.481,2.244-1.031,2.218-2.283,4.266-4.731,6.48-7.019,.574-.593,1.52-.827,2.294-1.227-.101,1.1,.191,2.502-.379,3.244-1.623,2.113-3.594,3.959-5.433,5.905-.34,.36-.742,.667-1.046,1.053-2.13,2.707-2.069,2.622,.845,4.386,3.295,1.995,6.533,4.098,9.668,6.332,.658,.469,.761,1.714,1.12,2.601-1.001-.131-2.179,.034-2.972-.442-3.642-2.186-7.108-4.667-10.776-6.805-2.012-1.173-2.771-.569-2.696,1.863,.055,1.789,.278,3.578,.53,5.352,.167,1.17,.341,2.483-1.218,2.38-.64-.042-1.669-1.382-1.705-2.169-.177-3.88-.081-7.771-.081-11.659-.155,0-.311,0-.466,0Z" fill="#171313"/>
  <path d="M668.709,49.083c.147,4.754-.193,5.29-4.695,5.728-2.048,.2-2.846,1.16-2.858,3.032-.014,2.191,.007,4.382,.035,6.572,.008,.596,.251,1.231,.109,1.777-.203,.781-.659,1.495-1.007,2.238-.467-.652-1.209-1.253-1.341-1.966-.251-1.356-.168-2.776-.196-4.17-.028-1.395,.129-2.814-.086-4.177-.151-.958-.791-1.839-1.213-2.755-.57,.611-1.225,1.165-1.692,1.847-.782,1.143-1.358,2.434-2.196,3.53-.397,.519-1.197,.732-1.814,1.083-.182-.771-.744-1.723-.477-2.279,.932-1.94,2.082-3.787,3.273-5.588,2.51-3.799,5.034-7.593,7.676-11.302,2.029-2.849,2.737-2.858,4.493,.112,1.109,1.876,1.739,4.033,2.585,6.064-.199,.085-.397,.17-.596,.255Zm-1.937-.168c-.692-1.142-1.131-2.815-2.138-3.293-1.287-.61-4.151,2.832-4.114,4.676,.042,2.094,1.632,2.23,3.145,2.291,2.404,.098,2.659-1.554,3.107-3.674Z" fill="#171313"/>
  <path d="M661.411,425.65c0-1.792-.084-3.591,.049-5.373,.042-.563,.667-1.083,1.026-1.623,.471,.549,1.268,1.052,1.352,1.654,.258,1.866,.341,3.771,.315,5.658-.05,3.784-.144,7.572-.386,11.348-.062,.974-.742,1.909-1.139,2.862-.821-.607-1.86-1.058-2.424-1.848-2.289-3.208-4.413-6.532-6.65-9.778-.296-.429-.961-.964-1.334-.884-.433,.093-.968,.771-1.047,1.262-.251,1.568-.317,3.167-.445,4.754-.064,.794,.081,1.671-.213,2.365-.342,.808-1.062,1.456-1.617,2.173-.289-.821-.861-1.657-.82-2.461,.186-3.577,.472-7.153,.896-10.709,.112-.936,.829-2.525,1.307-2.54,.995-.031,2.36,.527,2.962,1.311,1.917,2.497,3.531,5.226,5.32,7.824,.355,.515,.969,.853,1.463,1.272,.418-.631,1.134-1.233,1.197-1.897,.169-1.776,.057-3.578,.057-5.37,.042,0,.085,0,.127,0Z" fill="#171313"/>
  <path d="M292.841,134.77c3.282,.189,6.564,.374,9.845,.572,.496,.03,1.013,.049,1.477,.204,1.633,.548,4.356,.72,3.904,2.801-.482,2.219-2.783,.569-4.336,.53-1.054-.027-2.385,.192-3.14,.833-3.52,2.987-3.986,7.869-1.47,12.154,.379,.646,.331,1.542,.481,2.323-.679-.411-1.6-.662-1.998-1.26-2.402-3.611-4.692-7.297-7.002-10.968-.738-1.172-1.484-2.346-2.123-3.572-1.35-2.588-.647-3.705,2.272-3.694,.697,.003,1.393,.067,2.09,.103,0-.009,0-.018,.001-.026Zm4.268,4.94c-1.28-.984-2.01-1.929-2.882-2.086-.639-.115-1.464,.806-2.206,1.266,.755,1.196,1.51,2.392,2.265,3.588,.758-.743,1.517-1.487,2.823-2.768Z" fill="#171313"/>
  <path d="M581.136,15.211c0,1.493,.094,2.996-.048,4.475-.054,.557-.654,1.062-1.005,1.591-.415-.463-1.156-.902-1.192-1.393-.312-4.24-.468-8.491-.75-12.734-.044-.665-.492-1.303-.754-1.954-.349,.649-1.115,1.414-.973,1.928,.522,1.883-.698,2.169-1.911,2.203-3.192,.089-4.682,2.196-5.951,4.658-.227,.44-.378,1.021-.745,1.263-.522,.343-1.212,.433-1.83,.63-.037-.549-.315-1.257-.073-1.622,1.63-2.468,3.296-4.92,5.097-7.265,1.563-2.035,3.309-3.931,4.996-5.869,1.344-1.543,2.557-1.529,3.458,.259,.608,1.208,.949,2.631,1.068,3.988,.287,3.269,.374,6.556,.541,9.835,.024,.002,.047,.004,.071,.006Z" fill="#171313"/>
  <path d="M731.85,130.069c-3.174-.173-6.356-.26-9.519-.552-1.977-.182-3.412,.349-4.611,1.979-1.22,1.659-2.632,3.185-4.054,4.681-.448,.472-1.2,.655-1.813,.971,.013-.79-.291-1.816,.093-2.331,1.717-2.303,3.741-4.38,5.422-6.706,.748-1.036,1.187-2.436,1.351-3.724,.402-3.149,.452-6.345,.894-9.487,.115-.82,1.149-1.51,1.761-2.26,.377,.888,1.126,1.804,1.062,2.659-.206,2.753-.964,5.478-1.033,8.225-.073,2.924,.828,3.596,3.814,3.732,2.285,.104,4.585,.032,6.856,.259,.71,.071,1.348,.861,2.019,1.322-.656,.591-1.311,1.182-1.967,1.773-.092-.18-.184-.361-.275-.541Z" fill="#171313"/>
  <path d="M392.555,31.523c-1.474,.711-2.738,1.455-4.098,1.928-.875,.304-1.889,.21-2.841,.294,.431-.678,.707-1.582,1.318-1.997,3.094-2.105,6.253-4.12,9.451-6.064,.461-.28,1.259-.008,1.901,.008-.121,.608-.058,1.354-.394,1.8-1.291,1.708-1.465,3.224-.213,5.15,1.164,1.79,1.984,3.856,2.632,5.902,.267,.842-.312,1.951-.506,2.939-.565-.676-1.287-1.274-1.664-2.042-.997-2.032-1.7-4.221-2.824-6.173-.449-.78-1.694-1.102-2.761-1.744Z" fill="#171313"/>
  <path d="M476.083,8.259c.37,3.306-1.644,5.722-3.386,8.054-1.673,2.239-7.396,1.005-8.872-1.673-.855-1.551-1.768-3.087-2.417-4.725-.263-.664,.108-1.579,.19-2.38,.566,.496,1.271,.9,1.67,1.505,1.026,1.557,1.669,3.449,2.948,4.724,.811,.808,2.891,1.415,3.688,.934,1.47-.888,2.617-2.529,3.496-4.084,.471-.834-.029-2.163,.158-3.226,.135-.764,.68-1.457,1.042-2.181,.494,.719,1.021,1.419,1.462,2.169,.13,.222,.02,.585,.02,.883Z" fill="#171313"/>
  <path d="M343.099,83.098c-.302,3.295-.105,6.009-2.542,7.727-.466,.329-1.155,.343-1.741,.503,.05-.535,.012-1.096,.166-1.6,.421-1.383,1.132-2.714,1.327-4.12,.155-1.12-.28-2.322-.453-3.488-1.38,.292-2.786,.498-4.131,.906-.966,.293-1.823,.942-2.788,1.247-.277,.087-.835-.414-1.102-.768-.088-.117,.25-.754,.532-.92,1.846-1.091,3.618-2.522,5.625-3.072,3.16-.866,5.224,1.13,5.108,3.585Z" fill="#171313"/>
  <path d="M382.767,435.278c.134,2.512,.354,4.896,.335,7.278-.006,.754-.652,1.502-1.005,2.253-.54-.706-1.497-1.381-1.551-2.122-.332-4.557-.465-9.129-.649-13.696-.016-.392-.05-.884,.153-1.165,.47-.651,1.081-1.201,1.634-1.792,.361,.636,1.001,1.258,1.033,1.91,.123,2.481,.049,4.972,.049,7.334Z" fill="#171313"/>
  <path d="M325.39,81.278c.236-3.558,2.67-5.384,4.45-7.541,.229-.277,.894-.196,1.357-.281-.06,.442-.008,.941-.203,1.313-.408,.777-1.044,1.442-1.406,2.235-.585,1.283-1.065,2.618-1.509,3.958-.336,1.013-.549,2.068-.816,3.104-.624-.929-1.249-1.858-1.873-2.788Z" fill="#171313"/>
  <path d="M399.77,423.881c-.082,.031-.174,.098-.245,.081-.064-.016-.106-.124-.157-.191,.128-.048,.257-.097,.385-.145,.005,.085,.011,.17,.016,.255Z" fill="#171313"/>
  <path d="M467.167,197.47c-1.149-1.996-2.263-4.012-3.455-5.981-1.462-2.417-2.988-4.795-4.486-7.189" fill="none" stroke="#171313" stroke-linecap="round" stroke-linejoin="round" stroke-width="2"/>
  <path d="M538.041,93.451c2.098,.349,4.196,.698,6.293,1.048" fill="none" stroke="#171313" stroke-linecap="round" stroke-linejoin="round" stroke-width="2"/>
  <path d="M548.231,95.247c1.498,.349,2.997,.698,4.495,1.048" fill="none" stroke="#171313" stroke-linecap="round" stroke-linejoin="round" stroke-width="2"/>
  <path d="M549.729,202.559c-2.697,4.989-5.394,9.978-8.091,14.967" fill="none" stroke="#171313" stroke-linecap="round" stroke-linejoin="round" stroke-width="2"/>
  <path d="M565.312,310.918c3.402,1.764,3.007,5.695,4.782,8.39,.29,.44,.412,.989,.612,1.488" fill="none" stroke="#171313" stroke-linecap="round" stroke-linejoin="round" stroke-width="2"/>
  <path d="M588.238,377.67c-.725,4.628-1.575,9.215-4.345,13.171" fill="none" stroke="#171313" stroke-linecap="round" stroke-linejoin="round" stroke-width="2"/>
  <path d="M594.981,399.072c-.499-.15-.999-.299-1.498-.449" fill="none" stroke="#171313" stroke-linecap="round" stroke-linejoin="round" stroke-width="2"/>
  <path d="M424.313,146.583c.15,.499,.3,.998,.45,1.497" fill="none" stroke="#171313" stroke-linecap="round" stroke-linejoin="round" stroke-width="2"/>
  <path d="M599.775,350.131c.799,3.093,1.598,6.186,2.397,9.279" fill="none" stroke="#171313" stroke-linecap="round" stroke-linejoin="round" stroke-width="2"/>
  <path d="M432.405,368.091c-.15,.499-.3,.998-.45,1.497" fill="none" stroke="#171313" stroke-linecap="round" stroke-linejoin="round" stroke-width="2"/>
  <path d="M427.61,392.636l-.45,2.694" fill="none" stroke="#171313" stroke-linecap="round" stroke-linejoin="round" stroke-width="2"/>
  <path d="M969.88,427.658c-3.416,2.285-4.661,5.65-4.806,9.578-.022,.602-.189,1.198-.289,1.796" fill="none" stroke="#171313" stroke-linecap="round" stroke-linejoin="round" stroke-width="2"/>
  <path d="M964.935,444.122c2.048,2.195,4,4.494,6.211,6.511,.545,.497,1.946,.189,2.926,.055,5.9-.808,7.789-2.486,9.317-8.056,.11-.401,.575-.705,.874-1.054" fill="none" stroke="#171313" stroke-linecap="round" stroke-linejoin="round" stroke-width="2"/>
  <path d="M603.222,104.676c-.35,1.596-.686,3.196-1.053,4.788-.277,1.202-.523,2.42-.914,3.586-.411,1.227-1.178,2.359-1.444,3.606-1.083,5.071-2.033,10.17-3.032,15.259" fill="none" stroke="#171313" stroke-linecap="round" stroke-linejoin="round" stroke-width="2"/>
  <path d="M584.791,100.635c-1.099,.349-2.198,.698-3.296,1.048" fill="none" stroke="#171313" stroke-linecap="round" stroke-linejoin="round" stroke-width="2"/>
  <path d="M474.809,4.998c-.177,3.348,.47,6.815-2.357,9.62-1.898,1.884-5.731,2.132-7.199-.063-1.262-1.887-2.231-3.969-3.33-5.964" fill="none" stroke="#171313" stroke-linecap="round" stroke-linejoin="round" stroke-width="2"/>
  <path d="M631.841,146.883c-1.399,.499-2.797,.998-4.196,1.497" fill="none" stroke="#171313" stroke-linecap="round" stroke-linejoin="round" stroke-width="2"/>
  <path d="M596.179,132.215c-1.113,1.842-1.54,3.812-1.569,5.986-.017,1.302-.792,2.58-1.113,3.896-.459,1.881-.814,3.788-1.214,5.684" fill="none" stroke="#171313" stroke-linecap="round" stroke-linejoin="round" stroke-width="2"/>
  <path d="M381.609,425.862c.1,6.386,.2,12.772,.3,19.157" fill="none" stroke="#171313" stroke-linecap="round" stroke-linejoin="round" stroke-width="2"/>
  <path d="M664.806,43.313c2.287,1.903,3.744,6.108,2.601,8.637-.394,.871-1.841,1.557-2.915,1.764-1.541,.296-3.182,.076-4.78,.076" fill="none" stroke="#171313" stroke-linecap="round" stroke-linejoin="round" stroke-width="2"/>
  <path d="M368.423,203.607c-3.016,.309-4.921,2.377-6.893,4.34" fill="none" stroke="#171313" stroke-linecap="round" stroke-linejoin="round" stroke-width="2"/>
  <path d="M4.312,446.516c3.596,2.395,7.189,4.795,10.791,7.181,1.085,.719,2.196,1.4,3.294,2.098" fill="none" stroke="#171313" stroke-linecap="round" stroke-linejoin="round" stroke-width="2"/>
  <path d="M664.806,40.32c-.014,1.399-.105,2.498-1.404,3.694-1.959,1.804-3.291,4.288-4.889,6.483" fill="none" stroke="#171313" stroke-linecap="round" stroke-linejoin="round" stroke-width="2"/>
  <path d="M660.011,55.286c.1,3.492,.219,6.984,.283,10.477,.013,.696-.183,1.397-.283,2.095" fill="none" stroke="#171313" stroke-linecap="round" stroke-linejoin="round" stroke-width="2"/>
  <path d="M13.902,434.244c-3.097,3.392-6.193,6.785-9.29,10.177" fill="none" stroke="#171313" stroke-linecap="round" stroke-linejoin="round" stroke-width="2"/>
  <path d="M2.065,447.714c-.05,3.093-.152,6.188-.071,9.277,.008,.315,1.119,.601,1.719,.9" fill="none" stroke="#171313" stroke-linecap="round" stroke-linejoin="round" stroke-width="2"/>
  <path d="M712.455,136.107c2.297-2.694,4.572-5.408,6.924-8.054,.27-.304,.978-.348,1.466-.308,4.498,.367,8.992,.779,13.487,1.179" fill="none" stroke="#171313" stroke-linecap="round" stroke-linejoin="round" stroke-width="2"/>
  <path d="M661.21,435.441c-3.3-1.198-4.43-4.376-6.287-6.889-.048-.065,.038-.238-.012-.289-1.091-1.106-2.191-2.201-3.29-3.299-.599,1.297-1.518,2.544-1.734,3.902-.501,3.161-.664,6.376-.963,9.569" fill="none" stroke="#171313" stroke-linecap="round" stroke-linejoin="round" stroke-width="2"/>
  <path d="M1.316,433.046c.1,2.894,.066,5.801,.362,8.674,.127,1.236,.937,2.401,1.436,3.598" fill="none" stroke="#171313" stroke-linecap="round" stroke-linejoin="round" stroke-width="2"/>
  <path d="M577.899,2.603c.499,.898,1.374,1.771,1.436,2.698,.332,4.98,.462,9.974,.662,14.963" fill="none" stroke="#171313" stroke-linecap="round" stroke-linejoin="round" stroke-width="2"/>
  <path d="M395.394,31.339c1.641,3.293,3.978,6.299,4.196,10.177" fill="none" stroke="#171313" stroke-linecap="round" stroke-linejoin="round" stroke-width="2"/>
  <path d="M331.263,73.546c-2.749,2.722-5.367,5.496-3.896,9.878h4.196c.999-.399,2.238-.553,2.947-1.248,1.52-1.489,3.289-1.654,5.139-1.407,1.403,.188,2.818,.941,2.348,2.64-.645,2.333,.231,5.199-2.315,6.94-.301,.206-.227,.958-.327,1.457" fill="none" stroke="#171313" stroke-linecap="round" stroke-linejoin="round" stroke-width="2"/>
  <path d="M721.295,113.656c-.35,4.49-.699,8.98-1.049,13.47" fill="none" stroke="#171313" stroke-linecap="round" stroke-linejoin="round" stroke-width="2"/>
  <path d="M307.588,138.501c-2.238-.32-4.027-2.614-6.593-1.497" fill="none" stroke="#171313" stroke-linecap="round" stroke-linejoin="round" stroke-width="2"/>
  <path d="M297.099,136.705c-1.798-.15-3.594-.39-5.395-.424-1.802-.034-1.855,1.543-1.421,2.484,.837,1.817,2.099,3.443,3.228,5.119,.758,1.125,1.757,2.117,2.355,3.315,1.216,2.436,2.233,4.972,3.331,7.466" fill="none" stroke="#171313" stroke-linecap="round" stroke-linejoin="round" stroke-width="2"/>
  <path d="M662.408,419.277c.423,4.8,.767,9.599-.3,14.368" fill="none" stroke="#171313" stroke-linecap="round" stroke-linejoin="round" stroke-width="2"/>
  <path d="M576.7,8.291c-1.398-.2-3.38-1.076-4.085-.47-2.013,1.73-3.509,4.06-5.203,6.159-.313,.388-.601,.797-.901,1.196" fill="none" stroke="#171313" stroke-linecap="round" stroke-linejoin="round" stroke-width="2"/>
  <path d="M657.913,52.892c-3.075,1.996-4.541,5.083-5.694,8.381" fill="none" stroke="#171313" stroke-linecap="round" stroke-linejoin="round" stroke-width="2"/>
  <path d="M392.697,30.142c-2.064,.682-4.137,1.348-5.694,2.993" fill="none" stroke="#171313" stroke-linecap="round" stroke-linejoin="round" stroke-width="2"/>
  <path d="M298.897,137.903c-1.199,2.295-2.397,4.59-3.596,6.885" fill="none" stroke="#171313" stroke-linecap="round" stroke-linejoin="round" stroke-width="2"/>
  <path d="M577.599,2.005c-1.299,1.696-2.597,3.392-3.896,5.089" fill="none" stroke="#171313" stroke-linecap="round" stroke-linejoin="round" stroke-width="2"/>
  <line x1="572.615" y1="7.821" x2="579.551" y2="9.086" fill="none" stroke="#171313" stroke-linecap="round" stroke-linejoin="round" stroke-width="2"/>
  <polyline points="463.197 290.176 469.875 273.468 472.272 263.673" fill="none" stroke="#e6e4db" stroke-linecap="round" stroke-linejoin="round" stroke-width="2"/>
</svg>