<?xml version="1.0" encoding="UTF-8"?>
<svg id="a" data-name="Layer 1" xmlns="http://www.w3.org/2000/svg" width="2.572in" height="8.272in" viewBox="0 0 185.21 595.618">
  <path d="M116.988,506.624c1.92,2.469,3.729,2.306,5.575,.61,3.947-3.627,7.906-7.241,11.801-10.924,.528-.499,.595-1.472,1.091-2.032,.436-.492,1.175-.712,1.781-1.053,.14,.769,.671,1.849,.353,2.253-1.346,1.711-2.888,3.279-4.463,4.79-2.653,2.545-5.33,5.07-8.098,7.486-3.51,3.065-7.466,3.487-11.95,2.313-2.615-.685-5.513-.187-8.234-.573-3.16-.449-6.124-1.097-9.35,.317-2.232,.978-4.83,.108-6.436-1.957-1.426-1.833-2.717-1.354-4.391-.552-1.199,.574-2.62,1.046-3.916,.988-6.294-.284-12.585-.688-18.865-1.198-4.061-.33-7.355,.758-9.943,3.751,.368,.174,.685,.451,1.005,.456,16.122,.241,32.245,.402,48.365,.714,4.44,.086,8.902,.393,13.293,1.028,2.465,.357,5.301,1.009,7.095,2.556,3.562,3.073,7.865,6.137,6.798,11.971-.29,1.583-.988,3.091-1.498,4.634,.229,.177,.458,.354,.687,.531,2.886-2.111,5.919-4.047,8.628-6.367,6.31-5.404,12.569-10.878,18.645-16.545,4.218-3.935,6.97-8.89,7.934-14.657,.759-4.541-3.309-10.704-9.389-10.323-2.867,.179-5.757,.086-8.632-.005-2.027-.064-3.079,.458-3.156,2.819-.064,1.986-.406,4.249-3.323,5.226,2.079-5.789,.726-14.514-2.851-19.282-.438,1.142-.816,2.129-1.194,3.115-.182-.025-.363-.051-.545-.077,0-1.008-.212-2.073,.035-3.016,1.392-5.324,.831-10.591,.441-16.016-.692-9.636-.554-19.348-.384-29.022,.05-2.845-.549-3.684-3.317-3.661-13.275,.108-26.551,.091-39.827,.069-8.529-.014-17.058-.185-25.587-.148-4.583,.02-9.166,.44-13.747,.396-.703-.007-2.099-1.669-1.98-2.354,1.578-9.006,3.412-17.966,5.086-26.955,.62-3.33,1.032-6.702,1.466-10.065,1.174-9.085,2.172-18.196,3.505-27.257,1.042-7.079,2.481-14.099,3.743-21.145,.246-1.374,.546-2.74,.726-4.123,1.637-12.624,3.229-25.255,4.885-37.877,.906-6.903,1.821-13.807,2.905-20.682,.651-4.127,1.653-8.198,2.463-12.301,.289-1.462,.465-2.945,.712-4.416,.804-4.793,1.739-9.568,2.394-14.382,.736-5.401,1.153-10.846,1.889-16.247,.113-.829,1.139-2.105,1.843-2.177,2.547-.259,5.137-.085,7.711-.089,9.518-.018,19.036-.086,28.553-.042,4.069,.019,3.835,.155,4.405,4.293,.815,5.924,1.965,11.804,3.058,17.687,1.784,9.601,3.536,19.21,5.487,28.778,2.209,10.832,4.657,21.615,6.933,32.433,1.292,6.14,2.445,12.31,3.664,18.466,1.258,6.352,2.534,12.7,3.773,19.056,.781,4.006,1.502,8.024,2.26,12.035,1.571,8.307,3.082,16.626,4.742,24.915,2.129,10.629,4.358,21.239,6.595,31.846,.432,2.046,1.125,4.035,1.649,6.063,.754,2.921-.812,4.857-3.829,4.767-5.531-.165-11.062-.334-16.592-.516-3.429-.113-4.465,.581-4.478,3.981-.034,8.782-.142,17.582,.367,26.34,.333,5.723,1.641,11.394,2.628,17.067,.233,1.34,.962,2.588,1.41,3.896,2.219,6.477,2.216,6.365,8.933,6.531,3.244,.08,6.742,.013,9.659,1.186,7.241,2.91,8.029,8.688,5.779,15.964-1.772,5.731-5.362,10.43-10.213,13.982-1.894,1.387-1.857,2.462-.317,4.036,5.749,5.877,4.229,18.099,.501,21.911-.315,.322-.676,.598-1.531,.591,.193-.535,.325-1.103,.588-1.6,3.469-6.559,4.035-12.968-.609-19.316-1.566-2.141-2.726-2.242-4.76-.486-7.425,6.412-14.996,12.651-22.541,18.92-.975,.81-2.12,1.412-3.41,2.257,7.519,6.837,4.465,14.519,1.786,22.488,9.57-6.541,18.022-14.282,26.26-20.81,1.878,.949,3.122,1.899,4.509,2.218,4.011,.921,9.664,6.028,10.005,10.106,.173,2.067-.542,4.732-1.836,6.312-6.25,7.628-13.432,14.283-21.719,19.702-2.807,1.835-5.302,4.149-8.007,6.151-.835,.618-1.895,.93-2.852,1.382-.175-.293-.35-.586-.524-.879,.598-.53,1.179-1.082,1.797-1.588,7.976-6.535,15.999-13.014,23.908-19.631,1.886-1.578,3.546-3.495,5.049-5.459,2.866-3.743,2.82-5.566,.2-9.422-3.908-5.752-9.955-6.739-15.306-2.358-5.911,4.84-11.7,9.832-17.598,14.687-1.908,1.571-4.027,2.88-5.985,4.394-.726,.561-1.266,1.366-1.854,2.019,1.828,1.259,3.441,2.19,4.846,3.371,3.652,3.071,5.03,6.812,3.323,11.558-.433,1.204-.065,2.699-.065,4.56-4.314,6.053-10.934,6.748-18.352,5.719-3.422-.475-6.992,.128-10.494,.251-.591,.021-1.209,.228-1.767,.114-11.64-2.375-23.411-.992-35.115-1.09-6.167-.051-10.958-2.279-14.025-7.288-2.173-3.548-2.077-7.876-.272-11.812,1.432-3.124,3.407-5.913,6.716-7.292,2.168-.903,1.582-1.994,.646-3.463-1.381-2.17-2.756-4.376-3.825-6.71-2.008-4.383-1.991-9.083-.322-13.422,1.01-2.626,3.392-4.718,5.304-7.243-1.126-.72-2.296-1.409-3.405-2.186-5.717-4.006-7.822-9.613-6.294-16.709,.991-4.599,2.806-8.668,6.806-11.518,.702-.5,1.388-1.951,1.161-2.669-.691-2.189,.461-3.328,1.76-4.661,1.676-1.721,3.109-3.684,4.82-5.364,.444-.437,1.533-.209,2.325-.287-.008,.71,.272,1.672-.08,2.081-.889,1.033-2.063,1.818-3.594,3.095,1.501,.535,2.604,.928,3.822,1.362,.489,1.223,.906,2.67,1.634,3.937,.441,.766,1.324,1.318,2.112,1.791,.113,.068,1.244-.983,1.152-1.287-.238-.791-.866-1.476-1.398-2.156-.223-.285-.598-.448-1.247-.912,.865-.601,1.504-1.044,2.24-1.555,.864,1.577,1.392,2.993,2.309,4.076,.774,.914,2,1.442,3.025,2.141,.493-.945,1.07-1.858,1.445-2.849,.195-.515,.034-1.166,.034-1.414-1.129-.703-2.011-1.253-2.894-1.803,.69-.613,1.38-1.226,2.606-2.314,.767,2.348,1.206,4.211,1.992,5.912,.48,1.039,1.323,2.273,2.297,2.65,3.288,1.271,7.611-1.084,9.573-4.12,2.179-3.372,5.088-6.256,7.425-9.536,2.002-2.81,3.714-5.84,5.409-8.855,.667-1.187,.746-2.713,1.431-3.885,2.432-4.165,1.321-8.258,.666-12.689-1.737-11.75-2.838-23.605-1.035-35.502,.273-1.804,.414-3.629,.616-5.444,.33,.01,.66,.02,.989,.03,.174,13.11,.349,26.22,.523,39.33,.395-.003,.791-.006,1.186-.009,3.425-12.801,1.09-25.842,.83-38.796,.277-.05,.553-.1,.83-.15,.435,1.733,1.123,3.446,1.261,5.203,.678,8.65,1.719,17.319,1.605,25.968-.07,5.357-1.63,10.792-3.151,16.005-1.497,5.128-4.074,9.933-5.636,15.048-1.074,3.516-4.58,4.55-6.166,7.416-.726,1.313-1.841,2.408-2.865,3.71,.592,.216,.766,.322,.948,.338,1.327,.12,2.689,.097,3.96,.428,.282,.074,.248,1.377,.36,2.114-1.49,.215-2.977,.559-4.47,.588-.686,.013-1.384-.591-2.136-.944-1.677,2.107-.973,3.756,.81,5.164,2.388,1.885,4.472,1.201,7.728-2.545,.808,.703,1.622,2.009,2.423,2,2.747-.03,5.3,.79,7.942,1.182,.644,.095,1.445-.887,2.297-1.456,1.586,.633,3.124,4.139,5.098-.103Zm-3.135,13.297c-.565,.454-.767,.756-1.003,.786-3.728,.474-5.458,2.83-5.993,6.347-.583,3.834,.572,7.523,3.602,9.386,7.354,4.522,12.637-.001,15.323-7.765,.545-1.576,.75-3.957-.056-5.2-2.989-4.608-6.497-8.784-12.707-9.037-5.238-.214-10.465-.777-15.704-.906-13.377-.329-26.757-.502-40.136-.738-2.585-.046-4.917,.55-6.658,2.651-2.371,2.861-2.935,9.627-1.093,13.114,1.977,3.743,6.219,5.818,10.804,5.353,5.359-.543,6.572-1.73,7.531-7.081,.643-3.591-1.51-5.962-5.122-6.065-.888-.025-1.77-.229-2.991-.397,1.544-2.655,3.54-2.798,5.393-1.914,1.74,.829,4.184,2.032,4.55,3.513,.719,2.91,.212,6.127,.212,9.382,.406,.112,.958,.377,1.521,.402,10.097,.435,20.196,.821,30.293,1.267,2.467,.109,3.109-1.055,2.802-3.326-.529-3.914,1.06-7.029,4.016-9.439,1.519-1.238,3.258-1.768,5.417-.331Zm-5.545,54.358c-14.358-.953-28.568-1.896-42.94-2.85,.623,1.788,1.488,3.575,1.85,5.46,.706,3.686-.846,6.979-3.799,8.751-4.084,2.452-10.589-.38-9.475-4.127,.194,0,.443-.078,.571,.014,.477,.344,.947,.712,1.361,1.13,2.974,2.994,6.741,2.479,8.776-1.215,1.481-2.689,.729-6.536-1.773-9.067-2.081-2.105-5.985-2.712-8.51-1.322-4.484,2.467-6.69,6.856-5.986,12.265,.173,1.331,.508,2.87,1.322,3.846,3.129,3.755,7.58,4.982,12.153,5.118,13.47,.401,26.948,.588,40.424,.708,4.448,.039,8.979,.064,13.329-.716,4.491-.804,8.419-3.39,10.019-7.927,1.806-5.121-.513-9.355-5.766-11.881-3.42-1.645-7.138-.216-10.194,3.897-1.64,2.207-1.636,4.862-.102,6.642,1.103,1.28,3.556,1.487,5.464,1.914,.873,.196,1.884-.23,3.5-.474-3.287,3.364-5.754,3.701-8.948,1.757-3.034-1.846-3.435-5.594-1.276-11.924Zm-9.437-23.255c-2.919-.26-5.646-.517-8.375-.742-1.825-.15-3.209,.43-3.285,2.514-.188,5.181-.264,10.366-.465,15.547-.07,1.804,.78,2.591,2.423,2.674,2.672,.136,5.356,.408,8.017,.269,3.942-.207,8.092-.035,11.757-1.244,9.271-3.057,14.321-9.799,14.953-19.755,.302-4.759-2.694-8.364-7.408-9.465-2.932-.684-5.661-2.221-8.513-3.29-2.541-.952-5.067-2.161-7.705-2.575-3.006-.472-6.135-.08-9.198-.271-2.211-.138-3.158,.864-3.2,2.903-.037,1.791,.14,3.586,.115,5.377-.068,4.985-.09,4.982,4.697,5.791,2.491,.421,4.973,1.12,7.473,1.19,1.795,.05,3.598-.986,5.423-1.094,3.928-.233,3.893-.117,4.048-3.987,.044-1.092,.407-2.17,.624-3.255,.351,.059,.702,.118,1.053,.177,.048,.941,.144,1.883,.136,2.824-.034,4.43-.044,4.401,4.476,4.356,1.373-.014,2.748,.183,4.122,.284-.362,.924-.737,1.379-1.134,1.397-4.726,.22-9.458,.538-14.182,.467-1.839-.028-3.114,.477-3.242,2.116-.159,2.043,1.629,1.792,3.021,1.79,3.961-.005,7.922-.025,11.881,.044,.84,.015,1.675,.381,2.512,.586-.036,.304-.073,.609-.109,.913-1.383,0-2.786,.147-4.146-.032-2.451-.322-3.525,.63-3.461,3.107,.032,1.244-.161,2.494-.253,3.741-.314-.002-.627-.003-.941-.005-.157-1.415-.349-2.826-.461-4.244-.163-2.065-1.239-2.728-3.211-2.398-6.257,1.048-6.908,.539-7.442-5.712Zm-19.175-1.271c-.037-.278-.074-.555-.111-.833,1.129-.159,2.317-.619,3.375-.411,1.831,.359,2.595-.059,2.584-2.005-.018-2.99,0-5.989,.205-8.97,.155-2.272-.77-3.128-2.915-2.931-6.67,.613-13.464-1.366-20.079,1.811-2.467,1.185-5.391,1.476-6.861,4.072-1.335,2.356-2.514,4.87-3.304,7.457-1.856,6.077,2.03,15.114,7.606,17.827,6.879,3.347,14.365,4.147,21.838,4.904,1.903,.193,2.572-.725,2.594-2.662,.044-3.861,.225-7.73,.57-11.576,.476-5.306,.411-5.491-4.801-6.25-.249-.036-.468-.283-.701-.432Zm41.24-220.895c.295-.015,.59-.029,.884-.044,.114,.466,.27,.927,.335,1.4,1.092,7.994-.374,16.138,1.757,24.129,.928,3.48,.411,7.343,.612,11.029,.894,16.427,1.82,32.852,2.707,49.279,.108,1.991-.048,4,.126,5.982,.054,.614,.795,1.168,1.222,1.749,.472-.52,1.326-1.019,1.355-1.564,.2-3.671,.394-7.357,.264-11.027-.151-4.261-.829-8.504-.941-12.764-.417-15.887-1.13-31.736-3.31-47.508-.91-6.583-1.053-13.275-1.503-19.921-.64-9.45-1.237-18.903-1.864-28.353-.383-5.776-1.428-11.445-1.401-17.322,.043-9.335-1.066-18.674-1.651-28.013-.197-3.144-.284-6.295-.421-9.442-.245-.007-.49-.015-.735-.022-.125,2.044-.423,4.094-.345,6.13,.35,9.131,.721,18.263,1.253,27.384,.388,6.643,1.2,13.262,1.524,19.906,.272,5.575,.116,11.172,.139,16.76,.012,2.87,.002,5.74,.002,8.609-.336,.007-.672,.014-1.009,.022-1.373-28.061-2.746-56.123-4.119-84.184-.632,2.72-.961,5.5-1.09,8.289-.37,7.962-.674,15.926-.967,23.891-.054,1.479-.213,3.046,1.834,3.572,.381,.098,.748,1.094,.758,1.682,.141,8.17,.113,16.344,.341,24.511,.255,9.154,.721,18.301,1.114,27.451,.03,.69,.199,1.376,.324,2.06,.474,2.59,1.061,5.165,1.402,7.773,.297,2.272,.319,4.581,.463,6.874,.314-.013,.628-.027,.942-.04v-18.277Zm-41.503-51.879c-.362-.004-.724-.009-1.086-.014-.076,.781-.2,1.561-.219,2.343-.219,8.882-.375,17.766-.645,26.646-.23,7.546-.568,15.088-.916,22.629-.037,.803-.463,1.587-.708,2.38-.26-.059-.52-.117-.78-.176-.24-3.285-.481-6.57-.721-9.854-1.925,33.9-3.562,67.718-2.278,101.615,2.415-1.552,1.816-3.841,1.855-5.87,.194-9.865,.311-19.731,.426-29.597,.183-15.565,.347-31.13,.51-46.695,.026-2.522,.004-5.045,.004-7.568,.387-.046,.774-.093,1.16-.139,.227,.803,.662,1.609,.651,2.409-.128,8.877-.417,17.752-.485,26.63-.12,15.774-.125,31.55-.151,47.325-.002,1.007,.239,2.015,.378,3.116,2.466-.317,2.989-1.668,2.859-3.446-.217-2.976-.647-5.945-.704-8.922-.244-12.875-.588-25.754-.488-38.628,.062-7.932,1.077-15.853,1.269-23.788,.237-9.779,.065-19.568,.067-29.353,.002-10.347,0-20.695,0-31.042Zm10.827-24.91c-.437,.01-.874,.02-1.31,.029-.06,.948-.222,1.902-.165,2.843,.486,8.04,1.227,16.07,1.476,24.116,.382,12.351,.576,24.713,.577,37.07,0,8.177-.698,16.354-.695,24.53,.008,21.252,.234,42.503,.367,63.754,.033,5.289-.016,10.581,.136,15.866,.024,.84,.916,1.655,1.407,2.481,.48-.831,.971-1.654,1.428-2.498,.085-.158,.038-.393,.037-.593-.093-14.676-.1-29.353-.333-44.026-.074-4.662-1.082-9.315-1.074-13.971,.012-6.951,.799-13.903,.78-20.852-.017-6.161-.71-12.319-1.037-18.481-.051-.959,.263-1.936,.407-2.906,.33-2.232,.979-4.471,.932-6.694-.166-7.732-.818-15.459-.818-23.187,0-7.426,.735-14.849,.871-22.279,.192-10.466,.15-20.937,.153-31.406,0-1.611-.287-3.222-.442-4.833-.421,.015-.841,.03-1.262,.044v38.589c-.478,.002-.957,.004-1.435,.005v-17.602Zm32.297-6.265l-1.237-.005c-.085,1.032-.304,2.074-.232,3.095,.418,5.911,1.019,11.81,1.341,17.726,.51,9.354,.767,18.723,1.282,28.076,.674,12.247,1.324,24.5,2.295,36.725,1.073,13.507,2.742,26.968,3.7,40.482,.979,13.815,1.419,27.669,2.071,41.508,.117,2.492-.014,5.003,.255,7.474,.073,.668,1.191,1.221,1.829,1.827,.414-.668,1.109-1.306,1.184-2.01,.145-1.375-.026-2.789-.12-4.183-.866-12.932-1.738-25.864-2.621-38.795-.401-5.871-.755-11.748-1.268-17.61-.518-5.932-1.393-11.838-1.77-17.777-.422-6.644-.225-13.331-.72-19.968-.718-9.623-1.904-19.209-2.726-28.825-.815-9.538-1.437-19.093-2.12-28.643-.203-2.839-.313-5.685-.483-8.526-.211-3.525-.44-7.048-.662-10.572Zm6.165,31.646c-.378,.004-.757,.007-1.135,.011-.155,.548-.454,1.098-.445,1.642,.113,6.479-.035,12.981,.478,19.429,1.27,15.957,2.851,31.89,4.298,47.833,.144,1.588,.215,3.184,.334,4.775,.694,9.337,1.452,18.67,2.076,28.012,.889,13.321,1.656,26.65,2.562,39.969,.074,1.088,.817,2.129,1.249,3.192,.409-.077,.818-.154,1.227-.231,0-3.579,.248-7.179-.049-10.733-.752-9.015-2.002-17.992-2.586-27.015-.797-12.317-1.161-24.661-1.717-36.994-.022-.498-.118-.991-.159-1.488-.916-11.002-1.845-22.003-2.733-33.008-.289-3.575-.46-7.16-.702-10.739-.138-2.049-.246-4.104-.48-6.143-.71-6.174-1.475-12.342-2.219-18.513Zm-55.566,5.148c-.342-.028-.684-.055-1.026-.083-.177,.726-.469,1.446-.514,2.18-.536,8.647-1.136,17.292-1.511,25.947-.298,6.875-.178,13.769-.472,20.644-.717,16.724-1.53,33.445-2.382,50.163-.334,6.556-.984,13.097-1.296,19.654-.298,6.269-.415,12.551-.414,18.827,0,.865,1.138,1.73,1.749,2.594,.556-.789,1.465-1.52,1.605-2.378,.513-3.144,1.009-6.324,1.084-9.5,.395-16.84,.637-33.684,.98-50.525,.213-10.467,.421-20.935,.791-31.397,.475-13.448,1.13-26.89,1.653-40.336,.075-1.924-.156-3.859-.245-5.789Zm11.018,139.171c.401-.018,.802-.037,1.202-.055,0-10.642-.242-21.291,.063-31.925,.354-12.344-.908-24.619-.273-37.027,1.07-20.913,.491-41.912,.652-62.874,.01-1.361,.377-2.726,.645-4.075,.322-1.622,.967-3.22,1.026-4.845,.105-2.88-.227-5.774-.199-8.66,.093-9.585,.298-19.169,.389-28.754,.035-3.647-.092-7.298-.224-10.944-.02-.554-.471-1.093-.722-1.639-.847,1.818-1.177,3.55-1.208,5.287-.31,17.044,.065,34.069-1.172,51.133-1.584,21.851,.159,43.828-1.607,65.748-.876,10.876,.041,21.91,.371,32.866,.116,3.85,1.245,7.674,1.303,11.518,.108,7.163-.238,14.332-.375,21.499-.017,.914,.084,1.831,.13,2.747Zm30.634-142.549c-.379-.008-.758-.016-1.137-.024-.19,4.943-.634,9.892-.511,14.827,.19,7.655,.824,15.298,1.162,22.951,.387,8.762,.561,17.534,.997,26.294,.743,14.926,1.748,29.839,2.39,44.769,.424,9.868,.348,19.756,.642,29.631,.05,1.696,.829,3.371,1.271,5.055,.432-.062,.864-.124,1.296-.186,.129-1.173,.405-2.351,.363-3.518-.517-14.237-1.092-28.472-1.629-42.708-.304-8.059-.372-16.133-.885-24.178-.906-14.19-2.238-28.353-3.068-42.546-.53-9.053-.474-18.14-.693-27.211-.025-1.053-.129-2.104-.196-3.157Zm19.728,29.845c-.327,.015-.654,.03-.981,.045,0,2.417-.175,4.85,.031,7.249,.851,9.915,2.021,19.806,2.697,29.732,1.115,16.378,1.888,32.779,2.903,49.164,.518,8.353,1.216,16.695,1.939,25.032,.067,.775,.9,1.484,1.378,2.223,.586-.778,1.622-1.527,1.673-2.338,.135-2.175-.098-4.381-.281-6.567-1.317-15.788-2.681-31.572-3.981-47.362-.507-6.158-.859-12.328-1.332-18.489-.709-9.232-1.373-18.469-2.241-27.687-.348-3.692-1.188-7.336-1.805-11.002Zm-26.008-28.165c-.216-.047-.432-.094-.649-.141-.195,1.517-.559,3.035-.559,4.552,0,12.456-.031,24.913,.17,37.367,.068,4.202,.874,8.387,1.159,12.592,.155,2.279-.188,4.587-.113,6.876,.342,10.457,.889,20.909,1.108,31.368,.322,15.37,.409,30.745,.67,46.116,.015,.897,.696,1.782,1.067,2.673,.626-.875,1.407-1.681,1.824-2.647,.292-.678,.137-1.576,.095-2.372-.363-6.853-.787-13.703-1.114-20.558-.565-11.829-1.134-23.659-1.58-35.494-.199-5.285,.045-10.588-.184-15.871-.286-6.595-.569-13.138-1.491-19.764-1.413-10.158-.392-20.66-.401-31.015-.004-4.561,0-9.121,0-13.682Zm-9.192,141.768c.588-.019,1.175-.038,1.763-.056-.068-21.644-1.225-43.285-1.339-64.908-.114-21.568-.96-43.105-.921-64.663-2.216,43.239-.699,86.431,.497,129.628Zm7.026-46.383l.935-.002c.091-.868,.276-1.738,.259-2.605-.142-7.182-.361-14.363-.477-21.545-.091-5.584,.05-11.173-.124-16.754-.32-10.261-1.048-20.515-1.15-30.776-.177-17.869,.008-35.742-.015-53.614-.002-1.205-.476-2.409-.73-3.614-.351,.055-.702,.111-1.053,.166,0,1.996,.016,3.992-.003,5.988-.091,10.049-.259,20.097-.273,30.145-.02,15.175,.054,30.35,.124,45.525,.009,1.991,.237,3.981,.354,5.972,.471,8.014,1.04,16.024,1.371,24.044,.218,5.281,.076,10.576,.146,15.864,.005,.404,.415,.803,.637,1.204Zm35.778-27.019c-.298,.011-.596,.022-.894,.032-.111,1.043-.34,2.088-.312,3.127,.104,3.892,.158,7.792,.471,11.669,1.458,18.084,2.969,36.164,4.562,54.236,.122,1.386,1.028,2.701,1.57,4.05,.447-1.357,1.328-2.731,1.274-4.068-.499-12.338-1.159-24.668-1.779-37.001-.025-.497-.116-.991-.188-1.484-1.331-9.149-2.657-18.298-4.008-27.444-.155-1.051-.461-2.079-.697-3.118Zm-54.259-60.552c-.28,.024-.561,.048-.841,.072,0,22.333-.013,44.666,.004,66.998,.017,22.282-.575,44.571,.395,66.841,2.053-2.546,2.051-115.638,.443-133.912Zm34.12,63.334c-.298-.016-.595-.032-.893-.049,0,1.305-.009,2.61,.001,3.915,.101,12.759,.068,25.522,.36,38.277,.185,8.07,.857,16.128,1.313,24.192,.045,.795-.081,1.674,.222,2.357,.269,.607,1.026,.994,1.567,1.478,.386-.509,.955-.966,1.114-1.539,.208-.746,.142-1.586,.106-2.381-.39-8.46-.752-16.922-1.213-25.379-.614-11.259-1.3-22.515-1.98-33.771-.143-2.371-.395-4.734-.597-7.101Zm-59.528,70.309c.528-.084,1.056-.167,1.584-.251-1.103-27.842,4.922-55.42,2.401-83.331-.475,1.134-.803,2.287-.884,3.458-1.061,15.416-2.238,30.826-3.069,46.255-.553,10.266-.624,20.559-.832,30.842-.02,1.003,.519,2.018,.799,3.028Zm-.05-64.904c-.26-.04-.52-.08-.78-.12-.17,.338-.456,.663-.493,1.016-.752,7.025-1.59,14.044-2.176,21.084-.702,8.442-1.212,16.902-1.752,25.357-.316,4.952-.596,9.909-.711,14.868-.016,.697,1.003,1.418,1.543,2.127,.497-.718,1.376-1.408,1.43-2.159,.461-6.342,.76-12.696,1.129-19.045,.595-10.24,1.274-20.476,1.776-30.72,.202-4.126,.033-8.271,.033-12.408Zm33.465-16.721c-.296,.007-.592,.015-.888,.022-.106,1.018-.295,2.036-.303,3.055-.022,2.795,.026,5.591,.057,8.387,.199,18.065,.425,36.131,.583,54.197,.034,3.871-.257,7.745-.225,11.616,.012,1.436,.521,2.868,.803,4.302,.594-1.298,1.496-2.542,1.731-3.903,1.083-6.289-1.266-12.419-.66-18.852,.74-7.854-.216-15.863-.328-23.807-.148-10.485-.173-20.972-.295-31.458-.014-1.188-.31-2.373-.475-3.56Zm1.048-50.094c.424-.133,.849-.265,1.273-.398,0-2.519-.14-5.048,.032-7.555,.277-4.051,.935-8.08,1.107-12.132,.182-4.278,.007-8.573-.054-12.86-.112-7.858-.221-15.716-.423-23.572-.031-1.205-.547-2.398-.838-3.597-.311,.061-.622,.121-.933,.182-.342,5.008-.74,10.012-1,15.024-.12,2.321-.632,4.935,.198,6.925,1.61,3.859,1.79,7.691,1.313,11.644-.304,2.523-1.192,4.977-1.453,7.501-.436,4.219-.791,8.47-.757,12.705,.016,2.048,.992,4.088,1.533,6.132Zm18.77,131.888c2.051-3.574,.215-60.75-1.914-64.27-1.445,3.866,.134,60.791,1.914,64.27Zm-12.302-3.098c.314-.013,.629-.025,.943-.038v-76.862c-.355-.037-.71-.075-1.065-.112-.225,.38-.627,.751-.649,1.142-.346,6.427-.756,12.854-.905,19.287-.071,3.069,.507,6.147,.564,9.225,.256,13.752,.414,27.507,.65,41.26,.035,2.035,.301,4.065,.461,6.098Zm9.06-63.339c.405-.04,.811-.08,1.216-.119,.198-24.494-3.107-48.927-2.009-73.439,.03-.68-.321-1.378-.494-2.067-.846,.726-1.08,1.436-1.078,2.144,.026,8.547-.074,17.099,.19,25.639,.214,6.935,1.047,13.849,1.294,20.783,.284,7.967,.206,15.946,.339,23.919,.018,1.049,.354,2.093,.543,3.14Zm-5.023,22.289l-1.193,.208c-.074,1.04-.219,2.081-.209,3.121,.039,4.284,.11,8.569,.196,12.852,.173,8.649,.336,17.299,.598,25.946,.021,.689,.777,1.354,1.191,2.031,.362-.703,1.049-1.411,1.038-2.109-.192-12.87-.447-25.739-.762-38.607-.028-1.153-.561-2.294-.86-3.441Zm-25.997-91.142c4.7-19.414,1.988-39.051,2.406-58.598-.299-.009-.599-.019-.898-.028-.503,19.542-1.005,39.084-1.508,58.626Zm68.601,103.801c-.24,.012-.481,.023-.721,.035-.127,.848-.41,1.706-.355,2.542,.337,5.144,.788,10.281,1.124,15.425,.22,3.373,.284,6.756,.467,10.132,.097,1.79,.888,3.247,2.853,3.087,2.291-.187,1.672-2.03,1.467-3.457-.353-2.456-.759-4.905-1.19-7.348-1.202-6.808-2.428-13.611-3.644-20.416Zm-54.854-55.796c.316,.011,.632,.022,.948,.032v-41.022c-.316-.001-.632-.002-.948-.003v40.993Zm-14.682-99.936c-.391,.015-.783,.029-1.174,.044-.138,12.323-1.042,24.648,.068,36.968,.369,0,.738,.001,1.106,.002v-37.014Zm21.73,54.262c-.346,.007-.692,.015-1.038,.022-.174,14.628-.588,29.259,.194,43.876,.281-.003,.563-.006,.844-.009v-43.889Zm-20.982,43.129c.269,.006,.538,.012,.806,.018v-32.375c-.269,.002-.538,.003-.806,.005v32.352Zm20.095-59.153l1.009,.003v-28.05c-.336,0-.673-.001-1.009-.002v28.049Zm-20.882,76.995c-.254,0-.508,0-.762,0v28.296c.254,0,.508,0,.762,0v-28.295Zm-6.098-33.085c2.024-1.611,2.616-20.694,.934-26.443-.309,8.756-.618,17.511-.934,26.443Zm35.623-88.54c-.385-.014-.771-.028-1.156-.042v19.566c1.565-6.469,2.058-12.974,1.156-19.525Zm-55.401,180.632l-1.178-.082c-.532,3.775-1.108,7.545-1.539,11.332-.053,.463,.67,1.016,1.033,1.527,.562-.458,1.594-.9,1.61-1.378,.134-3.796,.074-7.599,.074-11.399Zm7.649,94.33c.936-2.866-2.349-2.688-3.729-4.519-.845,1.156-1.737,1.996-2.114,3.026-.25,.685,.235,1.642,.392,2.477,.715-.155,1.425-.331,2.145-.459,.996-.178,1.999-.32,3.307-.525Zm19.735-103.653c-.192,.01-.384,.021-.576,.031v17.497c.192-.004,.384-.008,.576-.012v-17.516Zm-5.946,17.695c-.048,0-.096,0-.144,0,0,1.09-.127,2.203,.053,3.262,.09,.53,.74,.964,1.137,1.441,.37-.393,.999-.746,1.065-1.185,.308-2.057,.593-4.138,.584-6.208-.003-.589-1.023-1.174-1.576-1.761-.373,.59-.933,1.139-1.073,1.78-.187,.852-.046,1.777-.046,2.67Zm29.79-176.685c.282-.01,.564-.019,.846-.029v-13.199c-.282,.002-.564,.004-.846,.006v13.221Zm-2.001-10.046c-.294-.023-.589-.046-.883-.07v11.985c.294-.005,.589-.009,.883-.014v-11.901Zm4.657,20.057c-.198,.036-.397,.073-.595,.109v11.425c.198-.011,.397-.022,.595-.033v-11.501Zm2.813,16.406c-.222-.015-.444-.03-.666-.046v10.218l.666,.02v-10.192Zm-15.938-.74c.283-.017,.566-.034,.849-.051v-8.757c-.283,.004-.566,.008-.849,.012v8.796Zm13.235-.013c-.294-.033-.588-.066-.882-.099v8.395c.294,.002,.588,.003,.882,.005v-8.301Zm4.37-20.931l-.654,.015v10.155c.218-.004,.436-.007,.654-.011v-10.16Zm4.717-16.287c-.199,.006-.398,.013-.597,.019v7.152c.199-.01,.398-.02,.597-.031v-7.141Zm-50.085,94.764c.147-.007,.295-.015,.442-.022v-5.187c-.147,.006-.295,.012-.442,.018v5.19Zm45.238-84.255c-.15,.001-.299,.002-.449,.003v2.723c.15-.007,.299-.015,.449-.022v-2.703Zm-31.531,156.787l.454-.015v-2.215l-.454,.02v2.21Zm-14.284-69.578c-.279,.002-.559,.005-.838,.007,.047,.661,.094,1.323,.141,1.984,.233-.013,.465-.026,.698-.039v-1.952Zm14.208-31.066c.17,.013,.34,.026,.51,.04,.03-.57,.061-1.141,.091-1.711-.164-.012-.328-.024-.492-.036-.036,.569-.072,1.138-.109,1.707Zm44.866-23.242c.189,.067,.377,.134,.566,.201v-3.356c-.138-.002-.276-.004-.413-.006-.051,1.054-.102,2.107-.153,3.161Zm-13.608-36.28c-.077,.159-.254,.405-.209,.456,.135,.155,.355,.234,.542,.343,.03-.175,.122-.373,.07-.517-.045-.124-.256-.187-.403-.283Zm-.289-3.71c.175,.147,.354,.299,.534,.45,.078-.151,.255-.343,.214-.444-.082-.202-.285-.354-.438-.527-.086,.146-.173,.292-.309,.522Zm-22.495,16.264c-.105-.134-.21-.268-.315-.403-.112,.132-.311,.265-.31,.396,.001,.136,.196,.271,.307,.406,.106-.132,.212-.265,.318-.399Zm50.616,95.542c-.07,.058-.185,.115-.179,.156,.02,.15,.08,.295,.124,.442,.06-.052,.176-.109,.171-.154-.015-.149-.073-.293-.116-.444Z" fill="#171313"/>
  <path d="M46.07,93.441c1.153-.772,2.017-1.104,2.524-1.729,4.858-5.984,11.741-8.981,18.298-12.321,10.264-5.23,21.322-6.603,32.746-6.136,11.724,.48,22.431,4.038,32.528,9.823,4.391,2.516,8.814,4.977,13.946,7.87-1.097-2.1-1.851-3.518-2.583-4.949-3.743-7.314-5.905-15.089-6.9-23.245-1.258-10.314,.052-20.489,1.707-30.603,.728-4.448,2.451-8.728,3.672-13.099,.776-2.777,1.332-5.625,2.251-8.35,.348-1.033,1.358-2.428,2.213-2.542,.943-.126,2.454,.776,3.019,1.675,1.735,2.762,3.022,5.805,4.689,8.615,3.971,6.692,7.11,13.778,8.996,21.294,2.199,8.765,4.422,17.601,5.558,26.544,3.234,25.448,1.633,51.06,1.341,76.591-.204,17.831-6.269,34.074-16.574,48.732-4.691,6.674-9.547,13.208-16.913,16.806-6.409,3.131-13.249,5.512-20.097,7.549-7.848,2.335-15.992,2.627-24.157,1.694-9.337-1.066-18.301-3.174-27.177-6.605-6.246-2.415-11.842-5.239-16.481-9.908-6.877-6.922-12.514-14.727-17.143-23.421-8.14-15.287-10.71-31.673-10.865-48.69-.091-10.072-.538-20.15-.327-30.214,.268-12.844,.756-25.673,3.232-38.379,1.702-8.73,4.071-17.178,7.445-25.368,3.242-7.868,6.496-15.731,9.782-23.581,.204-.488,.822-1.232,1.092-1.17,.574,.131,1.304,.607,1.52,1.13,3.928,9.489,9.189,18.525,9.84,29.14,.432,7.04,1.543,14.109,1.188,21.105-.293,5.765-2.104,11.493-3.597,17.142-1.24,4.689-2.997,9.24-4.773,14.601Zm62.43-17.387c1.946,3.447,3.937,5.92,4.81,8.743,1.766,5.716,.027,11.183-2.342,16.445-4.552,10.11-12.43,17.404-20.622,24.358-7.582,6.437-14.733,13.221-20.538,21.387-3.932,5.531-7.554,11.34-8.805,17.972-1.208,6.403-1.698,13.092-1.357,19.595,.282,5.365,1.665,10.867,3.611,15.896,2.061,5.327,6.013,9.115,12.322,9.772,6.261,.652,12.44,2.171,18.706,2.704,8.342,.71,16.507-1.021,24.728-2.415,5.35-.907,10.435-1.866,15.002-4.903,7.593-5.05,13.999-11.379,19.372-18.706,4.902-6.684,7.703-14.404,10.629-22.148,6.774-17.928,3.633-34.96-3.834-51.575-4.888-10.876-13.012-19.166-23.15-25.36-7.34-4.486-14.868-8.587-23.415-10.344-1.56-.321-3.078-.847-5.119-1.42ZM62.833,205.689c-1.482-5.542-3.033-10.315-4.006-15.205-1.814-9.11-1.705-18.331,.803-27.251,2.621-9.322,7.934-17.395,14.441-24.365,6.82-7.306,14.482-13.81,21.679-20.767,6.99-6.757,12.963-14.225,15.535-23.916,1.19-4.484,.658-8.604-1.936-12.558-2.805-4.275-7.108-5.225-11.577-5.398-3.718-.144-7.463,.512-11.2,.756-7.509,.492-14.536,1.871-21.545,5.42-12.506,6.333-21.429,16.036-29.287,27.144-5.632,7.961-8.286,17.141-10.109,26.551-1.772,9.15-1.278,18.409,1.532,27.207,2,6.263,5.249,12.168,8.321,18.03,5.294,10.1,13.505,17.287,23.431,22.59,1.184,.633,2.451,1.107,3.919,1.762ZM147.292,15.961c-.474,.007-.949,.015-1.423,.022-1.015,6.522-2.405,13.011-2.972,19.572-1.567,18.131-.657,36.053,6.117,53.23,1.535,3.891,2.963,7.965,7.168,10.591,.097-2.173,.09-4,.311-5.799,.07-.567,.726-1.464,1.156-1.49,.642-.038,1.491,.412,1.942,.929,.563,.646,.964,1.532,1.166,2.38,.738,3.089,1.347,6.209,2.036,9.31,1.106,4.981,2.237,9.956,3.357,14.934,1.235-36.052-6.119-70.393-18.856-103.679Zm-103.754,1.974c-.29,.05-.581,.1-.871,.15-1.135,3.758-2.456,7.472-3.356,11.287-1.026,4.349-1.58,8.81-2.517,13.183-1.125,5.251-2.53,10.441-3.646,15.694-1.467,6.903-2.945,13.812-4.098,20.772-1.266,7.646-2.182,15.352-3.22,23.035-.638,4.724-1.311,9.447-1.788,14.188-.229,2.275-.039,4.592-.039,6.89l.933,.095c1.197-5.266,2.413-10.529,3.585-15.801,.649-2.919,.992-5.935,1.952-8.741,.361-1.055,2.074-1.642,3.17-2.443,.452,1.189,1.029,2.349,1.305,3.578,.137,.61-.474,1.37-.396,2.019,.119,.986,.543,1.935,.838,2.9,.762-.533,1.83-.896,2.23-1.629,1.518-2.778,2.973-5.612,4.174-8.54,4.572-11.151,6.946-22.872,7.856-34.82,.83-10.895-1.308-21.642-3.033-32.349-.522-3.239-2.026-6.317-3.08-9.469ZM22.889,109.427c.971-8.125,1.785-16.549,3.039-24.906,.943-6.284,2.385-12.497,3.723-18.716,1.548-7.193,3.257-14.35,4.834-21.536,.959-4.368,1.853-8.753,2.668-13.15,.309-1.667,.314-3.39,.458-5.088-9.528,17.652-16.865,45.039-14.722,83.396ZM151.856,21.965c3.039,9.941,6.495,19.776,8.999,29.851,2.539,10.214,4.136,20.664,6.086,30.702,3.327-9.421-7.103-56.089-15.085-60.553Zm-8.455,59.292c.278-.024,.556-.048,.834-.072-1.022-5.229-2.31-10.423-2.993-15.697-.714-5.516-1.154-11.109-1.147-16.668,.006-5.352,.736-10.703,1.148-16.055-.29-.017-.581-.034-.871-.051-3.632,16.467-3.604,32.708,3.028,48.543Zm-93.155-10.124c2.808-5.25,3.519-19.152,1.586-23.212-.279,3.667-.122,7.346-.335,11.003-.139,2.387-.928,4.729-1.212,7.117-.199,1.675-.038,3.393-.038,5.092Zm.146-27.94c.256,.029,.513,.058,.769,.088v-5.312c-.256-.003-.513-.007-.769-.01v5.235Zm100.537-23.364c.272-.008,.545-.017,.817-.025-.08-.619-.161-1.237-.241-1.856-.192,.014-.384,.028-.576,.042v1.839Zm-9.305,7.865c.275,.007,.551,.014,.826,.02l-.252-2.229c-.23,.028-.46,.055-.69,.083,.038,.708,.077,1.417,.115,2.125Zm26.37,69.964c.171-.026,.341-.052,.512-.077-.065-.469-.131-.938-.196-1.408-.173,.025-.347,.051-.52,.076,.068,.47,.136,.939,.204,1.409ZM38.68,23.31c-.063-.159-.127-.321-.191-.482-.121,.095-.329,.179-.344,.289-.021,.152,.104,.324,.166,.487,.12-.096,.24-.192,.368-.294Zm106.594,60.218c-.128-.085-.256-.17-.383-.255-.044,.084-.141,.226-.123,.243,.111,.104,.248,.18,.376,.266,.043-.084,.087-.168,.13-.253Z" fill="#171313"/>
  <path d="M24.296,547.494c0,2.791-.033,5.582,.01,8.372,.036,2.337,.803,3.973,3.521,4.301,.796,.096,1.443,1.442,2.158,2.215-.81,.551-1.596,1.533-2.433,1.578-3.856,.21-7.729,.268-11.587,.122-.933-.035-1.829-1.056-2.742-1.624,.725-.704,1.41-1.961,2.182-2.018,4.087-.303,3.925-2.988,3.767-5.952-.158-2.981-.032-5.977-.079-8.965-.028-1.77-.207-3.34-2.596-3.585-1.803-.185-1.843-1.246-.523-2.373,.148-.127,.335-.215,.516-.295,1.992-.884,3.987-1.762,5.98-2.642,.456,1.929,1.031,3.84,1.331,5.794,.256,1.664,.194,3.378,.273,5.07,.074,.001,.148,.002,.223,.003Z" fill="#171313"/>
  <path d="M64.484,491.961c7.338-8.511,12.38-18.375,16.579-28.769,1.01,3.32-.148,6.053-1.763,8.704-3.749,6.155-7.417,12.36-11.251,18.461-.662,1.053-1.98,1.689-2.996,2.517-.19-.304-.38-.609-.569-.913Z" fill="#171313"/>
  <path d="M77.984,426.351c1.677,10.466,3.544,20.91,2.573,31.673-1.169-10.503-2.339-21.007-3.508-31.51,.312-.055,.624-.109,.936-.164Z" fill="#171313"/>
  <path d="M11.592,145.796c1.877-1.582,3.032-3.238,4.411-3.456,.792-.125,2.98,2.464,2.725,3.158-.531,1.449-2.118,2.769-3.588,3.457-.478,.224-1.94-1.68-3.548-3.159Z" fill="#171313"/>
  <path d="M40.648,562.48c-3.791-2.037-3.857-5.674,0-8.76v8.76Z" fill="#171313"/>
  <path d="M78.295,500.953c.956-.911,1.813-1.983,2.908-2.669,.576-.361,1.568-.048,2.373-.039-.103,.887,.085,2.31-.365,2.558-1.312,.723-2.879,.975-4.347,1.411-.189-.421-.379-.841-.568-1.262Z" fill="#171313"/>
  <path d="M106.342,503.016c-1.46,.936-2.282,1.791-3.217,1.943-.582,.095-1.335-.874-2.011-1.365,.88-.789,1.675-1.742,2.688-2.272,.323-.169,1.225,.785,2.54,1.694Z" fill="#171313"/>
  <path d="M111.671,504.022c-1.072,.268-2.143,.535-3.215,.803-.137-.594-.275-1.189-.412-1.783,1.121-.252,2.243-.504,3.364-.755,.088,.579,.175,1.157,.263,1.736Z" fill="#171313"/>
  <path d="M116.614,503.177c-.77,.73-1.541,1.46-2.311,2.191-.319-.323-.638-.645-.957-.968,.729-.784,1.458-1.567,2.187-2.351,.36,.376,.72,.752,1.081,1.128Z" fill="#171313"/>
  <path d="M39.582,572.534v-3.07c.259-.001,.519-.002,.778-.003v3.111c-.259-.013-.519-.025-.778-.038Z" fill="#171313"/>
  <path d="M121.041,503.329c-.062,.734-.124,1.468-.187,2.202-.33-.004-.66-.009-.989-.013-.034-.73-.067-1.46-.101-2.19,.426,0,.851,0,1.277,0Z" fill="#171313"/>
  <path d="M31.264,269.533c-.311,.248-.528,.554-.728,.543-.194-.011-.535-.365-.515-.533,.026-.217,.327-.521,.545-.556,.172-.027,.399,.298,.697,.547Z" fill="#171313"/>
  <path d="M21.477,311.356c.114,.114,.226,.227,.339,.341-.131,.094-.255,.203-.398,.271-.032,.015-.201-.142-.189-.173,.061-.155,.161-.294,.248-.439Z" fill="#171313"/>
  <path d="M91.514,580.699c.471,.593,1.027,1.124,.955,1.233-.282,.427-.736,.772-1.194,1.02-.092,.05-.736-.536-.688-.699,.138-.472,.499-.877,.928-1.554Z" fill="#171313"/>
  <path d="M86.882,580.57c.192,.538,.385,1.076,.577,1.615-.342,.079-.938,.295-.983,.213-.254-.474-.376-1.019-.544-1.539,.316-.096,.633-.192,.949-.288Z" fill="#171313"/>
  <path d="M81.538,580.994c.348,.393,.694,.629,.661,.78-.069,.312-.34,.578-.528,.863-.209-.171-.594-.347-.588-.51,.01-.321,.238-.634,.456-1.133Z" fill="#171313"/>
  <path d="M54.681,552.049c2.098-.114,4.202-.374,6.293-.299,1.957,.07,3.559-.174,4.354-2.242,.103-.267,.32-.648,.538-.689,4.643-.87,4.033-4.598,4.292-7.874,.028-.353,.302-.686,1.119-1.033,.056,1.142,.176,2.284,.157,3.425-.07,4.298,.474,4.812,4.808,4.438,.369-.032,.746,.027,1.84,.076-.713,1-1.114,2.073-1.55,2.088-2.323,.081-4.655-.099-6.983-.2-.624-.027-1.251-.147-1.863-.088-.109,.01-.316,.947-.2,1.023,.53,.345,1.142,.679,1.757,.757,2.566,.323,5.143,.552,7.716,.815-.007,.288-.013,.576-.02,.863-3.383,.155-6.766,.309-10.149,.464-.007,.399-.014,.799-.021,1.198,3.522,.248,7.045,.496,10.567,.744-.037,.417-.073,.834-.11,1.252-1.176-.071-2.358-.086-3.525-.225-1.687-.201-2.572,.225-2.633,2.199-.066,2.116-.554,4.219-.858,6.328-.309-.009-.617-.018-.926-.026-.063-1.299-.096-2.6-.199-3.896-.102-1.283,.188-3.239-.501-3.714-2.212-1.527-4.7-2.841-7.268-3.59-2.099-.612-4.464-.299-6.711-.396,.025-.466,.05-.932,.075-1.398Z" fill="#171313"/>
  <path d="M129.359,110.62c4.727,.931,10.356,1.302,15.347,3.294,3.065,1.223,5.155,4.924,7.682,7.513-.843,.813-2.032,2.482-2.473,2.301-3.187-1.305-6.057-.294-9.189,.277-7.108,1.296-14.156,.06-21.089-1.796-1.118-.299-2.376-.594-3.461-.368-1.535,.32-3.047,.448-3.327-1.266-.183-1.117,.392-2.861,1.244-3.549,2.133-1.721,4.492-3.297,6.998-4.369,2.318-.992,4.944-1.257,8.268-2.037Zm17.325,9.131c-8.115-8.203-25.287-8.128-31.427-.706,5.171-.893,10.44-2.6,15.668-2.482,5.274,.119,10.507,2.051,15.759,3.188Zm-24.158,1.062c3.148,.574,5.822,1.169,8.526,1.517,1.833,.235,3.719,.239,5.563,.1,.623-.047,1.19-.85,1.782-1.308-.46-.558-.808-1.351-1.398-1.636-4.478-2.16-9.009-1.344-13.51-.016-.276,.081-.431,.579-.963,1.342Z" fill="#171313"/>
  <path d="M97.051,180.225c-4.256,0-8.512-.009-12.768,.003-2.851,.008-3.768-1.386-2.948-4.261,3.03-10.626,5.891-21.302,9.058-31.885,1.727-5.771,3.902-11.409,5.986-17.065,.3-.815,1.224-1.398,1.859-2.088,.56,.708,1.414,1.335,1.634,2.138,1.99,7.258,3.795,14.568,5.802,21.821,1.714,6.192,3.645,12.324,5.435,18.495,.881,3.038,1.803,6.076,2.441,9.17,.544,2.637-.465,3.718-3.136,3.742-4.454,.041-8.908,.011-13.362,.011,0-.027,0-.054,0-.081Zm11.435-1.951c2.73-.068,3.643-.694,3.217-2.69-.598-2.805-1.415-5.567-2.239-8.317-1.19-3.967-2.579-7.876-3.689-11.864-2.234-8.031-4.32-16.103-6.532-24.14-.147-.535-.848-1.278-1.286-1.275-.491,.004-1.222,.653-1.424,1.184-1.159,3.055-2.337,6.117-3.236,9.255-1.802,6.285-3.377,12.636-5.143,18.932-1.497,5.338-3.076,10.656-4.733,15.946-.69,2.204,.083,2.978,2.193,2.974,7.624-.015,15.247-.006,22.871-.006Z" fill="#171313"/>
  <path d="M96.686,196.805c-2.776-.901-5.347-1.501-7.677-2.612-.887-.423-1.852-2.172-1.646-3.045,.257-1.084,1.616-2.582,2.629-2.692,4.807-.522,9.656-.711,14.494-.824,.972-.023,2.114,.617,2.916,1.274,2.129,1.742,1.948,3.736-.6,4.727-3.257,1.267-6.675,2.115-10.117,3.172Zm7.767-5.204c-3.092-1.675-12.327-1.285-14.1,.461,3.299,2.149,10.923,1.99,14.1-.461Z" fill="#171313"/>
  <path d="M140.32,144.119c-1.313,1.207-2.65,3.387-3.933,3.355-1.365-.034-3.269-1.926-3.864-3.436-.711-1.804,1.628-3.981,3.629-3.996,2.187-.017,3.539,1.283,4.168,4.077Zm-4.655,1.636c.83-1.221,1.392-1.689,1.357-2.108-.029-.346-.761-.633-1.182-.946-.298,.446-.764,.866-.841,1.348-.065,.406,.322,.885,.666,1.706Z" fill="#171313"/>
  <path d="M138.454,104.167c-.16,2.376-1.41,3.599-3.604,3.578-2.011-.019-3.432-1.033-3.387-3.25,.044-2.151,1.105-3.624,3.398-3.65,2.209-.025,3.443,1.181,3.593,3.322Zm-3.683,1.573c.559-.624,1.003-.962,1.182-1.408,.062-.154-.554-.83-.831-.813-.354,.022-.853,.453-.961,.809-.09,.295,.296,.737,.61,1.411Z" fill="#171313"/>
  <path d="M135.658,134.608c-.65-1.494-1.391-2.381-1.236-3.063,.168-.739,1.169-1.286,1.807-1.917,.506,.745,1.413,1.496,1.404,2.234-.009,.714-.962,1.416-1.975,2.746Z" fill="#171313"/>
  <path d="M135.32,94.1c.648,.897,1.371,1.49,1.27,1.843-.204,.707-.858,1.281-1.327,1.91-.518-.444-1.511-.966-1.454-1.315,.118-.725,.793-1.358,1.512-2.438Z" fill="#171313"/>
  <path d="M109.452,186.742c.286,.275,.598,.437,.621,.635,.024,.203-.233,.44-.367,.662-.208-.149-.539-.265-.59-.456-.052-.194,.172-.463,.335-.84Z" fill="#171313"/>
  <path d="M61.705,126.378c-3.8-.546-7.589-1.201-11.404-1.597-2.428-.252-4.901-.037-7.341-.21-.763-.054-2.052-.627-2.102-1.074-.088-.796,.372-1.897,.972-2.491,8.32-8.219,18.334-9.015,28.985-6.341,2.749,.69,5.454,1.848,7.922,3.25,1.155,.656,1.698,2.405,2.518,3.658-1.19,.438-2.365,.928-3.578,1.293-.651,.195-1.583-.083-2.018,.29-4.134,3.547-9.101,2.765-13.954,3.223Zm-10.458-4.222c3.549,2.139,17.537,2.088,20.298-.074-3.879-3.318-14.779-3.278-20.298,.074Zm-6.498-.23c6.196-1.88,12.161-3.689,18.381-5.576-5.335-2.366-15.302,.706-18.381,5.576Zm30.126-1.946c.119-.491,.239-.981,.358-1.472-2.115-.554-4.229-1.108-6.344-1.662l-.163,.878c2.05,.752,4.099,1.504,6.149,2.256Z" fill="#171313"/>
  <path d="M60.703,109.112c-.538-.718-1.921-1.822-2.241-3.18-.394-1.671,2.44-4.344,3.822-3.685,1.281,.61,2.592,2.1,2.97,3.462,.526,1.896-1.39,3.455-4.551,3.403Zm1.441-4.179c-.237,.015-.474,.03-.711,.046-.111,.256-.383,.642-.302,.745,.269,.34,.665,.578,1.013,.855v-1.646Z" fill="#171313"/>
  <path d="M65.418,143.681c.111,2.099-.962,3.386-2.93,3.307-1.977-.079-3.816-1.122-3.824-3.387-.006-1.873,.954-3.572,3.222-3.503,2.194,.067,3.413,1.338,3.532,3.583Zm-3.581-1.252c-.417,.488-.917,.816-.918,1.146,0,.357,.464,.715,.726,1.072,.399-.32,.799-.64,1.198-.96-.283-.354-.565-.707-1.006-1.258Z" fill="#171313"/>
  <path d="M100.331,97.391c-1.105,1.078-2.145,2.951-3.331,3.05-1.824,.152-3.587-1.184-3.542-3.493,.038-1.953,.937-3.456,3.115-3.575,2.305-.126,3.071,1.33,3.758,4.018Zm-3.679,.736c.456-.373,.954-.636,.923-.784-.079-.374-.338-.788-.649-.997-.13-.087-.826,.302-.828,.48-.004,.362,.288,.728,.554,1.301Z" fill="#171313"/>
  <path d="M61.991,130.607c.824,1.499,1.661,2.331,1.553,3.013-.117,.742-1.11,1.343-1.722,2.006-.566-.579-1.634-1.205-1.586-1.727,.082-.894,.862-1.723,1.755-3.292Z" fill="#171313"/>
  <path d="M98.568,86.912c-1.084,.906-1.693,1.605-2.458,1.928-.21,.089-1.346-1.053-1.258-1.451,.179-.81,.903-1.498,1.402-2.236,.618,.47,1.236,.939,2.313,1.758Z" fill="#171313"/>
  <path d="M64.123,97.784c-1.187,.81-1.87,1.44-2.673,1.722-.234,.082-1.251-1.058-1.155-1.246,.394-.769,.987-1.545,1.71-1.97,.245-.144,1.088,.742,2.118,1.494Z" fill="#171313"/>
  <path d="M94.798,152.137c0-2.488-.049-4.977,.017-7.463,.046-1.761,.784-3.432,2.712-3.116,.873,.143,2.024,1.825,2.128,2.899,.478,4.932,.484,9.91,.991,14.838,.151,1.466,1.393,2.812,2.111,4.226,.428,.841,1.109,1.69,1.157,2.564,.177,3.239-4.493,6.924-7.568,6.078-1.143-.315-2.286-.667-3.375-1.131-2.398-1.023-3.417-3.699-2.081-5.613,1.061-1.521,2.946-2.746,3.35-4.381,.704-2.851,.55-5.916,.755-8.892-.066-.003-.131-.006-.197-.009Z" fill="#171313"/>
  <path d="M153.647,20.678c1.588,2.897,3.459,5.676,4.71,8.714,3.341,8.115,6.157,16.427,7.48,25.153,1.179,7.778,2.314,15.567,3.223,23.381,.261,2.243-.327,4.587-.525,6.884" fill="none" stroke="#171313" stroke-linecap="round" stroke-linejoin="round" stroke-width="2"/>
  <path d="M167.642,94.1c-1.432,1.898-1.822,3.796,0,5.694" fill="none" stroke="#171313" stroke-linecap="round" stroke-linejoin="round" stroke-width="2"/>
  <path d="M168.684,117.475c-.05,1.099-.099,2.198-.149,3.297" fill="none" stroke="#171313" stroke-linecap="round" stroke-linejoin="round" stroke-width="2"/>
  <path d="M168.684,134.257c.436,9.089,.426,18.183-2.279,26.957-3.54,11.484-7.755,22.688-16.022,31.791-.193,.213-.21,.588-.31,.888" fill="none" stroke="#171313" stroke-linecap="round" stroke-linejoin="round" stroke-width="2"/>
  <path d="M132.804,208.129c-2.68,1.149-5.36,2.298-8.04,3.446" fill="none" stroke="#171313" stroke-linecap="round" stroke-linejoin="round" stroke-width="2"/>
  <path d="M72.059,211.426c-.496-.15-.993-.3-1.489-.45" fill="none" stroke="#171313" stroke-linecap="round" stroke-linejoin="round" stroke-width="2"/>
  <path d="M51.514,201.686c-3.176-3.197-6.34-6.406-9.531-9.587-5.072-5.055-7.975-11.556-11.191-17.748-2.586-4.978-4.519-10.412-5.943-15.855-1.156-4.42-1.127-9.155-1.623-13.75" fill="none" stroke="#171313" stroke-linecap="round" stroke-linejoin="round" stroke-width="2"/>
  <path d="M23.524,113.13c.397-2.747,.86-5.486,1.178-8.243,.737-6.388,1.2-12.816,2.156-19.169,.923-6.134,2.286-12.204,3.525-18.288,1.649-8.099,3.339-16.191,5.061-24.274,1.449-6.801,2.976-13.586,4.445-20.383,.103-.477,.013-.996,.013-1.495" fill="none" stroke="#171313" stroke-linecap="round" stroke-linejoin="round" stroke-width="2"/>
  <path d="M98.561,125.567c-1.687,3.996-3.589,7.916-5.006,12.007-1.632,4.71-2.809,9.578-4.233,14.363-1.252,4.207-2.586,8.389-3.858,12.591-.723,2.389-1.409,4.789-2.083,7.193-.333,1.189-.656,2.385-.882,3.598-.183,.983-.656,2.511-.223,2.885,.883,.762,2.293,1.258,3.48,1.245,4.667-.049,9.329-.433,13.996-.507,3.571-.056,7.146,.164,10.719,.27,2.405,.072,2.759-1.713,2.313-3.278-1.295-4.551-2.96-8.994-4.378-13.512-.804-2.562-1.403-5.19-2.105-7.785-1.783-6.594-3.549-13.193-5.371-19.776-.615-2.22-1.377-4.399-2.072-6.597" fill="none" stroke="#171313" stroke-linecap="round" stroke-linejoin="round" stroke-width="2"/>
  <path d="M106.6,76.119c.893,1.299,1.628,2.752,2.707,3.869,4.791,4.961,4.213,10.667,2.337,16.503-3.688,11.475-11.714,19.755-20.571,27.225-9.528,8.036-18.352,16.642-24.96,27.329-3.695,5.976-6.347,12.353-6.852,19.474-.234,3.294-.57,6.593-.569,9.889,.004,8.183,1.388,16.071,5.28,23.4,.539,1.016,.444,2.372,.643,3.571" fill="none" stroke="#171313" stroke-linecap="round" stroke-linejoin="round" stroke-width="2"/>
  <path d="M133.995,306.575c-2.273,4.504-1.058,9.164-.579,13.784,.084,.811,.513,1.592,.559,2.4,.723,12.585,1.426,25.171,2.099,37.759,.523,9.788,.845,19.59,1.543,29.365,.551,7.709,1.613,15.381,2.299,23.082,.301,3.378,.232,6.79,.332,10.186" fill="none" stroke="#171313" stroke-linecap="round" stroke-linejoin="round" stroke-width="2"/>
  <path d="M75.037,287.994c-.298,1.099-.812,2.189-.858,3.298-.271,6.59-.346,13.189-.657,19.776-.273,5.8-.894,11.584-1.137,17.384-.402,9.585-.713,19.177-.901,28.769-.279,14.283-.355,28.571-.642,42.854-.155,7.695-.57,15.384-.868,23.076" fill="none" stroke="#171313" stroke-linecap="round" stroke-linejoin="round" stroke-width="2"/>
  <path d="M54.193,582.582c2.087,2.1,6.595,3.559,8.337,2.697,2.381-1.177,4.487-5.065,3.781-8.07-.541-2.305-1.895-4.417-2.888-6.614" fill="none" stroke="#171313" stroke-linecap="round" stroke-linejoin="round" stroke-width="2"/>
  <path d="M55.384,568.946c-6.905,2.312-10.124,10.678-7.255,17.147,1.989,4.486,6.704,6.766,11.723,6.916,7.834,.233,15.701-.277,23.513,.199,4.153,.253,8.564-1.01,12.524,1.344,.221,.131,.586,.028,.883,.015,6.948-.298,13.896-.594,20.843-.908,.401-.018,.795-.189,1.192-.289" fill="none" stroke="#171313" stroke-linecap="round" stroke-linejoin="round" stroke-width="2"/>
  <path d="M126.253,588.575c.695-.1,1.39-.2,2.084-.3" fill="none" stroke="#171313" stroke-linecap="round" stroke-linejoin="round" stroke-width="2"/>
  <path d="M110.173,262.222c-.099,3.197-.081,6.403-.342,9.586-.157,1.918-.172,4.306-1.278,5.583-1.821,2.105-1.914,4.357-1.924,6.708-.059,14.384-.066,28.77,.01,43.154,.011,2.099,.734,4.189,.818,6.295,.207,5.19,.227,10.388,.334,15.582,.194,9.39-.326,18.865,.757,28.151,1.786,15.302,.496,30.59,1.028,45.871" fill="none" stroke="#171313" stroke-linecap="round" stroke-linejoin="round" stroke-width="2"/>
  <path d="M120.297,244.54c.407,7.192-.86,14.476,1.182,21.58,.167,.58,.284,1.195,.295,1.796,.118,6.593-.012,13.199,.367,19.775,.45,7.806,1.417,15.58,1.999,23.381,.439,5.883,.566,11.789,.936,17.678,.433,6.897,.967,13.787,1.495,20.677,.039,.512,.376,1.001,.575,1.5" fill="none" stroke="#171313" stroke-linecap="round" stroke-linejoin="round" stroke-width="2"/>
  <path d="M39.603,20.378c-3.299,1.249-3.919,4.662-4.916,7.249-3.173,8.237-6.227,16.595-8.329,25.155-1.918,7.811-2.837,15.914-3.645,23.945-.861,8.554-1.137,17.17-1.535,25.766-.129,2.786,.074,5.6,.312,8.385,.079,.927,.744,1.802,1.141,2.701" fill="none" stroke="#171313" stroke-linecap="round" stroke-linejoin="round" stroke-width="2"/>
  <path d="M122.084,243.342c.794,2.897,1.641,5.781,2.359,8.697,.336,1.364,.42,2.791,.619,4.19" fill="none" stroke="#171313" stroke-linecap="round" stroke-linejoin="round" stroke-width="2"/>
  <path d="M125.508,267.316c-.05,2.098-.243,4.204-.124,6.292,.539,9.493,1.096,18.986,1.78,28.47,.815,11.294,1.727,22.581,2.673,33.864,.939,11.193,2.032,22.372,2.933,33.568,.304,3.779,.104,7.598,.355,11.384,.618,9.295,1.355,18.583,2.064,27.872,.267,3.499,.567,6.995,.9,10.488,.124,1.306,.385,2.598,.584,3.897" fill="none" stroke="#171313" stroke-linecap="round" stroke-linejoin="round" stroke-width="2"/>
  <path d="M95.285,494.026c-2.481,3.546-4.618,7.422-7.556,10.532-2.244,2.375-5.619,3.217-9.122,2.837-3.259-.353-6.55-.399-9.822-.649-1.298-.099-2.615-.261-3.866-.605-4.145-1.141-13.049-.104-14.597,5.117" fill="none" stroke="#171313" stroke-linecap="round" stroke-linejoin="round" stroke-width="2"/>
  <path d="M48.685,514.853c-.447,2.897-1.072,5.779-1.305,8.694-.582,7.3,4.694,10.148,10.158,12.085,2.052,.728,5.035-.458,7.327-1.416,1.618-.677,2.936-1.247,4.816-1.169,9.422,.389,18.855,.477,28.284,.693,2.482,.057,4.968,.134,7.441,.33,.714,.057,1.769,.372,2.028,.892,2.027,4.075,6.12,4.002,9.616,4.598,1.622,.277,3.545-1.232,5.332-1.931" fill="none" stroke="#171313" stroke-linecap="round" stroke-linejoin="round" stroke-width="2"/>
  <path d="M125.359,533.134c.496-1.498,.919-3.027,1.505-4.489,1.073-2.676,1.066-5.064-1.189-7.219-1.779-1.7-3.272-3.714-5.107-5.344-3.31-2.941-7.658-2.777-11.59-2.92-15.474-.562-30.963-.762-46.448-.969-3.967-.053-7.94,.362-11.91,.561" fill="none" stroke="#171313" stroke-linecap="round" stroke-linejoin="round" stroke-width="2"/>
  <path d="M66.104,334.894c1.637,1.634,2.176,3.425,2.092,6.443-.222,7.991-.214,15.993-.65,23.972-.612,11.198-1.618,22.374-2.301,33.569-.304,4.982-.255,9.987-.324,14.982-.043,3.096-.008,6.193-.008,9.29" fill="none" stroke="#171313" stroke-linecap="round" stroke-linejoin="round" stroke-width="2"/>
  <path d="M89.33,246.638c-.397,1.898-1.125,3.794-1.134,5.694-.037,7.991,.025,15.986,.273,23.973,.248,7.996,.876,15.981,1.121,23.977,.187,6.088,.065,12.186,.032,18.279-.082,14.984-.28,29.968-.271,44.952,.012,19.879,.177,39.758,.276,59.637" fill="none" stroke="#171313" stroke-linecap="round" stroke-linejoin="round" stroke-width="2"/>
  <path d="M94.392,321.559c-.298,.4-.857,.8-.855,1.199,.051,10.689,.175,21.377,.256,32.066,.113,14.784,.216,29.568,.295,44.353,.037,6.892-.007,13.785,.02,20.678,.004,1.099,.185,2.198,.284,3.297" fill="none" stroke="#171313" stroke-linecap="round" stroke-linejoin="round" stroke-width="2"/>
  <path d="M88.436,285.896c-1.526,.097-1.832,.955-1.821,2.398,.069,8.69,.112,17.382,.012,26.072-.098,8.592-.526,17.182-.54,25.773-.023,14.684,.237,29.369,.242,44.053,.004,12.986-.177,25.972-.276,38.959" fill="none" stroke="#171313" stroke-linecap="round" stroke-linejoin="round" stroke-width="2"/>
  <path d="M109.578,279.603c.099,7.592,.276,15.184,.276,22.776,0,7.592-.88,15.266-.014,22.745,.524,4.524,.737,9.003,.929,13.516,.199,4.695,.427,9.389,.59,14.085,.511,14.684,.954,29.37,1.512,44.052,.296,7.796,.76,15.585,1.182,23.375,.142,2.629-.425,4.186-3.598,3.358-1.395-.364-3.051,.257-4.431-.132-2.367-.668-3.901-2.167-3.926-5.023-.122-14.285-.285-28.572-.607-42.854-.099-4.402-.961-8.786-1.081-13.189-.106-3.887,.283-7.793,.547-11.685,.224-3.302,.58-6.594,.878-9.891" fill="none" stroke="#171313" stroke-linecap="round" stroke-linejoin="round" stroke-width="2"/>
  <path d="M102.729,335.644c.099-1.698,.261-3.395,.287-5.095,.123-7.991,.271-15.983,.287-23.974,.011-5.494-.157-10.989-.301-16.482-.018-.704-.372-1.399-.571-2.098" fill="none" stroke="#171313" stroke-linecap="round" stroke-linejoin="round" stroke-width="2"/>
  <path d="M111.364,235.25c-.199,7.592-.397,15.184-.596,22.776" fill="none" stroke="#171313" stroke-linecap="round" stroke-linejoin="round" stroke-width="2"/>
  <path d="M112.704,262.521c-.05,5.095-.177,10.19-.134,15.284,.138,16.393-.729,32.799,1.379,49.16,.788,6.116,.409,12.379,.709,18.567,.529,10.892,1.28,21.773,1.737,32.668,.44,10.483,.605,20.977,.934,31.465,.138,4.397,.387,8.791,.585,13.186" fill="none" stroke="#171313" stroke-linecap="round" stroke-linejoin="round" stroke-width="2"/>
  <path d="M113.151,277.505c1.741-.154,2.43,.483,2.428,2.398-.009,8.191-.384,16.435,.394,24.56,.871,9.096,1.171,18.169,1.477,27.28,.203,6.067,1.854,12.071,2.482,18.142,.446,4.309,.297,8.683,.358,13.029,.122,8.591,.063,17.186,.34,25.771,.346,10.694,.956,21.379,1.453,32.067,.08,1.714,.609,2.748,2.679,2.741,6.253-.021,12.506,.196,18.759,.237,2.58,.017,5.161-.18,7.742-.28" fill="none" stroke="#171313" stroke-linecap="round" stroke-linejoin="round" stroke-width="2"/>
  <path d="M95.583,247.238c-2.157,.112-1.322,1.958-1.105,2.67,1.248,4.089-.702,7.99-.439,12.018,.253,3.879,.055,7.788,.055,11.684v13.785" fill="none" stroke="#171313" stroke-linecap="round" stroke-linejoin="round" stroke-width="2"/>
  <path d="M95.881,292.04c.496,1.049,1.419,2.097,1.422,3.147,.02,8.691-.192,17.381-.217,26.072-.047,15.683-.095,31.367,.028,47.05,.049,6.195,.656,12.385,.815,18.582,.1,3.891-.288,7.793-.234,11.686,.112,8.193,.371,16.383,.569,24.574" fill="none" stroke="#171313" stroke-linecap="round" stroke-linejoin="round" stroke-width="2"/>
  <path d="M149.776,16.483c-.764,3.589,1.527,6.415,2.42,9.579,2.574,9.121,5.53,18.136,7.946,27.297,2.587,9.811,4.893,19.705,5.208,29.95,.034,1.119,1.3,2.2,1.995,3.299" fill="none" stroke="#171313" stroke-linecap="round" stroke-linejoin="round" stroke-width="2"/>
  <path d="M118.511,243.342c-.397,2.098-1.087,4.189-1.136,6.295-.151,6.39-.338,12.801,.011,19.175,.548,10.003,1.553,19.98,2.302,29.973,.291,3.889,.476,7.789,.595,11.687,.162,5.292,.214,10.588,.313,15.883" fill="none" stroke="#171313" stroke-linecap="round" stroke-linejoin="round" stroke-width="2"/>
  <path d="M140.843,30.268c-.596,.899-1.612,1.75-1.72,2.705-.817,7.278-1.975,14.576-1.988,21.869-.011,5.892,1.08,11.863,2.337,17.655,.875,4.031,2.796,7.845,4.403,11.691,.317,.759,1.335,1.222,2.03,1.821" fill="none" stroke="#171313" stroke-linecap="round" stroke-linejoin="round" stroke-width="2"/>
  <path d="M127.444,351.527c1.191,23.925,2.382,47.849,3.573,71.774" fill="none" stroke="#171313" stroke-linecap="round" stroke-linejoin="round" stroke-width="2"/>
  <path d="M143.225,20.378c-3.064,3.94-2.077,7.969-1.505,12.626,.89,7.244-.658,14.755-.476,22.135,.191,7.713,1.176,15.382,3.675,22.81,.875,2.6,.545,5.589,1.046,8.349,.247,1.363,1.131,2.608,1.726,3.907" fill="none" stroke="#171313" stroke-linecap="round" stroke-linejoin="round" stroke-width="2"/>
  <path d="M162.729,113.879c1.528,2.912,1.094,6.712,4.02,8.99" fill="none" stroke="#171313" stroke-linecap="round" stroke-linejoin="round" stroke-width="2"/>
  <path d="M63.722,569.695c2.084,.1,4.175,.13,6.252,.314,5.165,.457,10.314,1.187,15.487,1.437,7.833,.38,15.68,.447,23.521,.646" fill="none" stroke="#171313" stroke-linecap="round" stroke-linejoin="round" stroke-width="2"/>
  <path d="M122.977,564.301c3.275-2.397,6.624-4.701,9.809-7.214,4.83-3.812,9.586-7.721,14.295-11.684,2.861-2.408,5.935-.734,8.255,.251,2.516,1.069,4.604,3.724,6.271,6.117,2.449,3.515,2.314,5.589-.564,8.587-4.582,4.772-9.299,9.449-14.296,13.771-4.719,4.081-9.856,7.677-14.853,11.427-.876,.657-1.969,1.021-2.961,1.521" fill="none" stroke="#171313" stroke-linecap="round" stroke-linejoin="round" stroke-width="2"/>
  <path d="M120.297,349.729c2.184,.564,2.639,1.996,2.751,4.192,.536,10.497,1.433,20.975,1.983,31.472,.627,11.98,1.029,23.973,1.503,35.961,.025,.644-.182,1.298-.282,1.947" fill="none" stroke="#171313" stroke-linecap="round" stroke-linejoin="round" stroke-width="2"/>
  <path d="M75.335,332.347c.099,1.798,.276,3.596,.284,5.394,.033,7.392,.116,14.786-.009,22.176-.216,12.788-.642,25.572-.839,38.36-.088,5.691,.211,11.387,.247,17.082,.016,2.596-.179,5.194-.278,7.792" fill="none" stroke="#171313" stroke-linecap="round" stroke-linejoin="round" stroke-width="2"/>
  <path d="M125.955,534.333c.993-.3,2.205-.331,2.943-.941,6.313-5.221,12.559-10.524,18.785-15.851,2.731-2.337,5.292-4.879,8.067-7.159,3.717-3.055,5.708-7.312,7.634-11.453,3.186-6.853-1.951-14.53-9.739-14.906-4.159-.201-8.336-.036-12.504-.036" fill="none" stroke="#171313" stroke-linecap="round" stroke-linejoin="round" stroke-width="2"/>
  <path d="M134.888,424.35c-.298,8.091-.917,16.188-.779,24.272,.091,5.305,2.073,10.638,1.766,15.873-.375,6.393,2.47,11.535,4.399,17.085,1.384,3.984,.694,8.621-1.812,10.498" fill="none" stroke="#171313" stroke-linecap="round" stroke-linejoin="round" stroke-width="2"/>
  <path d="M103.623,340.139c2.352,2.734,.939,6.025,1.077,8.996,.346,7.476,.038,14.98,.138,22.47,.083,6.195,.491,12.386,.539,18.581,.049,6.292-.193,12.586-.247,18.88-.015,1.797-.19,3.722,.361,5.367,.996,2.971,.197,5.519-.974,8.119" fill="none" stroke="#171313" stroke-linecap="round" stroke-linejoin="round" stroke-width="2"/>
  <path d="M62.531,354.823c-3.18,1.112-2.256,4.102-2.603,6.306-.922,5.858-1.507,11.771-2.148,17.67-.466,4.288-.808,8.589-1.205,12.885" fill="none" stroke="#171313" stroke-linecap="round" stroke-linejoin="round" stroke-width="2"/>
  <path d="M56.576,391.984c.099,2.997,.416,6.009,.211,8.984-.112,1.632-1.105,3.203-1.7,4.801" fill="none" stroke="#171313" stroke-linecap="round" stroke-linejoin="round" stroke-width="2"/>
  <path d="M101.092,240.345c-.447,3.996-1.199,7.986-1.266,11.989-.094,5.589,.29,11.188,.538,16.78,.102,2.302,.381,4.596,.58,6.893" fill="none" stroke="#171313" stroke-linecap="round" stroke-linejoin="round" stroke-width="2"/>
  <path d="M100.049,288.294c.099,2.098,.279,4.195,.284,6.293,.028,11.388-.033,22.776,.054,34.163,.017,2.2,.555,4.396,.853,6.593" fill="none" stroke="#171313" stroke-linecap="round" stroke-linejoin="round" stroke-width="2"/>
  <path d="M66.104,335.344c-2.567,2.751-1.691,6.367-2.382,9.59" fill="none" stroke="#171313" stroke-linecap="round" stroke-linejoin="round" stroke-width="2"/>
  <path d="M63.275,355.423c.05,4.495,.275,8.997,.102,13.484-.193,5.003-.804,9.988-1.129,14.987-.364,5.59-.649,11.185-.899,16.782-.335,7.49-.605,14.984-.903,22.476" fill="none" stroke="#171313" stroke-linecap="round" stroke-linejoin="round" stroke-width="2"/>
  <path d="M106.6,426.447c.695,9.59,1.404,19.179,2.062,28.771,.068,.987-.176,1.996-.275,2.995" fill="none" stroke="#171313" stroke-linecap="round" stroke-linejoin="round" stroke-width="2"/>
  <path d="M107.642,463.308c-.149,.499-.298,.999-.447,1.498" fill="none" stroke="#171313" stroke-linecap="round" stroke-linejoin="round" stroke-width="2"/>
  <path d="M105.707,470.8c-1.415,8.316-3.588,16.296-9.826,22.476" fill="none" stroke="#171313" stroke-linecap="round" stroke-linejoin="round" stroke-width="2"/>
  <path d="M147.692,92.602c-1.191-.3-2.612-.279-3.536-.951-6.503-4.729-13.151-9.129-20.874-11.658-4.208-1.378-8.315-3.068-12.534-4.409-1.055-.335-2.362,.135-3.553,.235" fill="none" stroke="#171313" stroke-linecap="round" stroke-linejoin="round" stroke-width="2"/>
  <path d="M102.134,75.22c-6.055,.1-12.116,.055-18.161,.36-3.094,.156-6.29,.544-9.201,1.536-3.807,1.298-7.39,3.273-11.048,5.002-6.086,2.877-11.477,6.717-16.127,11.639-.67,.709-1.94,.842-2.933,1.242" fill="none" stroke="#171313" stroke-linecap="round" stroke-linejoin="round" stroke-width="2"/>
  <path d="M103.027,425.848c-.099,3.097-.292,6.194-.277,9.29,.027,5.594,.168,11.188,.281,16.782,.081,3.996,.137,7.994,.331,11.986,.054,1.111,.558,2.2,.856,3.298" fill="none" stroke="#171313" stroke-linecap="round" stroke-linejoin="round" stroke-width="2"/>
  <path d="M134.59,306.575c.496,.899,1.27,1.748,1.441,2.706,.802,4.476,1.437,8.982,2.132,13.477" fill="none" stroke="#171313" stroke-linecap="round" stroke-linejoin="round" stroke-width="2"/>
  <path d="M143.672,348.23c.347,2.497,.695,4.995,1.042,7.492" fill="none" stroke="#171313" stroke-linecap="round" stroke-linejoin="round" stroke-width="2"/>
  <path d="M145.459,360.817c.347,1.698,.695,3.396,1.042,5.095" fill="none" stroke="#171313" stroke-linecap="round" stroke-linejoin="round" stroke-width="2"/>
  <path d="M147.245,369.807c.149,1.099,.298,2.198,.447,3.297" fill="none" stroke="#171313" stroke-linecap="round" stroke-linejoin="round" stroke-width="2"/>
  <path d="M148.734,388.987c-.248,2.897-1.075,5.887-.633,8.673,1.216,7.67,1.551,15.364,1.687,23.093,.012,.701,.187,1.399,.286,2.098" fill="none" stroke="#171313" stroke-linecap="round" stroke-linejoin="round" stroke-width="2"/>
  <path d="M76.377,288.294c.248,3.297,.663,6.591,.704,9.89,.058,4.693-.125,9.391-.272,14.084-.071,2.278-.213,4.384-1.231,6.702-1.012,2.303-.031,5.485,.048,8.283,.037,1.298,.006,2.597,.006,3.896" fill="none" stroke="#171313" stroke-linecap="round" stroke-linejoin="round" stroke-width="2"/>
  <path d="M139.95,342.536c-2.49,2.298,.075,4.598,.089,6.892,.037,6.095,.395,12.196,.832,18.279,.583,8.1,1.411,16.181,2.039,24.278,.394,5.087,.579,10.19,.921,15.282,.355,5.297,.785,10.589,1.182,15.884" fill="none" stroke="#171313" stroke-linecap="round" stroke-linejoin="round" stroke-width="2"/>
  <path d="M82.183,292.19c.298,2.597,.829,5.192,.853,7.792,.097,10.888,.062,21.777,.002,32.665-.005,.901-.557,1.798-.855,2.697" fill="none" stroke="#171313" stroke-linecap="round" stroke-linejoin="round" stroke-width="2"/>
  <path d="M72.059,280.802c-.397,1.099-1.051,2.175-1.148,3.3-.491,5.686-.745,11.393-1.262,17.076-.465,5.107-1.164,10.192-1.759,15.286" fill="none" stroke="#171313" stroke-linecap="round" stroke-linejoin="round" stroke-width="2"/>
  <path d="M153.498,400.375c-.645-3.496-1.209-7.011-1.997-10.475-.181-.795-1.13-1.413-1.725-2.112" fill="none" stroke="#171313" stroke-linecap="round" stroke-linejoin="round" stroke-width="2"/>
  <path d="M80.397,347.631c-.596,1.099-1.677,2.185-1.706,3.299-.166,6.289-.112,12.585-.067,18.878,.023,3.197,.136,6.396,.322,9.588,.042,.714,.558,1.401,.856,2.1" fill="none" stroke="#171313" stroke-linecap="round" stroke-linejoin="round" stroke-width="2"/>
  <path d="M82.481,298.183c-2.022-.199-2.363,1.187-2.367,2.697-.028,10.489-.039,20.978,.024,31.466,.006,1.001,.557,1.998,.854,2.997" fill="none" stroke="#171313" stroke-linecap="round" stroke-linejoin="round" stroke-width="2"/>
  <path d="M81.141,348.23c.149,2.897,.366,5.792,.433,8.691,.145,6.292,.332,12.588,.239,18.879-.028,1.905-.92,3.797-1.416,5.695" fill="none" stroke="#171313" stroke-linecap="round" stroke-linejoin="round" stroke-width="2"/>
  <path d="M81.141,233.152c.05,13.086,.186,26.173,.105,39.258-.031,5.096-.57,10.189-.82,15.286-.024,.488,.367,.997,.566,1.497" fill="none" stroke="#171313" stroke-linecap="round" stroke-linejoin="round" stroke-width="2"/>
  <path d="M57.767,536.131c-.596,.899-1.049,1.949-1.809,2.674-7.146,6.822-6.523,15.904-1.471,23.102,1.318,1.878,2.585,3.793,3.875,5.691" fill="none" stroke="#171313" stroke-linecap="round" stroke-linejoin="round" stroke-width="2"/>
  <path d="M77.121,427.646c.496,1.998,1.183,3.97,1.45,5.999,.617,4.679,1.141,9.377,1.492,14.083,.275,3.683,.234,7.389,.333,11.086" fill="none" stroke="#171313" stroke-linecap="round" stroke-linejoin="round" stroke-width="2"/>
  <path d="M81.29,462.409c-2.049,10.701-8.225,19.261-14.325,27.847-.55,.775-1.556,1.222-2.35,1.821" fill="none" stroke="#171313" stroke-linecap="round" stroke-linejoin="round" stroke-width="2"/>
  <path d="M80.695,232.853c-.695,1.498-1.81,2.943-2.006,4.505-.61,4.868-.872,9.78-1.269,14.674" fill="none" stroke="#171313" stroke-linecap="round" stroke-linejoin="round" stroke-width="2"/>
  <path d="M103.623,246.039c-.099,3.796-.148,7.594-.309,11.387-.254,5.996-.584,11.988-.882,17.981" fill="none" stroke="#171313" stroke-linecap="round" stroke-linejoin="round" stroke-width="2"/>
  <path d="M51.216,35.962c.298,.3,.824,.574,.86,.903,.965,8.864,2.615,17.697,1.769,26.663-.267,2.828-1.037,5.628-1.811,8.374-.182,.646-1.314,1.021-2.008,1.52" fill="none" stroke="#171313" stroke-linecap="round" stroke-linejoin="round" stroke-width="2"/>
  <path d="M52.109,45.252c-.496,.799-1.396,1.586-1.422,2.4-.14,4.491,.067,8.994-.12,13.481-.104,2.51-.91,4.985-1.079,7.498-.113,1.677,.338,3.392,.536,5.091" fill="none" stroke="#171313" stroke-linecap="round" stroke-linejoin="round" stroke-width="2"/>
  <path d="M42.581,97.996c-1.29,1.798-2.51,3.654-3.895,5.375-.967,1.201-2.159,2.217-3.251,3.316" fill="none" stroke="#171313" stroke-linecap="round" stroke-linejoin="round" stroke-width="2"/>
  <path d="M148.883,121.071c.292-3.313-2.258-4.663-4.5-5.615-8.28-3.518-16.75-4.819-25.267-.658-1.556,.76-3.11,1.631-4.422,2.742-.614,.52-.65,1.733-.947,2.632,.794,.2,1.732,.778,2.358,.537,3.528-1.361,6.134,1.583,9.257,1.824,4.959,.383,9.98,2.708,14.886-.263" fill="none" stroke="#171313" stroke-linecap="round" stroke-linejoin="round" stroke-width="2"/>
  <path d="M143.821,121.371c2.084,.2,4.169,.4,6.253,.599" fill="none" stroke="#171313" stroke-linecap="round" stroke-linejoin="round" stroke-width="2"/>
  <path d="M79.206,120.772c-1.787,.4-4.342,.196-5.211,1.316-2.28,2.94-5.317,2.709-8.191,2.799-3.96,.124-7.95-.188-11.905-.556-3.783-.351-7.539-1.012-11.523-1.567,2.72-4.537,7.013-6.596,11.83-7.626,2.509-.537,5.149-.599,7.729-.593,1.093,.003,2.184,.733,3.276,1.133" fill="none" stroke="#171313" stroke-linecap="round" stroke-linejoin="round" stroke-width="2"/>
  <path d="M150.372,516.052c5.656,5.063,6.924,11.499,5.25,18.554-.468,1.972-2.272,3.623-3.463,5.421" fill="none" stroke="#171313" stroke-linecap="round" stroke-linejoin="round" stroke-width="2"/>
  <path d="M119.702,540.027c3.296,2.837,5.994,6.154,5.271,10.774-.543,3.468-1.923,6.799-2.873,10.208-.299,1.071-.413,2.193-.611,3.292" fill="none" stroke="#171313" stroke-linecap="round" stroke-linejoin="round" stroke-width="2"/>
  <path d="M126.848,267.017c.298,.699,.735,1.372,.872,2.102,1.523,8.085,2.993,16.18,4.499,24.268,.115,.615,.386,1.201,.584,1.8" fill="none" stroke="#171313" stroke-linecap="round" stroke-linejoin="round" stroke-width="2"/>
  <path d="M120,549.617c-1.092,.1-2.183,.277-3.276,.286-4.268,.034-8.537-.046-12.803,.04-2.057,.041-3.803,1.005-3.804,3.271,0,2.287,1.489,3.186,3.805,3.023,6.333-.446,6.331-.395,6.56,5.967,.018,.502,.188,.999,.287,1.499" fill="none" stroke="#171313" stroke-linecap="round" stroke-linejoin="round" stroke-width="2"/>
  <path d="M82.183,392.284c.397,1.199,1.134,2.397,1.136,3.596,.011,7.392-.117,14.785-.28,22.176-.018,.805-.558,1.599-.856,2.398" fill="none" stroke="#171313" stroke-linecap="round" stroke-linejoin="round" stroke-width="2"/>
  <path d="M141.141,121.371c-3.604-4.724-8.575-4.679-13.693-3.868-2.499,.396-5.467-.105-6.853,2.969" fill="none" stroke="#171313" stroke-linecap="round" stroke-linejoin="round" stroke-width="2"/>
  <path d="M50.918,45.851c-2.332-3.216-2.235-6.647-.893-10.189" fill="none" stroke="#171313" stroke-linecap="round" stroke-linejoin="round" stroke-width="2"/>
  <path d="M48.685,28.17c-1.174-4.867-2.833-9.496-6.402-13.186" fill="none" stroke="#171313" stroke-linecap="round" stroke-linejoin="round" stroke-width="2"/>
  <path d="M117.618,569.995c1.489,.799,3.083,1.449,4.447,2.425,4.599,3.287,6.579,7.297,3.912,13.767-.261,.632-.22,1.39-.319,2.089" fill="none" stroke="#171313" stroke-linecap="round" stroke-linejoin="round" stroke-width="2"/>
  <path d="M110.173,572.692c-.695,1.498-1.597,2.938-2.038,4.509-.73,2.602-.925,5.411,1.194,7.426,2.129,2.024,4.76,2.165,7.411,.682,.379-.212,.976-.029,1.473-.029" fill="none" stroke="#171313" stroke-linecap="round" stroke-linejoin="round" stroke-width="2"/>
  <path d="M121.489,328.152c.099,5.894,.246,11.787,.255,17.681,.002,1.098-.553,2.198-.85,3.296" fill="none" stroke="#171313" stroke-linecap="round" stroke-linejoin="round" stroke-width="2"/>
  <path d="M89.925,246.638c.298,.499,.851,.997,.855,1.499,.055,7.492,.038,14.984,.038,22.476" fill="none" stroke="#171313" stroke-linecap="round" stroke-linejoin="round" stroke-width="2"/>
  <path d="M106.6,191.497c-1.787,.999-3.511,2.677-5.373,2.849-3.427,.317-6.954-.103-10.395-.555-.883-.116-1.601-1.496-2.395-2.295,.993-.699,1.943-1.921,2.985-2.005,4.051-.327,8.136-.433,12.198-.293,1.015,.035,1.988,1.299,2.981,1.998" fill="none" stroke="#171313" stroke-linecap="round" stroke-linejoin="round" stroke-width="2"/>
  <path d="M94.392,291.89c-.298,3.097-.807,6.19-.85,9.291-.095,6.791,1.28,13.585-.043,20.378" fill="none" stroke="#171313" stroke-linecap="round" stroke-linejoin="round" stroke-width="2"/>
  <path d="M95.136,232.553c-.149,4.895-.298,9.79-.447,14.684" fill="none" stroke="#171313" stroke-linecap="round" stroke-linejoin="round" stroke-width="2"/>
  <path d="M136.972,494.625c-4.864,4.645-9.627,9.405-14.675,13.837-1,.878-3.091,.497-4.679,.697" fill="none" stroke="#171313" stroke-linecap="round" stroke-linejoin="round" stroke-width="2"/>
  <path d="M113.449,520.248c-4.429-.838-8.802,4.24-8.056,9.293,.204,1.383,.214,2.795,.314,4.193" fill="none" stroke="#171313" stroke-linecap="round" stroke-linejoin="round" stroke-width="2"/>
  <path d="M108.387,227.159c-.199,4.295-.364,8.593-.608,12.886-.147,2.585-.391,5.18-3.859,5.395" fill="none" stroke="#171313" stroke-linecap="round" stroke-linejoin="round" stroke-width="2"/>
  <path d="M78.015,120.172c-2.666-3.997-6.664-4.687-11.017-4.495" fill="none" stroke="#171313" stroke-linecap="round" stroke-linejoin="round" stroke-width="2"/>
  <path d="M63.722,118.224c-4.069,.849-8.156,1.626-12.195,2.604-.886,.214-1.602,1.142-2.396,1.742" fill="none" stroke="#171313" stroke-linecap="round" stroke-linejoin="round" stroke-width="2"/>
  <path d="M54.491,407.268c-.695,.799-1.885,1.531-2.002,2.409-.666,4.972-1.075,9.978-1.571,14.973" fill="none" stroke="#171313" stroke-linecap="round" stroke-linejoin="round" stroke-width="2"/>
  <path d="M86.352,550.216c-.199,7.043-.397,14.085-.596,21.128" fill="none" stroke="#171313" stroke-linecap="round" stroke-linejoin="round" stroke-width="2"/>
  <path d="M98.858,227.009c3.498-.81,5.852,.875,5.941,4.346,.069,2.695-.121,5.403,.066,8.087,.106,1.519,.742,3.001,1.139,4.499" fill="none" stroke="#171313" stroke-linecap="round" stroke-linejoin="round" stroke-width="2"/>
  <path d="M114.64,239.146c-.199,2.597-.493,5.192-.571,7.792-.1,3.293,.153,6.608-.133,9.879-.084,.962-1.479,1.808-2.273,2.707" fill="none" stroke="#171313" stroke-linecap="round" stroke-linejoin="round" stroke-width="2"/>
  <path d="M106.898,249.935c.145,4.997-1.23,10.055,.596,14.984" fill="none" stroke="#171313" stroke-linecap="round" stroke-linejoin="round" stroke-width="2"/>
  <path d="M86.948,534.333v14.984" fill="none" stroke="#171313" stroke-linecap="round" stroke-linejoin="round" stroke-width="2"/>
  <path d="M137.27,103.99c-.893-.699-1.787-1.399-2.68-2.098-.596,.899-1.486,1.74-1.675,2.719-.112,.58,.753,1.794,1.402,1.997,1.855,.578,2.642-.851,3.251-2.318" fill="none" stroke="#171313" stroke-linecap="round" stroke-linejoin="round" stroke-width="2"/>
  <path d="M79.652,393.183c.149,5.594,.509,11.193,.376,16.781-.096,4.061-.522,8.083,.964,11.989" fill="none" stroke="#171313" stroke-linecap="round" stroke-linejoin="round" stroke-width="2"/>
  <path d="M136.675,146.245c.742-.862,1.483-1.723,2.191-2.546-1.915-2.696-3.536-3.038-4.853-1.038-1.891,2.871,.897,3.002,2.364,3.884" fill="none" stroke="#171313" stroke-linecap="round" stroke-linejoin="round" stroke-width="2"/>
  <path d="M109.28,264.919c-1.882-.074-3.173,.138-2.466,2.72,.374,1.367,.133,3.045-.27,4.456-.661,2.313-.012,4.186,1.247,6.01" fill="none" stroke="#171313" stroke-linecap="round" stroke-linejoin="round" stroke-width="2"/>
  <path d="M98.561,96.498c.165-1.609-.842-2.278-2.039-1.702-.832,.4-1.76,1.754-1.679,2.586,.075,.77,1.435,1.414,2.229,2.113l1.489-2.697" fill="none" stroke="#171313" stroke-linecap="round" stroke-linejoin="round" stroke-width="2"/>
  <path d="M67.593,532.535c.397-1.498,.798-2.996,1.19-4.495,1.504-5.74-2.046-9.445-7.744-8.103-.376,.089-.791,.012-1.188,.012" fill="none" stroke="#171313" stroke-linecap="round" stroke-linejoin="round" stroke-width="2"/>
  <path d="M88.139,504.964c3.466,5.243,6.061,5.656,11.315,1.798" fill="none" stroke="#171313" stroke-linecap="round" stroke-linejoin="round" stroke-width="2"/>
  <path d="M61.935,103.091c-.496,.499-.959,1.039-1.496,1.49-1.219,1.025-1.322,2.164,.044,2.938,.678,.384,2.356,.362,2.525,.01,.447-.93,.436-2.15,.356-3.235-.032-.427-.734-.804-1.131-1.203" fill="none" stroke="#171313" stroke-linecap="round" stroke-linejoin="round" stroke-width="2"/>
  <path d="M96.476,256.228c.099,3.696,.255,7.393,.218,11.087-.004,.406-1.111,.8-1.707,1.2" fill="none" stroke="#171313" stroke-linecap="round" stroke-linejoin="round" stroke-width="2"/>
  <path d="M70.273,556.509c-.695-.2-1.444-.294-2.073-.621-1.283-.669-2.502-1.463-3.747-2.205l.454-1.069h12.214" fill="none" stroke="#171313" stroke-linecap="round" stroke-linejoin="round" stroke-width="2"/>
  <path d="M55.682,398.577c-1.83,1.709-1.473,3.792-1.235,5.998,.537,4.979,.836,9.985,1.237,14.979,.088,1.1,.197,2.198,.296,3.297" fill="none" stroke="#171313" stroke-linecap="round" stroke-linejoin="round" stroke-width="2"/>
  <path d="M62.531,145.945l1.787-2.697c-.893-.599-1.743-1.551-2.696-1.671-.61-.077-1.374,1.072-2.069,1.671,.893,.899,1.787,1.798,2.68,2.697" fill="none" stroke="#171313" stroke-linecap="round" stroke-linejoin="round" stroke-width="2"/>
  <path d="M68.486,317.363c1.148,5.119,.685,10.108-1.191,14.984" fill="none" stroke="#171313" stroke-linecap="round" stroke-linejoin="round" stroke-width="2"/>
  <path d="M70.868,539.727c-.099,2.897-.199,5.794-.298,8.691" fill="none" stroke="#171313" stroke-linecap="round" stroke-linejoin="round" stroke-width="2"/>
  <path d="M65.806,117.475c2.68,1.399,5.36,2.797,8.04,4.196" fill="none" stroke="#171313" stroke-linecap="round" stroke-linejoin="round" stroke-width="2"/>
  <path d="M67.295,317.063c-.596,4.595-1.203,9.189-1.757,13.789-.033,.271,.367,.596,.566,.895" fill="none" stroke="#171313" stroke-linecap="round" stroke-linejoin="round" stroke-width="2"/>
  <path d="M118.213,555.91c-2.581,.1-5.161,.2-7.742,.3" fill="none" stroke="#171313" stroke-linecap="round" stroke-linejoin="round" stroke-width="2"/>
  <path d="M110.769,541.525c-.099,2.497-.199,4.995-.298,7.492" fill="none" stroke="#171313" stroke-linecap="round" stroke-linejoin="round" stroke-width="2"/>
  <path d="M76.824,557.109c-1.205-2.464-3.388-.871-5.078-1.052-.495-.053-1.552,1.595-1.696,2.562-.336,2.262-.274,4.584-.373,6.881" fill="none" stroke="#171313" stroke-linecap="round" stroke-linejoin="round" stroke-width="2"/>
  <path d="M76.824,548.717c-1.985,0-4.01,.255-5.947-.054-3.895-.62-4.08-.614-5.07,3.35" fill="none" stroke="#171313" stroke-linecap="round" stroke-linejoin="round" stroke-width="2"/>
  <path d="M142.63,23.375c-.099,2.198-.199,4.395-.298,6.593" fill="none" stroke="#171313" stroke-linecap="round" stroke-linejoin="round" stroke-width="2"/>
  <path d="M105.707,508.26c1.787,.1,3.578,.153,5.358,.321,.806,.076,1.586,.397,2.385,.574,.988,.219,2.294,.872,2.889,.472,.596-.4,.484-1.866,.683-2.865" fill="none" stroke="#171313" stroke-linecap="round" stroke-linejoin="round" stroke-width="2"/>
  <path d="M150.074,15.583c2.912,.207,2.458,3.037,3.573,4.645" fill="none" stroke="#171313" stroke-linecap="round" stroke-linejoin="round" stroke-width="2"/>
  <path d="M157.22,422.252c-1.489,.499-2.99,.965-4.459,1.519-.446,.168-.802,.579-1.199,.879" fill="none" stroke="#171313" stroke-linecap="round" stroke-linejoin="round" stroke-width="2"/>
  <path d="M74.441,500.169c.397,1.998,.794,3.996,1.191,5.994" fill="none" stroke="#171313" stroke-linecap="round" stroke-linejoin="round" stroke-width="2"/>
  <path d="M168.536,93.8c1.392,1.998,1.392,3.996,0,5.994" fill="none" stroke="#171313" stroke-linecap="round" stroke-linejoin="round" stroke-width="2"/>
  <path d="M136.079,471.999c-.695,1.598-1.39,3.197-2.084,4.795" fill="none" stroke="#171313" stroke-linecap="round" stroke-linejoin="round" stroke-width="2"/>
  <path d="M98.858,504.964c1.668,3.335,4.229,4.508,6.545,2.988,.045-.03,.041-.212-.002-.286-.069-.118-.19-.205-.29-.304" fill="none" stroke="#171313" stroke-linecap="round" stroke-linejoin="round" stroke-width="2"/>
  <path d="M80.992,292.789v5.394" fill="none" stroke="#171313" stroke-linecap="round" stroke-linejoin="round" stroke-width="2"/>
  <path d="M103.623,422.551c-1.583,.897-2.93,1.47-5.096,1.097-3.245-.56-6.723,.429-10.088,.321-2.197-.071-4.37-.918-6.553-1.418" fill="none" stroke="#171313" stroke-linecap="round" stroke-linejoin="round" stroke-width="2"/>
  <path d="M80.099,422.551c-2.372,2.492-5.408,.9-8.048,1.059-6.923,.415-13.887,.14-20.835,.14" fill="none" stroke="#171313" stroke-linecap="round" stroke-linejoin="round" stroke-width="2"/>
  <path d="M104.516,227.159c3.269-1.258,6.203-.498,8.933,1.498" fill="none" stroke="#171313" stroke-linecap="round" stroke-linejoin="round" stroke-width="2"/>
  <path d="M67.891,501.967c.496,1.498,.993,2.997,1.489,4.495" fill="none" stroke="#171313" stroke-linecap="round" stroke-linejoin="round" stroke-width="2"/>
  <path d="M79.504,549.617h7.146" fill="none" stroke="#171313" stroke-linecap="round" stroke-linejoin="round" stroke-width="2"/>
  <path d="M58.958,498.671c2.188,1.877,5.533,2.945,4.764,6.893" fill="none" stroke="#171313" stroke-linecap="round" stroke-linejoin="round" stroke-width="2"/>
  <path d="M111.96,230.455c-1.775,3.546-1.21,4.682,2.382,4.795" fill="none" stroke="#171313" stroke-linecap="round" stroke-linejoin="round" stroke-width="2"/>
  <path d="M106.6,245.14c.099,.2,.329,.445,.278,.593-.974,2.861,.474,4.166,2.997,4.802" fill="none" stroke="#171313" stroke-linecap="round" stroke-linejoin="round" stroke-width="2"/>
  <path d="M64.615,552.913c-3.375-.1-6.749-.2-10.124-.3" fill="none" stroke="#171313" stroke-linecap="round" stroke-linejoin="round" stroke-width="2"/>
  <path d="M62.233,494.475c-1.39,1.299-2.689,2.715-4.188,3.87-2.698,2.078-3.705,4.559-2.362,7.818" fill="none" stroke="#171313" stroke-linecap="round" stroke-linejoin="round" stroke-width="2"/>
  <path d="M90.819,500.469c1.516,2.389,4.041,.712,5.955,1.498" fill="none" stroke="#171313" stroke-linecap="round" stroke-linejoin="round" stroke-width="2"/>
  <path d="M114.044,423.151h8.04" fill="none" stroke="#171313" stroke-linecap="round" stroke-linejoin="round" stroke-width="2"/>
  <path d="M40.198,554.711l-1.787,3.596" fill="none" stroke="#171313" stroke-linecap="round" stroke-linejoin="round" stroke-width="2"/>
  <path d="M79.206,412.662c-1.191,.1-2.382,.2-3.573,.3" fill="none" stroke="#171313" stroke-linecap="round" stroke-linejoin="round" stroke-width="2"/>
  <path d="M40.198,569.096c-.099,1.199-.199,2.397-.298,3.596" fill="none" stroke="#171313" stroke-linecap="round" stroke-linejoin="round" stroke-width="2"/>
  <path d="M111.662,238.547c1.092,.1,2.184,.2,3.275,.3" fill="none" stroke="#171313" stroke-linecap="round" stroke-linejoin="round" stroke-width="2"/>
  <path d="M15.93,143.548c.05,.599,.099,1.199,.149,1.798" fill="none" stroke="#171313" stroke-linecap="round" stroke-linejoin="round" stroke-width="2"/>
  <path d="M104.516,467.953l.893,.45" fill="none" stroke="#171313" stroke-linecap="round" stroke-linejoin="round" stroke-width="2"/>
  <line x1="118.891" y1="253.811" x2="117.915" y2="232.553" fill="none" stroke="#e6e4db" stroke-miterlimit="10"/>
  <line x1="106.247" y1="231.115" x2="105.305" y2="267.602" fill="none" stroke="#e6e4db" stroke-miterlimit="10"/>
  <line x1="108.841" y1="234.617" x2="108.589" y2="275.195" fill="none" stroke="#e6e4db" stroke-miterlimit="10"/>
  <line x1="112.939" y1="233.103" x2="111.662" y2="268.985" fill="none" stroke="#e6e4db" stroke-miterlimit="10"/>
</svg>