<?xml version="1.0" encoding="UTF-8"?>
<svg id="a" data-name="Layer 1" xmlns="http://www.w3.org/2000/svg" width="1.958in" height="6.612in" viewBox="0 0 141.004 476.075">
  <path d="M111.854,370.44c1.601-3.977,2.989-7.348,4.318-10.742,3.184-8.13,6.076-16.387,9.598-24.367,2.569-5.823,3.169-11.814,3.342-17.984,.03-1.059,.233-2.113,.449-3.97,1.624,4.056,2.925,7.304,4.583,11.444,.374-1.794,.759-2.829,.78-3.873,.229-11.078,.286-22.162,.627-33.236,.237-7.678,1.061-15.34,1.231-23.017,.221-9.969,.062-19.946,.046-29.92-.005-2.898-.192-5.801-.053-8.69,.041-.859,.906-1.679,1.393-2.518,.783,.841,2.106,1.604,2.243,2.54,.358,2.451,.278,4.978,.229,7.473-.106,5.387-.321,10.772-.444,16.158-.02,.873,.201,1.752,.311,2.629,.16,1.274,.685,2.628,.426,3.811-2.882,13.183-1.294,26.567-1.943,39.846-.368,7.529-1.21,15.04-1.434,22.57-.137,4.616,.519,9.254,.766,13.885,.106,1.99,.083,3.987,.104,5.981,.06,5.646,.246,11.295,.131,16.938-.123,6.026-.532,12.046-.822,18.069-.009,.196-.13,.392-.122,.584,.359,8.434,.753,16.866,1.069,25.301,.061,1.623-.164,3.259-.352,4.878-.006,.056-1.439,.175-1.544-.048-.673-1.427-1.631-2.939-1.638-4.427-.094-19.291-.035-38.582-.047-57.873,0-1.421-.24-2.841-.463-5.298-.935,1.384-1.368,1.77-1.484,2.235-2.689,10.782-5.262,21.593-8.033,32.354-1.704,6.617-3.788,13.137-5.498,19.753-.378,1.464-.214,3.248,.24,4.717,2.612,8.444,5.578,16.783,8.046,25.267,1.941,6.675,3.32,13.513,4.978,20.271,1.868,7.612,3.798,15.209,5.64,22.827,.702,2.902,1.428,5.824,1.741,8.779,.109,1.03-.99,2.187-1.537,3.287-1.135-.615-2.786-.946-3.311-1.897-1.772-3.213-3.136-6.65-4.672-9.994-2.296-4.999-4.604-9.992-6.908-14.988l-1.425,.106c0,2.527-.058,5.055,.014,7.58,.111,3.888,.354,7.773,.458,11.661,.07,2.622-1.458,3.812-3.934,3.866-4.497,.099-8.998,.062-13.493,.21-10.079,.333-20.154,.963-30.234,1.053-7.456,.066-14.915-.645-22.377-.794-6.258-.125-12.524,.017-18.784,.132-3.182,.058-6.626-.584-8.829,2.817-.193,.298-1.878,.18-1.999-.11-1.929-4.611-5.928-3.036-9.054-2.705-5.409,.573-6.582-.478-5.979-5.893,.405-3.642,.092-7.362,.162-11.046,.011-.608,.337-1.209,.517-1.813,.412,.011,.824,.022,1.236,.033,0,2.273,.004,4.546,0,6.819-.022,10.839-.456,8.058,8.635,8.769,3.172,.248,6.554-3.501,5.995-6.57-.114-.625-1.514-1.34-2.39-1.445-4.082-.489-4.656-1.685-4.339-5.668,.523-6.555,.668-13.163,.57-19.742-.361-24.242-.957-48.481-1.327-72.723-.248-16.264-.041-32.536-.451-48.795-.344-13.655-1.305-27.295-1.938-40.944-.087-1.87-.806-2.169-2.617-2.204-1.48-.029-2.938-1.191-4.406-1.851,1.262-.887,2.408-2.2,3.808-2.585,5.164-1.418,10.371-2.768,15.643-3.673,3.596-.617,7.383-.937,10.983-.517,5.165,.603,7.508,7.371,5.12,13.192-.775,1.889-1.257,3.967-1.481,6.002-.773,7.008-2.044,14.053-1.865,21.051,.21,8.221,2.108,16.287,5.143,24.075,1.94,4.978,3.63,10.188,4.419,15.446,.912,6.077-1.652,11.659-4.429,17.03-.599,1.16-.451,2.706-.647,4.074,1.141-.403,2.371-.649,3.41-1.234,6.927-3.901,10.413-10.499,12.062-17.717,1.537-6.73,2.535-13.863,2.014-20.685-.347-4.545-1.599-8.977,.193-13.332,1.382-3.358,2.788-7.088,5.31-9.449,1.495-1.4,5.42-1.211,7.826-.427,5.461,1.779,10.61,4.49,15.981,6.579,2.951,1.148,6.233,1.486,9.123,2.746,5.974,2.605,11.836,5.486,17.602,8.524,.775,.408,1.415,2.799,.951,3.565-5.092,8.406-5.111,18.311-8.014,27.359-1.83,5.702-.462,12.434-.484,18.704-.001,.299,.432,.599,1.338,1.772Zm-78.176,74.309c.321,.049,.643,.098,.964,.147,.999-2.627,2.032-5.242,2.989-7.884,2.134-5.891,4.158-11.823,6.359-17.689,2.594-6.913,5.494-13.715,7.948-20.675,1.873-5.311,3.1-10.847,4.9-16.186,2.403-7.128,5.137-14.143,7.628-21.243,1.905-5.43,3.744-10.888,5.444-16.385,1.732-5.599,3.38-11.232,4.814-16.913,.578-2.291,.621-4.848,3.648-5.001,2.994-.15,3.887,2.393,4.748,4.613,3.155,8.131,6.309,16.264,9.319,24.449,2.567,6.98,4.952,14.028,7.389,21.056,1.817,5.242,3.574,10.506,5.384,15.751,1.709,4.951,3.399,9.909,5.196,14.828,1.633,4.469,3.267,8.945,5.138,13.316,2.255,5.266,4.877,10.376,7.122,15.646,1.798,4.221,3.271,8.58,4.888,12.878,.83-1.028,1.109-2.036,.922-2.949-.479-2.334-1.176-4.622-1.768-6.934-1.11-4.333-2.061-8.712-3.342-12.994-2.332-7.795-4.842-15.537-7.307-23.292-1.743-5.482-3.301-11.039-5.363-16.401-2.778-7.222-5.657-14.343-7.124-22.029-.998-5.229-3.025-10.272-4.725-15.354-1.729-5.167-3.723-10.246-5.418-15.424-1.668-5.096-2.978-10.311-4.725-15.378-.503-1.459-1.743-2.957-3.056-3.779-2.331-1.459-4.989-2.389-7.489-3.586-4.759-2.278-8.796-.631-9.727,4.532-.932,5.169-1.51,10.46-1.613,15.709-.183,9.327-2.626,18.096-5.965,26.636-2.223,5.686-5.195,11.076-7.525,16.726-1.009,2.447-1.135,5.245-1.856,7.829-1.708,6.121-3.531,12.209-5.31,18.31-2.221,7.617-4.481,15.222-6.657,22.851-1.99,6.976-3.936,13.964-5.784,20.978-.316,1.2-.045,2.555-.045,3.838Zm-6.363-140.569h-.104c0-10.385,.012-20.77-.006-31.155-.006-3.604-.784-4.163-4.259-3.125-1.339,.4-2.748,.727-3.936,1.414-.813,.47-1.773,1.464-1.844,2.295-.23,2.669-.207,5.379-.051,8.059,.588,10.052,1.702,20.093,1.824,30.148,.268,22.166-.038,44.339,.069,66.507,.059,12.254,.416,24.508,.766,36.759,.189,6.617,.757,13.223,.95,19.839,.199,6.786,.059,13.582,.308,20.365,.037,1.01,1.414,2.785,2.144,2.771,1.215-.024,3.177-.973,3.474-1.945,1.157-3.792,2.421-7.735,2.496-11.643,.322-16.772,.469-33.555,.198-50.326-.133-8.216-1.822-16.408-1.931-24.622-.287-21.777-.098-43.56-.098-65.341Zm2.763,165.312c1.048,.099,1.827,.229,2.608,.238,11.988,.144,23.976,.403,35.964,.373,15.889-.04,31.777-.393,47.666-.402,3.043-.002,4.164-.973,4.153-3.903-.024-6.596,.132-13.192,.113-19.788-.006-2.085,.089-4.32-.589-6.227-2.394-6.728-5.092-13.349-7.717-19.995-.221-.561-.757-.997-1.821-2.347-.313,2.329-.674,3.716-.658,5.099,.133,11.288,.209,22.579,.602,33.858,.105,3.023-1.038,3.963-3.681,4.04-6.783,.197-13.564,.513-20.349,.598-15.944,.2-31.892,.16-47.833,.484-8.052,.163-5.773-.225-8.458,7.971Zm4.601-11.666c4.419,0,8.693,.027,12.967-.005,18.683-.141,37.366-.417,56.047-.346,3.578,.014,4.331-1.042,4.293-4.356-.141-12.166,.047-24.335-.002-36.503-.011-2.863,0-5.864-.81-8.556-1.714-5.692-3.963-11.223-5.997-16.819-.757-2.082-1.53-4.159-2.296-6.239-.303,.025-.607,.051-.91,.076-.134,1.292-.388,2.584-.384,3.875,.054,16.988,.111,33.976,.255,50.963,.025,2.91,.46,5.816,.744,9.175-.379,.085-1.296,.454-2.22,.472-17.948,.344-35.896,.786-53.845,.89-7.086,.041-6.419,.585-7.842,7.372Zm-2.989-27.489c.222,.018,.445,.035,.667,.053,.268-.573,.625-1.121,.788-1.723,1.376-5.077,2.764-10.151,4.047-15.251,.726-2.885,1.8-5.824,1.765-8.727-.069-5.727-1.036-11.439-1.209-17.17-.332-10.978-.243-21.968-.595-32.945-.124-3.859-1.424-7.685-1.499-11.54-.236-11.985-.112-23.976-.184-35.965-.071-11.78-.147-23.562-.419-35.339-.027-1.168-1.383-3.222-2.22-3.273-2.073-.126-3.697,.944-3.63,3.653,.127,5.187-.035,10.38-.032,15.57,.015,24.572,.035,49.145,.081,73.717,.009,4.691-.043,9.395,.263,14.071,.406,6.207,1.487,12.383,1.649,18.589,.29,11.077,.099,22.166,.142,33.25,.004,1.01,.251,2.02,.386,3.029Zm15.325-8.453c-1.25,3.779-2.207,6.846-3.283,9.871-.977,2.746,.346,3.366,2.744,3.314,3.995-.087,7.991-.119,11.987-.103,7.992,.032,15.984,.09,23.975,.186,2.542,.031,3.91-.646,3.553-3.649-.457-3.851-.718-7.761-.625-11.635,.218-9.07,.86-18.13,1.019-27.2,.127-7.252-.199-14.512-.337-21.768-.051-2.68-.301-5.367-.176-8.037,.381-8.13-.487-16.027-3.713-23.588-.823-1.93-1.367-3.979-2.04-5.973-.452-.054-.903-.108-1.355-.162-.548,1.918-1.616,3.857-1.539,5.75,.183,4.521,1.217,9.012,1.35,13.531,.335,11.377,.532,22.765,.462,34.146-.069,11.279-.551,22.556-.815,33.835-.132,5.64-.656,6.146-6.308,6.126-5.592-.02-11.189-.066-16.772,.173-1.173,.05-2.319,1.254-3.429,1.998-.444,.298-.758,.791-1.131,1.195-.459-.451-1.126-.821-1.339-1.368-.724-1.86-1.288-3.782-2.229-6.641Zm44.241-62.595c-.566,.029-1.131,.059-1.697,.088-.196,1.112-.562,2.225-.559,3.336,.01,4.292,.276,8.586,.198,12.874-.266,14.566-.759,29.128-.906,43.694-.054,5.275,.612,10.558,.967,15.836,.184,2.738-.93,3.961-3.743,3.343-.58-.127-1.19-.181-1.784-.17-12.183,.229-24.366,.484-36.55,.707-4.775,.087-7.599,2.531-8.8,8.004,1.281,.128,2.523,.371,3.763,.359,10.493-.106,20.985-.286,31.478-.386,5.979-.057,11.96-.097,17.937,.037,2.726,.061,3.869-1.082,3.845-3.686-.009-.999,.055-1.998,.059-2.997,.085-19.075,.601-38.163,.039-57.22-.235-7.974-2.761-15.881-4.246-23.818Zm-35.456,42.381c-.295-.012-.589-.025-.884-.037-1.488,4.955-3.748,9.83-4.268,14.885-.64,6.223,.629,7.294,5.565,7.309,5.275,.017,10.562-.223,15.816-.673,1.139-.098,3.01-1.486,3.101-2.42,.728-7.476,1.592-14.992,1.5-22.485-.211-17.164-.93-34.321-1.486-51.48-.03-.941-.454-1.869-.695-2.803-.426-.023-.851-.046-1.277-.069-1.471,6.099-4.038,12.168-4.205,18.302-.482,17.76-.011,35.546,.124,53.322,.013,1.694-.135,3.023-2.295,2.985-2.895-.05-5.803,.094-8.677-.16-.698-.062-1.816-1.339-1.84-2.085-.127-4.08,.059-8.168,.059-12.253,0-.779-.351-1.558-.539-2.337Zm49.219-52.451c.614-1.008,1.095-1.521,1.27-2.124,2.12-7.322,4.28-14.634,6.185-22.012,.277-1.074-.356-3.159-1.197-3.616-4.344-2.358-8.848-4.447-13.405-6.373-1.086-.459-2.587,.062-3.897,.133,.178,1.341,.146,2.753,.572,4.01,1.713,5.06,3.591,10.064,5.361,15.105,1.663,4.738,3.266,9.497,5.111,14.877Zm-38.811,20.997c-.322-.043-.644-.086-.966-.129-1.166,3.95-2.214,7.941-3.528,11.841-1.77,5.255-3.904,10.345-3.556,16.128,.305,5.065,.158,10.168-.018,15.247-.087,2.521,1.057,3.335,3.221,2.968,1.972-.334,5.164,1.578,5.146-2.796-.057-13.374,.021-26.749,.019-40.124,0-1.045-.207-2.091-.318-3.136Zm-26.748-8.499c.405,.011,.809,.021,1.214,.032,1.718-4.6,3.454-9.193,5.142-13.803,.487-1.329,1.463-2.88,1.145-4.035-1.706-6.199-3.711-12.318-5.696-18.438-.707-2.18-1.649-4.285-2.484-6.424-.439,.066-.877,.132-1.316,.199,.665,14.156,1.33,28.313,1.996,42.469Zm.707,3.848v30.506c1.658-2.65,2.774-5.315,3.515-8.082,1.358-5.073,2.6-10.183,3.646-15.328,.243-1.193-.062-3.111-.871-3.776-1.639-1.347-3.795-2.065-6.29-3.321Zm77.989,18.281c3.433-16.116,9.307-30.998,12.043-46.742-2.24,4.388-3.915,8.948-5.588,13.509-2.494,6.794-5.023,13.576-7.466,20.388-1.45,4.044-4.539,8.163,1.011,12.845Zm-80.654-104.499l1.43,.05c.569-3.527,1.171-7.05,1.65-10.59,.041-.306-.769-1.055-1.117-1.015-.679,.078-1.864,.547-1.878,.891-.139,3.55-.085,7.108-.085,10.664Zm-4.206,167.778c-.391-.062-.782-.125-1.173-.187-.083,.997-.167,1.994-.25,2.991,.314,.04,.627,.081,.941,.121,.161-.975,.322-1.951,.482-2.926Zm55.482-91.555c-.34-.169-.555-.315-.789-.362-.057-.011-.29,.341-.249,.46,.081,.235,.297,.424,.457,.632,.162-.203,.324-.407,.582-.73Zm42.788-22.998c.156,.108,.277,.204,.412,.271,.019,.01,.168-.14,.155-.186-.041-.145-.132-.276-.204-.413-.116,.104-.231,.209-.363,.328Z" fill="#171313"/>
  <path d="M116.798,293.97c0-4.868-.151-9.015,.032-13.148,.352-7.932,1.189-15.853,1.244-23.783,.033-4.74-1.276-9.473-1.549-14.234-.326-5.682-.046-11.397-.278-17.087-.608-14.851-1.525-29.691-1.966-44.546-.204-6.876,.504-13.775,.62-20.666,.067-3.978-.256-7.962-.339-11.945-.151-7.192-.319-14.386-.363-21.579-.074-11.882,.201-23.773-.137-35.646-.472-16.557-1.315-33.104-2.113-49.651-.556-11.523-1.361-23.033-1.916-34.556-.113-2.355-.935-3.076-3.25-3.059-29.692,.224-59.385,.337-89.077,.571-4.159,.033-8.338,.387-12.454,.971-1.02,.145-2.588,1.75-2.614,2.719-.203,7.391-.077,14.791-.07,22.188,.006,7.179-.116,14.36,.015,21.536,.176,9.653,.782,19.305,.739,28.955-.029,6.588-.851,13.172-1.318,19.758-.341,.011-.683,.023-1.024,.034-.146-1.069-.414-2.137-.42-3.206-.121-22.486-.214-44.973-.309-67.46-.033-7.897,.049-15.796-.136-23.689C.035,3.142,1.044,1.879,4.55,1.924c12.192,.157,24.391,.148,36.583-.065,13.556-.236,27.106-.784,40.66-1.159C91.458,.433,101.125,.216,110.792,.002c2.815-.062,3.774,1.545,2.511,4.059-.351,.699-.896,1.459-.863,2.169,.383,8.25,.851,16.496,1.319,24.741,.113,1.992,.322,3.978,.463,5.969,.654,9.215,1.557,18.421,1.881,27.647,.362,10.276,.168,20.571,.265,30.857,.183,19.388,.461,38.776,.576,58.165,.047,7.843-.236,15.688-.347,23.533-.017,1.196-.188,2.492,.191,3.574,1.232,3.524,1.3,6.751-.207,10.376-.793,1.908,.472,4.604,.551,6.953,.578,17.14,1.027,34.285,1.652,51.423,.293,8.04,1.161,16.067,1.242,24.105,.051,5.014-1.292,10.041-1.263,15.058,.032,5.624,.771,11.266,5,15.705,1.5,1.574,2.852,3.304,4.135,5.062,.5,.685,.625,1.644,.177,2.944-2.394-2.303-4.778-4.616-7.184-6.907-4.719-4.495-9.603-8.831-14.103-13.535-1.935-2.022-3.423-4.654-4.528-7.257-5.427-12.779-12.992-24.315-20.084-36.169-3.837-6.413-8.28-11.999-13.639-17.021-.427-.4-.941-.834-1.483-.963-3.838-.909-7.665-2.292-11.55-2.501-15.359-.825-30.738-1.288-46.111-1.852-2.796-.103-3.843,1.397-3.797,4.136,.198,11.877,.252,23.756,.439,35.633,.237,15.038,.59,30.074,.805,45.113,.05,3.503-.255,7.01-.397,10.516-.422,.031-.844,.062-1.266,.093-.275-.924-.795-1.849-.79-2.772,.078-13.888,.365-27.777,.284-41.664-.031-5.344-.869-10.683-1.325-16.025-.118-1.386-.234-2.775-.257-4.165-.261-15.692-.365-31.388-.818-47.074-.194-6.733-1.401-13.436-1.618-20.17-.319-9.886-.278-19.789-.182-29.683,.129-13.256,.464-26.511,.695-39.766,.04-2.311,.006-4.624,.454-6.941,.37,7.726,.768,15.451,1.103,23.178,.289,6.675,.569,13.351,.723,20.03,.053,2.28-.38,4.568-.431,6.855-.276,12.286-1.441,24.655-.369,36.826,.585,6.639,1.737,13.308,2.053,20.049,.037,.789,1.88,2.195,2.759,2.103,2.102-.22,5.371,.778,5.504-2.959,.167-4.684,.044-9.379,.038-14.069-.024-17.384-.071-34.767-.068-52.151,0-6.988,1.211-14.187-.073-20.919-2.408-12.623-1.869-25.234-1.863-37.872,.003-6.658,.645-13.317,1.055-19.972,.222-3.6,.569-7.191,.844-10.788,.03-.392,.045-.82-.077-1.183-3.508-10.417-1.58-21.189-2.09-31.8-.23-4.774-.489-9.55-.559-14.328-.044-3.004,2.141-3.808,4.636-3.81,5.498-.004,10.995,.156,16.493,.173,11.069,.034,22.139-.117,33.205,.065,8.781,.144,17.553,.737,26.334,.983,2.575,.072,5.175-.272,7.744-.583,3.114-.377,4.541,1.141,4.635,4.022,.263,7.989,.356,15.983,.645,23.97,.469,12.961,1.123,25.916,1.542,38.878,.316,9.787,.499,19.58,.543,29.372,.074,16.691-.239,33.388,.069,50.074,.16,8.657,1.809,17.29,1.907,25.944,.295,26.084,.088,52.174,.235,78.26,.042,7.451,.588,14.9,.963,22.348,.207,4.117,3.237,5.828,7.678,7.902Zm-41.015-61.979c-.043,.414-.087,.828-.13,1.242,4.142,4.642,7.244,10.832,15.415,9.011,3.019-.673,3.987,1.756,4.096,4.277,.168,3.893,.068,7.798,.244,11.69,.07,1.552,.291,3.213,.935,4.597,1.209,2.6,2.819,5.011,4.18,7.544,1.474,2.745,2.855,5.54,4.277,8.313l.902-.09c.162-1.69,.479-3.381,.462-5.068-.145-13.881-.44-27.761-.51-41.642-.046-9.084,.45-18.175,.261-27.253-.243-11.66-1.172-23.307-1.371-34.967-.364-21.381-.37-42.767-.608-64.151-.092-8.286-.3-16.574-.651-24.853-.525-12.349-1.263-24.689-1.835-37.036-.359-7.752-.674-15.509-.818-23.268-.059-3.175-1.627-3.739-4.376-3.719-13.794,.104-27.59,.06-41.385,.084-12.796,.022-25.593,.128-38.389,.051-2.9-.017-3.894,.999-3.735,3.865,.188,3.384-.134,6.793-.026,10.184,.464,14.562,1.13,29.119,1.459,43.684,.143,6.338-.464,12.69-.526,19.037-.096,9.923-.074,19.849,.021,29.773,.027,2.839,.658,5.671,.704,8.511,.207,12.686,.368,25.374,.421,38.061,.062,14.685,.101,29.373-.059,44.057-.09,8.263-.282,8.192,7.512,7.926,2.277-.078,2.878-1.022,2.871-3.13-.037-11.592,.03-23.185,.047-34.778,.004-2.558,.095-5.128-.113-7.671-.199-2.439-1.096-4.857-1.047-7.272,.109-5.299,.633-10.589,.95-15.884,.028-.467-.226-.95-.343-1.428-.394-1.601-1.11-3.2-1.128-4.805-.179-16.282-.15-32.567-.367-48.848-.21-15.822-.764-31.639-.916-47.461-.069-7.151,.386-14.313,.852-21.454,.053-.819,1.707-2.189,2.631-2.2,20.985-.237,41.972-.349,62.959-.342,1.011,0,2.811,1.211,2.908,2.018,.802,6.708,1.669,13.446,1.793,20.189,.257,13.99,.046,27.989,.069,41.984,.039,23.589,.131,47.177,.162,70.766,.028,20.993-.038,41.986,.061,62.979,.011,2.262,.84,4.52,1.428,7.476h-19.286Zm9.437-99.006c.055,0,.11,0,.166,0,0,8.296,.021,16.591-.004,24.887-.067,21.787-.181,43.574-.192,65.361-.001,1.965-.614,2.726-2.536,2.738-2.892,.017-5.785,.141-8.676,.272-2.118,.096-3.13-.774-3.129-2.976,.005-7.696-.17-15.392-.088-23.087,.179-16.867,.596-33.733,.677-50.6,.051-10.528-.229-21.061-.546-31.586-.637-21.168-1.372-42.334-2.211-63.495-.035-.87-1.48-2.318-2.374-2.405-2.969-.287-5.987-.081-8.986-.053-10.706,.101-9.484-1.567-9.429,9.121,.107,20.989,.281,41.981-.001,62.967-.2,14.862-1.309,29.71-1.633,44.573-.326,14.981-.189,29.971-.242,44.958-.009,2.399-.137,4.817,.115,7.192,.391,3.694,3.524,2.578,5.658,2.651,.712,.024,2.138-1.666,2.128-2.559-.178-15.603-.571-31.203-.825-46.806-.178-10.951-.319-21.905-.258-32.856,.019-3.439,1.053-6.87,1.093-10.312,.134-11.468,.029-22.939,.013-34.41-.009-6.495,.153-12.996-.093-19.482-.184-4.857-.94-9.691-1.359-14.542-.228-2.646,.45-4.272,3.704-3.226,1.483,.477,3.335,.832,4.728,.367,4.106-1.369,3.672,1.26,3.742,3.719,.341,11.96,.739,23.918,1.058,35.879,.085,3.172-.056,6.35-.062,9.525-.009,4.273-.075,8.549,.042,12.819,.163,5.984,.551,11.962,.668,17.947,.032,1.652-.557,3.316-.865,4.974-.37,1.994-1.149,4.01-1.042,5.978,.345,6.356,1.352,12.687,1.494,19.041,.406,18.083,.521,36.173,.727,54.26,.044,3.845,1.561,5.788,5.387,5.925,5.59,.199,11.196,.183,16.785-.023,.824-.03,2.157-1.533,2.277-2.478,.339-2.659,.177-5.382,.196-8.08,.164-22.586,.416-45.172,.46-67.759,.043-22.082-.022-44.166-.239-66.247-.171-17.293,1.032-34.644-1.975-51.843-.401-2.291-1.129-3.438-3.575-3.305-3.675,.199-7.359,.282-11.04,.342-15.663,.255-31.327,.438-46.987,.832-.943,.024-2.62,1.619-2.649,2.526-.32,9.858-.629,19.729-.457,29.587,.36,20.589,.577,41.173,.141,61.764-.104,4.889,.024,9.793,.297,14.675,.243,4.353,1.169,8.685,1.194,13.03,.037,6.521-.52,13.044-.664,19.569-.037,1.66,.753,3.328,.791,5,.305,13.58,.513,27.162,.774,40.742,.031,1.599-.572,3.66,2.222,3.614,2.346-.039,3.134-1.19,3.419-3.538,1.166-9.588-1.761-19.091-.261-28.719,.72-4.624,.239-9.438,.273-14.166,.036-4.982,.224-9.972,.017-14.944-.455-10.958-1.495-21.903-1.61-32.861-.199-19.037,.072-38.081,.245-57.12,.086-9.448,.329-18.897,.623-28.341,.148-4.768,.269-4.683,5.264-4.515,4.588,.154,9.184,.177,13.775,.136,9.989-.09,19.977-.245,29.965-.403,2.007-.032,3.273,.654,3.381,2.852,.142,2.889,.484,5.776,.488,8.664,.038,28.084,.023,56.168,.023,84.252ZM54.789,41.218c0,.105,0,.21,0,.315-5.396,0-10.793,.055-16.188-.025-2.387-.036-3.871,.761-4.027,3.307-.236,3.851-.617,7.699-.67,11.553-.09,6.482,.013,12.967,.065,19.45,.046,5.72,.127,11.439,.208,17.158,.05,3.543,.237,7.088,.178,10.629-.182,10.761-.787,21.526-.601,32.279,.206,11.94,1.323,23.863,1.619,35.803,.19,7.67-.589,15.36-.564,23.041,.026,7.979,.621,15.954,.728,23.935,.063,4.731,3.675,2.503,5.708,3.088,2.332,.671,2.449-1.245,2.49-2.96,.563-23.437-1.127-46.902,1.691-70.328,1.122-9.329,.335-18.893,.348-28.35,.016-11.581,.008-23.162-.08-34.742-.082-10.841-.196-21.683-.497-32.519-.064-2.285,.624-3.155,2.758-3.173,4.196-.035,8.392-.06,12.587-.131,2.996-.051,5.995-.317,8.983-.216,2.795,.094,3.364,1.465,2.243,3.956-.583,1.296-.95,2.851-.871,4.259,.596,10.639,1.508,21.262,1.962,31.906,.395,9.255,.34,18.531,.446,27.798,.066,5.764-.046,11.532,.119,17.292,.165,5.743,.888,11.483,.81,17.216-.12,8.825-.889,17.639-1.063,26.464-.202,10.262-.083,20.531-.055,30.796,.01,3.873,.08,7.749,.263,11.618,.137,2.893,2.253,3.062,4.524,3.084,2.073,.02,3.803-.038,3.931-2.799,.202-4.36,.775-8.71,.828-13.069,.259-21.279,.499-42.56,.554-63.84,.07-26.881-.015-53.762-.102-80.643-.02-6.28-.297-12.561-.505-18.84-.075-2.254-1.156-3.374-3.603-3.347-8.072,.091-16.146,.034-24.219,.034Zm1.114,169.218c.166,0,.333,0,.499,0,0,2.898,.293,5.833-.069,8.685-.531,4.184,1.516,5.707,5.202,6.293,2.055,.327,2.97-.05,2.95-2.338-.08-8.982,.184-17.973-.1-26.947-.313-9.872-1.349-19.723-1.586-29.594-.217-9.064,.161-18.145,.378-27.215,.108-4.507,.687-9.013,.615-13.512-.09-5.64-.838-11.27-.936-16.911-.251-14.471-.38-28.945-.378-43.418,0-3.877-2.523-3.068-4.695-3.078-2.49-.012-3.58,1.042-3.122,3.766,.693,4.126,1.458,8.305,1.487,12.467,.148,20.979,.079,41.959,.031,62.939-.003,1.146-.508,2.291-.774,3.438-.368,1.588-1.122,3.201-1.024,4.761,.35,5.559,1.367,11.094,1.448,16.649,.215,14.669,.073,29.344,.073,44.016Zm36.411,45.803l1.566-.426c-.672-3.27-.867-6.765-2.252-9.698-.548-1.161-3.741-1.074-5.73-1.556-.151,.309-.301,.618-.452,.928,2.289,3.584,4.578,7.168,6.867,10.752Z" fill="#171313"/>
  <path d="M6.448,375.662c-.751-16.705-1.502-33.41-2.253-50.115,.563-.065,1.127-.131,1.69-.196,.201,1.33,.557,2.657,.578,3.99,.091,5.883-.015,11.771,.165,17.65,.068,2.22,.962,4.412,1.051,6.634,.283,7.05,.373,14.109,.495,21.165,.005,.3-.41,.606-.629,.91l-1.097-.038Z" fill="#171313"/>
  <path d="M8.083,396.25v31.804l-.82,.008v-31.808c.273-.001,.547-.003,.82-.004Z" fill="#171313"/>
  <path d="M9.225,450.575c-2.566-4.044-2.266-7.712,0-9.657v9.657Z" fill="#171313"/>
  <path d="M7.425,436.69v-4.063l.954,.011v4.071l-.954-.018Z" fill="#171313"/>
  <path d="M1.546,105.875v2.893c-.17,0-.339,0-.509,.001v-2.876c.17-.006,.339-.012,.509-.018Z" fill="#171313"/>
  <path d="M7.416,387.838c-.122,.137-.237,.266-.353,.396-.145-.181-.29-.362-.435-.543,.148-.085,.313-.256,.439-.231,.133,.026,.23,.24,.349,.379Z" fill="#171313"/>
  <path d="M92.658,230.336c-.1-1.2-.286-2.4-.287-3.6-.019-16.3-.04-32.6,0-48.9,.016-6.3,.284-12.6,.267-18.9-.043-16.1-.192-32.2-.266-48.3-.009-1.9,.286-3.801,.27-5.7-.175-19.7-.274-39.402-.66-59.099-.1-5.11-1.199-10.194-1.689-15.305-.204-2.122-.893-2.284-3.039-2.22-9.491,.285-18.996,.099-28.496,.137-3.1,.012-6.2,.186-9.3,.286" fill="none" stroke="#171313" stroke-linecap="round" stroke-linejoin="round" stroke-width="2"/>
  <path d="M24.258,30.536c-.2,4.2-.538,8.399-.566,12.6-.037,5.599,.197,11.199,.256,16.8,.048,4.499-.02,9,.016,13.5,.081,10.3,.242,20.6,.282,30.9,.05,13.1-.071,26.201,.08,39.299,.031,2.705,.928,5.402,1.438,8.1,.058,.308,.375,.713,.268,.885-2.401,3.862-.387,7.805-.333,11.717,.03,2.195-.874,4.413-.782,6.597,.354,8.406,1.151,16.797,1.384,25.204,.252,9.093,.057,18.198,.057,27.298" fill="none" stroke="#171313" stroke-linecap="round" stroke-linejoin="round" stroke-width="2"/>
  <path d="M70.458,51.836c-1.3-.4-2.598-1.134-3.9-1.142-5.599-.036-11.2,.202-16.8,.212-2.178,.004-3.147,.482-3.07,3.032,.278,9.195,.348,18.398,.348,27.598,0,9.2-.246,18.4-.256,27.6-.008,7.2,.451,14.409,.214,21.598-.353,10.708-1.146,21.402-1.729,32.103-.147,2.697-.289,5.399-.294,8.1-.028,15.4,.012,30.8-.04,46.2-.008,2.401-.373,4.8-.573,7.2" fill="none" stroke="#171313" stroke-linecap="round" stroke-linejoin="round" stroke-width="2"/>
  <path d="M63.558,59.036c0,2-.043,4.001,.007,6,.286,11.5,.688,22.999,.857,34.501,.099,6.697-.277,13.4-.217,20.099,.031,3.402,.904,6.814,.777,10.198-.233,6.21-1.134,12.395-1.361,18.605-.201,5.489,.024,11.003,.262,16.497,.408,9.404,1.147,18.796,1.428,28.202,.305,10.194,.294,20.399,.291,30.599,0,1.4-.745,2.8-1.145,4.2" fill="none" stroke="#171313" stroke-linecap="round" stroke-linejoin="round" stroke-width="2"/>
  <path d="M96.558,15.086c-8.5-.05-17-.1-25.5-.15" fill="none" stroke="#171313" stroke-linecap="round" stroke-linejoin="round" stroke-width="2"/>
  <path d="M11.958,16.736c-.1,9.3-.267,18.6-.267,27.9,0,3.7,.396,7.399,.561,11.1,.321,7.199,.892,14.402,.83,21.599-.07,8.103-.775,16.199-1.085,24.302-.068,1.79,.361,3.598,.561,5.398" fill="none" stroke="#171313" stroke-linecap="round" stroke-linejoin="round" stroke-width="2"/>
  <path d="M12.558,107.336c-.1,6.2-1.175,12.583-.053,18.554,1.403,7.463,.929,14.836,1.234,22.247,.119,2.895,.019,5.799,.019,8.699,0,13.5-.036,27,.013,40.5,.031,8.7,.187,17.4,.287,26.1" fill="none" stroke="#171313" stroke-linecap="round" stroke-linejoin="round" stroke-width="2"/>
  <path d="M71.058,51.386c-.4,3.55-1.244,7.116-1.114,10.647,.347,9.409,1.149,18.801,1.696,28.204,.209,3.594,.282,7.199,.304,10.799,.045,7.2-.103,14.402,.047,21.599,.143,6.853,.795,13.701,.8,20.551,.005,6.55-.684,13.097-.797,19.651-.15,8.697-.037,17.399-.037,26.099v29.7c0,6.3,0,6.335,6.3,6.273,1.402-.014,2.8-.373,4.2-.573" fill="none" stroke="#171313" stroke-linecap="round" stroke-linejoin="round" stroke-width="2"/>
  <path d="M83.508,220.736c.15-2.2,.409-4.399,.432-6.6,.136-13,.26-26,.306-39,.05-14.2,.011-28.4,.011-42.6,0-20,.03-40-.014-60-.02-9.2-.129-18.401-.338-27.599-.039-1.708-.748-3.401-1.148-5.101" fill="none" stroke="#171313" stroke-linecap="round" stroke-linejoin="round" stroke-width="2"/>
  <path d="M73.158,39.086c-2.5,.15-5,.3-7.5,.45" fill="none" stroke="#171313" stroke-linecap="round" stroke-linejoin="round" stroke-width="2"/>
  <path d="M33.858,41.336c-.4,9.3-.949,18.597-1.151,27.901-.15,6.895,.278,13.8,.222,20.699-.09,10.901-.504,21.8-.527,32.7-.018,8.3,.293,16.602,.573,24.899,.328,9.702,.838,19.399,1.159,29.101,.145,4.395,.025,8.799,.025,13.199v33.6" fill="none" stroke="#171313" stroke-linecap="round" stroke-linejoin="round" stroke-width="2"/>
  <path d="M111.258,2.636c.1,8.2-.101,16.418,.378,24.595,.569,9.719,1.748,19.402,2.604,29.106,.22,2.489,.218,4.998,.318,7.498" fill="none" stroke="#171313" stroke-linecap="round" stroke-linejoin="round" stroke-width="2"/>
  <path d="M114.558,64.136c.3,11.5,.762,22.999,.856,34.5,.098,12.098-.32,24.201-.196,36.299,.078,7.603,.936,15.197,1.077,22.802,.111,5.994-.358,11.998-.527,17.999-.065,2.298-.011,4.6-.011,6.9v6.6c0,3-.269,6.029,.047,8.995,1.319,12.374,1.729,24.747,1.617,37.206-.095,10.593,1.641,21.193,1.798,31.801,.111,7.489-1.142,14.993-1.603,22.502-.106,1.725,.54,3.496,.84,5.246" fill="none" stroke="#171313" stroke-linecap="round" stroke-linejoin="round" stroke-width="2"/>
  <path d="M15.858,269.936c.824,21.796,2.732,43.538,2.201,65.402-.478,19.688-.154,39.398-.073,59.097,.03,7.401,.354,14.801,.577,22.2,.385,12.8,.804,25.6,1.179,38.401,.026,.896-.183,1.8-.283,2.7" fill="none" stroke="#171313" stroke-linecap="round" stroke-linejoin="round" stroke-width="2"/>
  <path d="M102.258,20.336c.2,6.4,.484,12.799,.581,19.2,.167,10.999,.02,22.006,.38,32.998,.305,9.31,1.49,18.596,1.66,27.903,.287,15.695,.016,31.399,.106,47.098,.043,7.601,.297,15.203,.591,22.799,.43,11.103,1.251,22.197,1.418,33.302,.246,16.296,.034,32.599,.077,48.899,.018,7,.365,14.004,.199,20.998-.067,2.813-1.112,5.602-1.712,8.402" fill="none" stroke="#171313" stroke-linecap="round" stroke-linejoin="round" stroke-width="2"/>
  <path d="M1.458,112.436c.1,7,.292,14,.279,21-.022,11.3-.217,22.6-.268,33.9-.05,11.1-1.26,22.393,.414,33.234,1.18,7.646,.595,15.358,2.275,22.866" fill="none" stroke="#171313" stroke-linecap="round" stroke-linejoin="round" stroke-width="2"/>
  <path d="M4.008,227.936c.05,1.1,.1,2.2,.15,3.3" fill="none" stroke="#171313" stroke-linecap="round" stroke-linejoin="round" stroke-width="2"/>
  <path d="M4.308,239.336c.05,3.6,.018,7.203,.169,10.799,.227,5.403,.794,10.799,.84,16.201,.122,14.299,.041,28.6,.041,42.9v12.6" fill="none" stroke="#171313" stroke-linecap="round" stroke-linejoin="round" stroke-width="2"/>
  <path d="M87.858,358.736c.1,9.2,.425,18.405,.231,27.599-.163,7.707-1.287,15.399-1.332,23.102-.046,7.897,.711,15.799,1.083,23.7,.033,.694-.182,1.399-.282,2.099" fill="none" stroke="#171313" stroke-linecap="round" stroke-linejoin="round" stroke-width="2"/>
  <path d="M87.558,435.536c-1.7,.4-3.4,.8-5.1,1.2" fill="none" stroke="#171313" stroke-linecap="round" stroke-linejoin="round" stroke-width="2"/>
  <path d="M76.158,343.136c2.074,18.151,1.951,36.378,1.748,54.599-.046,4.104-.748,8.201-1.148,12.301" fill="none" stroke="#171313" stroke-linecap="round" stroke-linejoin="round" stroke-width="2"/>
  <path d="M76.908,413.936c-.05,2.9-.1,5.8-.15,8.7" fill="none" stroke="#171313" stroke-linecap="round" stroke-linejoin="round" stroke-width="2"/>
  <path d="M73.158,424.886c-6.3,.05-12.6,.086-18.9,.162-1.201,.015-2.4,.188-3.6,.288" fill="none" stroke="#171313" stroke-linecap="round" stroke-linejoin="round" stroke-width="2"/>
  <path d="M51.258,2.936c-4.2,.1-8.4,.215-12.6,.297-10.7,.209-21.4,.406-32.1,.59-.298,.005-.6-.187-.9-.287" fill="none" stroke="#171313" stroke-linecap="round" stroke-linejoin="round" stroke-width="2"/>
  <path d="M1.608,5.336c-.15,7.1-.368,14.199-.432,21.3-.076,8.399-.05,16.8-.004,25.2,.024,4.4,.252,8.8,.273,13.2,.044,9.4,.035,18.8,0,28.2-.01,2.6-.186,5.2-.286,7.8" fill="none" stroke="#171313" stroke-linecap="round" stroke-linejoin="round" stroke-width="2"/>
  <path d="M27.858,267.236c.2,4.1,.577,8.2,.57,12.3-.031,18.6-.232,37.2-.248,55.8-.011,13-.804,26.104,.554,38.971,1.365,12.928,1.541,25.809,1.792,38.73,.099,5.096-.286,10.202-.194,15.298,.027,1.508,.927,3.001,1.427,4.501" fill="none" stroke="#171313" stroke-linecap="round" stroke-linejoin="round" stroke-width="2"/>
  <path d="M62.658,61.436c-.1,0-.2,.003-.3,0-2.5-.099-5.364-1.018-7.414-.107-3.048,1.354-1.014,4.595-.954,7.007,.335,13.402,.868,26.799,1.134,40.201,.181,9.096,.06,18.199,.008,27.299-.008,1.401-.373,2.8-.573,4.2" fill="none" stroke="#171313" stroke-linecap="round" stroke-linejoin="round" stroke-width="2"/>
  <path d="M54.558,140.336c-.3,4.6-.868,9.202-.836,13.8,.046,6.502,.676,12.998,.807,19.501,.292,14.498,.449,28.999,.61,43.5,.03,2.699-.181,5.4-.281,8.1" fill="none" stroke="#171313" stroke-linecap="round" stroke-linejoin="round" stroke-width="2"/>
  <path d="M138.408,238.136c.25,5.1,.5,10.2,.75,15.3" fill="none" stroke="#171313" stroke-linecap="round" stroke-linejoin="round" stroke-width="2"/>
  <path d="M138.858,257.336c-.4,7.8-.795,15.6-1.204,23.4-.068,1.302-.196,2.6-.296,3.9" fill="none" stroke="#171313" stroke-linecap="round" stroke-linejoin="round" stroke-width="2"/>
  <path d="M137.208,291.536c-.15,.7-.3,1.4-.45,2.1" fill="none" stroke="#171313" stroke-linecap="round" stroke-linejoin="round" stroke-width="2"/>
  <path d="M137.208,299.936c-.15,.5-.3,1-.45,1.5" fill="none" stroke="#171313" stroke-linecap="round" stroke-linejoin="round" stroke-width="2"/>
  <path d="M136.608,308.336c-.15,4.3-.133,8.615-.521,12.894-.194,2.137-1.129,4.206-1.729,6.306" fill="none" stroke="#171313" stroke-linecap="round" stroke-linejoin="round" stroke-width="2"/>
  <path d="M110.358,416.036c-.6,3-1.7,5.998-1.71,9-.033,10.499,.286,21,.526,31.499,.062,2.73-2.205,2.611-3.617,2.617-11.999,.046-24-.187-36-.183-5.1,.001-10.2,.367-15.3,.567" fill="none" stroke="#171313" stroke-linecap="round" stroke-linejoin="round" stroke-width="2"/>
  <path d="M41.358,459.686c-3.484-.467-7.173,1.919-10.5-.75" fill="none" stroke="#171313" stroke-linecap="round" stroke-linejoin="round" stroke-width="2"/>
  <path d="M98.358,382.436c-2.849,2.381-1.465,5.519-1.498,8.4-.106,9.2-.239,18.4-.291,27.6-.05,8.8,.125,17.603-.1,26.398-.061,2.385,.371,3.445,2.79,3.302" fill="none" stroke="#171313" stroke-linecap="round" stroke-linejoin="round" stroke-width="2"/>
  <path d="M131.958,336.536c-1,4.8-1.887,9.627-3.033,14.392-1.043,4.338-2.367,8.608-3.567,12.908" fill="none" stroke="#171313" stroke-linecap="round" stroke-linejoin="round" stroke-width="2"/>
  <path d="M121.608,377.936c-.15,.5-.3,1-.45,1.5" fill="none" stroke="#171313" stroke-linecap="round" stroke-linejoin="round" stroke-width="2"/>
  <path d="M96.558,447.536c-2.8,.3-5.594,.765-8.401,.866-5.896,.213-11.799,.234-17.699,.334" fill="none" stroke="#171313" stroke-linecap="round" stroke-linejoin="round" stroke-width="2"/>
  <path d="M65.358,448.586c-8.1,.15-16.2,.312-24.3,.434-.998,.015-2-.184-3-.284" fill="none" stroke="#171313" stroke-linecap="round" stroke-linejoin="round" stroke-width="2"/>
  <path d="M49.308,421.736c.15,.5,.3,1,.45,1.5" fill="none" stroke="#171313" stroke-linecap="round" stroke-linejoin="round" stroke-width="2"/>
  <path d="M65.958,367.436c.6,1.6,1.705,3.195,1.721,4.801,.138,13.799,.083,27.599,.073,41.399,0,1.101-.095,2.203-.16,3.6-2.725,0-5.333-.084-7.932,.027-2.067,.088-2.462-.961-2.424-2.727,.077-3.598,.168-7.208-.045-10.795-.091-1.524-.932-3.004-1.432-4.504" fill="none" stroke="#171313" stroke-linecap="round" stroke-linejoin="round" stroke-width="2"/>
  <path d="M26.958,470.036c4.104,2.51,8.592,.947,12.902,1.165,4.992,.252,9.998,.235,14.998,.335" fill="none" stroke="#171313" stroke-linecap="round" stroke-linejoin="round" stroke-width="2"/>
  <path d="M63.558,471.686l8.1,.45" fill="none" stroke="#171313" stroke-linecap="round" stroke-linejoin="round" stroke-width="2"/>
  <path d="M71.958,472.136h5.7" fill="none" stroke="#171313" stroke-linecap="round" stroke-linejoin="round" stroke-width="2"/>
  <path d="M82.758,471.686c11.8-.15,23.601-.261,35.399-.484,2.312-.044,3.478-1.192,3.369-3.869-.227-5.591-.161-11.2,0-16.795,.038-1.313,.932-2.602,1.432-3.902" fill="none" stroke="#171313" stroke-linecap="round" stroke-linejoin="round" stroke-width="2"/>
  <path d="M40.308,317.936c.95,3.1,1.9,6.2,2.85,9.3" fill="none" stroke="#171313" stroke-linecap="round" stroke-linejoin="round" stroke-width="2"/>
  <path d="M44.508,331.136c.15,.5,.3,1,.45,1.5" fill="none" stroke="#171313" stroke-linecap="round" stroke-linejoin="round" stroke-width="2"/>
  <path d="M46.308,336.536c.75,2.4,1.645,4.768,2.18,7.215,.221,1.008-.33,2.185-.53,3.285" fill="none" stroke="#171313" stroke-linecap="round" stroke-linejoin="round" stroke-width="2"/>
  <path d="M63.408,338.936l-.45,2.7" fill="none" stroke="#171313" stroke-linecap="round" stroke-linejoin="round" stroke-width="2"/>
  <path d="M61.608,346.136c-.15,.5-.3,1-.45,1.5" fill="none" stroke="#171313" stroke-linecap="round" stroke-linejoin="round" stroke-width="2"/>
  <path d="M44.958,365.786c-1.7-.65-3.4-1.3-5.1-1.95" fill="none" stroke="#171313" stroke-linecap="round" stroke-linejoin="round" stroke-width="2"/>
  <path d="M38.358,315.836c-.6,1.5-1.734,3.007-1.713,4.499,.13,9.602,.337,19.211,.887,28.797,.283,4.924,1.85,9.798,1.912,14.706,.11,8.695-.641,17.397-.701,26.099-.022,3.096,.916,6.199,1.416,9.299" fill="none" stroke="#171313" stroke-linecap="round" stroke-linejoin="round" stroke-width="2"/>
  <path d="M89.958,2.486c-1.9-.05-3.8-.1-5.7-.15" fill="none" stroke="#171313" stroke-linecap="round" stroke-linejoin="round" stroke-width="2"/>
  <path d="M83.958,2.336c-1.7,.2-3.4,.4-5.1,.6" fill="none" stroke="#171313" stroke-linecap="round" stroke-linejoin="round" stroke-width="2"/>
  <path d="M92.958,258.836c3.027-4.638,1.191-9.402,.167-14.071-.113-.516-2.059-.841-3.168-.882-1.894-.071-3.798,.153-5.698,.253" fill="none" stroke="#171313" stroke-linecap="round" stroke-linejoin="round" stroke-width="2"/>
  <path d="M119.958,301.736c2.8,3.5,5.6,7,8.4,10.5" fill="none" stroke="#171313" stroke-linecap="round" stroke-linejoin="round" stroke-width="2"/>
  <path d="M34.608,429.536c-.55,1.2-1.1,2.4-1.65,3.6" fill="none" stroke="#171313" stroke-linecap="round" stroke-linejoin="round" stroke-width="2"/>
  <path d="M136.608,338.936c.05,5.1,.1,10.2,.15,15.3" fill="none" stroke="#171313" stroke-linecap="round" stroke-linejoin="round" stroke-width="2"/>
  <path d="M136.608,361.136c.05,5.9,.157,11.8,.133,17.7-.023,5.6-.201,11.2-.267,16.8-.012,.999,.184,2,.284,3" fill="none" stroke="#171313" stroke-linecap="round" stroke-linejoin="round" stroke-width="2"/>
  <path d="M7.458,395.636c.1,11,.2,22,.3,33" fill="none" stroke="#171313" stroke-linecap="round" stroke-linejoin="round" stroke-width="2"/>
  <path d="M9.258,453.836c-.1,4.9-.288,9.801-.259,14.7,.013,2.146,1.134,3.112,3.565,2.925,3.277-.252,6.594,.025,9.894,.075" fill="none" stroke="#171313" stroke-linecap="round" stroke-linejoin="round" stroke-width="2"/>
  <path d="M74.358,340.736c-1.5,2.8-3.279,5.491-4.424,8.43-1.235,3.17-1.876,6.57-2.776,9.87" fill="none" stroke="#171313" stroke-linecap="round" stroke-linejoin="round" stroke-width="2"/>
  <path d="M61.608,375.536c-.15,.5-.3,1-.45,1.5" fill="none" stroke="#171313" stroke-linecap="round" stroke-linejoin="round" stroke-width="2"/>
  <path d="M5.658,324.836c0,8.9-.253,17.81,.09,26.697,.224,5.818,1.44,11.592,1.945,17.409,.197,2.265-.335,4.594-.535,6.894" fill="none" stroke="#171313" stroke-linecap="round" stroke-linejoin="round" stroke-width="2"/>
  <path d="M41.208,276.536l-2.25,6.3" fill="none" stroke="#171313" stroke-linecap="round" stroke-linejoin="round" stroke-width="2"/>
  <path d="M54.558,399.236l-1.8,3.6" fill="none" stroke="#171313" stroke-linecap="round" stroke-linejoin="round" stroke-width="2"/>
  <path d="M95.658,230.936c-6.1,0-12.201-.068-18.299,.055-1.308,.026-2.601,.745-3.901,1.145" fill="none" stroke="#171313" stroke-linecap="round" stroke-linejoin="round" stroke-width="2"/>
  <path d="M35.958,266.036c.2,4.4,.283,8.811,.675,13.193,.111,1.244,1.125,2.407,1.725,3.607" fill="none" stroke="#171313" stroke-linecap="round" stroke-linejoin="round" stroke-width="2"/>
  <path d="M65.958,228.836c1.9,.9,3.8,1.8,5.7,2.7" fill="none" stroke="#171313" stroke-linecap="round" stroke-linejoin="round" stroke-width="2"/>
  <path d="M8.958,440.636c-.2,3.4-.4,6.8-.6,10.2" fill="none" stroke="#171313" stroke-linecap="round" stroke-linejoin="round" stroke-width="2"/>
  <path d="M129.858,313.436c.3,2.2,.6,4.4,.9,6.6" fill="none" stroke="#171313" stroke-linecap="round" stroke-linejoin="round" stroke-width="2"/>
  <path d="M86.058,353.636c.407,1.622,.814,3.243,1.288,5.132,1.272-.725,2.242-1.278,3.212-1.832" fill="none" stroke="#171313" stroke-linecap="round" stroke-linejoin="round" stroke-width="2"/>
  <path d="M1.458,105.236v4.2" fill="none" stroke="#171313" stroke-linecap="round" stroke-linejoin="round" stroke-width="2"/>
  <path d="M32.358,445.136c1.1,.6,2.2,1.2,3.3,1.8" fill="none" stroke="#171313" stroke-linecap="round" stroke-linejoin="round" stroke-width="2"/>
  <path d="M8.058,432.236c-.1,1.6-.2,3.2-.3,4.8" fill="none" stroke="#171313" stroke-linecap="round" stroke-linejoin="round" stroke-width="2"/>
</svg>